<svg xmlns="http://www.w3.org/2000/svg" viewBox="0 0 400.42 148.36"><defs><style>.cls-1{fill:none;}.cls-2{fill:#d4e0e8;}.cls-3{fill:#668999;}.cls-4{fill:#7eaccc;}.cls-5{fill:#94c4e4;}.cls-6{fill:#7cabcd;}.cls-7{fill:#769ebf;}.cls-8{fill:#ccc;}</style></defs><title>Asset 2</title><g id="Layer_2" data-name="Layer 2"><g id="love_statue" data-name="love statue"><line class="cls-1" x1="244.05" y1="33.67" x2="235.05" y2="45.56"/><ellipse class="cls-2" cx="46.26" cy="95.49" rx="43.45" ry="19.38" transform="translate(-4.12 1.72) rotate(-2.35)"/></g><g id="button_statue" data-name="button statue"><path class="cls-2" d="M399.61,95.11a16.08,16.08,0,0,1,1,6.54,14.36,14.36,0,0,1-.26,1.95,21.78,21.78,0,0,1-2.11,5.55,28.4,28.4,0,0,1-1.69,2.91c-.79,1-2.48,2.87-7.48,5.64a61.43,61.43,0,0,1-13.48,5.45,296.66,296.66,0,0,1-65.1,5.45,305.82,305.82,0,0,1-67.69-9.76A310.81,310.81,0,0,1,208,107.6c.68-1.47,1.24-2.59,1.29-2.7,1-2,2-3.66,3.21-5.78,3.05-5.24,5.87-9.38,7.92-12.23l1.71.34,17-27.2,8.25-13.16c1.13.71,2.36,1.42,3.68,2.14h0a78.55,78.55,0,0,0,11.52,5.16A79.06,79.06,0,0,0,281,58.36c.28,0,3.74-.14,5.25-2.79a5.2,5.2,0,0,0,.65-2.42,20.51,20.51,0,0,0-2.72-3.31,20,20,0,0,0-6.95-4.37,92.89,92.89,0,0,0-10-5.57c7.55-2.36,12.37-5,12-7-.45-2.52-9.07-3.21-20.53-1.9q4.8-6.36,9.61-12.71l3.12-7.59s.83-2,.85-2.07C274.22,6,276.12,3.43,278,.84c10.5,4.65,19.23,8.91,25.76,12.22,11.59,5.89,22.3,11.37,35.3,20,5.24,3.48,9.79,6.91,16.92,12.2,8.27,6.14,12.41,9.21,16.09,12.45a128.4,128.4,0,0,1,18.08,19.47A74.16,74.16,0,0,1,399.61,95.11Z" transform="translate(-0.25 -0.25)"/><path class="cls-3" d="M202.51,123.06l4.55-13.29,1.51.47a319.69,319.69,0,0,0,48,13.77,326.92,326.92,0,0,0,52.77,6.19c17.45.78,28.3,0,42-.95,0,0,9.63-.68,25.29-4.53a40.21,40.21,0,0,0,9.6-3.63,27.75,27.75,0,0,0,7.25-5.18,27.15,27.15,0,0,0,3.1-3.85,18.76,18.76,0,0,0,3.26-6.23l.54,0a50,50,0,0,1-5.16,17.83,35.22,35.22,0,0,1-5.44,8.25c-4.31,4.7-8.81,6.45-15.69,9.56a83,83,0,0,1-29.87,6.91c-2.35.14-4.21.17-6.42.18a417.74,417.74,0,0,1-44.34-2.28c-16.4-1.92-28.29-4.48-42.74-7.63-12.51-2.72-29.08-6.73-48.5-12.54v-2.27Z" transform="translate(-0.25 -0.25)"/><path class="cls-3" d="M400.39,103.6a22.69,22.69,0,0,1-.54,2.23,18.76,18.76,0,0,1-3.26,6.23,28.4,28.4,0,0,0,1.69-2.91A21.78,21.78,0,0,0,400.39,103.6Z" transform="translate(-0.25 -0.25)"/><path class="cls-3" d="M396.59,112.06a27.15,27.15,0,0,1-3.1,3.85,27.75,27.75,0,0,1-7.25,5.18,40.21,40.21,0,0,1-9.6,3.63c-15.66,3.85-25.29,4.53-25.29,4.53-13.67,1-24.52,1.73-42,.95A326.92,326.92,0,0,1,256.61,124a319.69,319.69,0,0,1-48-13.77l-1.51-.47c.31-.75.64-1.49.95-2.17a310.81,310.81,0,0,0,34.83,11.24,305.82,305.82,0,0,0,67.69,9.76,296.66,296.66,0,0,0,65.1-5.45,61.43,61.43,0,0,0,13.48-5.45C394.11,114.93,395.8,113,396.59,112.06Z" transform="translate(-0.25 -0.25)"/><path class="cls-4" d="M286.9,53.15a5.2,5.2,0,0,1-.65,2.42c-1.51,2.65-5,2.78-5.25,2.79a79.06,79.06,0,0,1-18.38-4.18A78.55,78.55,0,0,1,251.1,49h0l1.83-5.67a119,119,0,0,0,14.34-3.44,92.89,92.89,0,0,1,10,5.57,20,20,0,0,1,6.95,4.37A20.51,20.51,0,0,1,286.9,53.15Z" transform="translate(-0.25 -0.25)"/><path class="cls-2" d="M279.29,32.89c.35,2-4.47,4.65-12,7a92.23,92.23,0,0,0-11.72-4.68L258.76,31C270.22,29.68,278.84,30.37,279.29,32.89Z" transform="translate(-0.25 -0.25)"/><path class="cls-5" d="M270.09,5.19l1.4,5.5-3.12,7.59q-4.81,6.34-9.61,12.71c-2.61.29-5.37.69-8.22,1.19-1.94.34-3.82.72-5.64,1.11l17.38-18,.33-8,5.19-7,.66.39.62,1.2Z" transform="translate(-0.25 -0.25)"/><path class="cls-2" d="M235.34,45.67l0,.07-.05.07-24.59,44-4.3-4.14L196.13,98.8a3.14,3.14,0,0,0-.59,1.69c-22.76,4.2-42.2,6.86-57.09,8.6-5.16.61-24.62,2.83-50.48,4.3-33.06,1.89-44.61.7-52.77-.57l-1.55-.25-10.15-2-10-2.94c9.19,1.13,22.09-1.3,35.2-7.23,21.87-9.89,36-25.82,31.6-35.56s-25.72-9.64-47.57.25q-2.13,1-4.15,2c5.64-3.35,22.11-12.9,34.65-17.74,15.38-5.91,52.7-16.64,52.7-16.64l68.71-19L249.44,1.49,267.8.25l-5.19,7-.33,8-16.61,17-1,1,0,.06C232.28,36.1,223.3,40,223.77,42.7c.33,1.84,5,2.7,11.91,2.53ZM202.79,41.5c13.6-3.07,24.21-7.33,23.72-9.51S214.6,30.53,201,33.6s-24.22,7.32-23.72,9.5S189.2,44.56,202.79,41.5ZM196.49,69c15.19-3.43,26.78-9.36,25.9-13.24s-13.89-4.26-29.07-.83-26.79,9.35-25.92,13.24S181.31,72.41,196.49,69Zm-48.63-5c14.3-3.7,25.32-9,24.59-11.78s-12.91-2.08-27.22,1.62-25.33,9-24.6,11.79S133.55,67.72,147.86,64Z" transform="translate(-0.25 -0.25)"/><path class="cls-5" d="M262.28,15.29l-17.38,18h0l.8-1Z" transform="translate(-0.25 -0.25)"/><path class="cls-5" d="M258.76,31l-3.21,4.23-2.62,8.12-.41.07q-2.88.51-5.63.88l-2.16-10.8.06-.07.11-.13c1.82-.39,3.7-.77,5.64-1.11C253.39,31.68,256.15,31.28,258.76,31Z" transform="translate(-0.25 -0.25)"/><path class="cls-4" d="M255.55,35.22a92.23,92.23,0,0,1,11.72,4.68,119,119,0,0,1-14.34,3.44Z" transform="translate(-0.25 -0.25)"/><path class="cls-5" d="M252.93,43.34,251.1,49c-1.32-.72-2.55-1.43-3.68-2.14l-.53-2.58q2.75-.37,5.63-.88Z" transform="translate(-0.25 -0.25)"/><path class="cls-6" d="M246.89,44.29l.53,2.58L239.17,60l-.44-.28-3.37-14,.39-.51A103.83,103.83,0,0,0,246.89,44.29Z" transform="translate(-0.25 -0.25)"/><path class="cls-6" d="M244.73,33.49l2.16,10.8a103.83,103.83,0,0,1-11.14.94l3.5-4.63Z" transform="translate(-0.25 -0.25)"/><path class="cls-2" d="M245.67,32.27l-.8,1-.17,0,0-.06Z" transform="translate(-0.25 -0.25)"/><path class="cls-5" d="M244.9,33.29l-.11.13.08-.12Z" transform="translate(-0.25 -0.25)"/><path class="cls-6" d="M244.87,33.3l-.08.12-.07.06,0-.14Z" transform="translate(-0.25 -0.25)"/><polygon class="cls-6" points="244.54 33.16 244.48 33.24 244.47 33.23 244.54 33.16"/><polygon class="cls-6" points="244.47 33.23 244.48 33.24 239 40.35 244.05 33.66 244.47 33.23"/><path class="cls-6" d="M244.7,33.34l0,.14-.42.43-5.05,6.69-3.57,4.63c-6.93.17-11.58-.69-11.91-2.53C223.3,40,232.28,36.1,244.7,33.34Z" transform="translate(-0.25 -0.25)"/><path class="cls-6" d="M239.25,40.6l-3.5,4.63h-.07Z" transform="translate(-0.25 -0.25)"/><path class="cls-5" d="M195.54,100.49a3.14,3.14,0,0,1,.59-1.69l10.29-13.16,4.3,4.14,24.59-44,.05-.07,3.37,14,.44.28-17,27.2-1.71-.34c-2.05,2.85-4.87,7-7.92,12.23-1.24,2.12-2.23,3.83-3.21,5.78-.05.11-.61,1.23-1.29,2.7-.31.68-.64,1.42-.95,2.17l-10.93-4.24A12.93,12.93,0,0,1,195.54,100.49Z" transform="translate(-0.25 -0.25)"/><path class="cls-6" d="M235.75,45.23l-.39.51,0-.07.34-.44Z" transform="translate(-0.25 -0.25)"/><path class="cls-7" d="M226.51,32c.49,2.18-10.12,6.44-23.72,9.51s-25,3.78-25.5,1.6,10.12-6.43,23.72-9.5S226,29.81,226.51,32Z" transform="translate(-0.25 -0.25)"/><path class="cls-7" d="M222.39,55.74c.88,3.88-10.71,9.81-25.9,13.24S168.28,72,167.4,68.15s10.73-9.81,25.92-13.24S221.52,51.85,222.39,55.74Z" transform="translate(-0.25 -0.25)"/><path class="cls-5" d="M207.06,109.77l-4.55,13.29-1.23.32a7.29,7.29,0,0,1-1.48-3.83c-.75-4.5-3.67-14-3.67-14Z" transform="translate(-0.25 -0.25)"/><path class="cls-5" d="M202.51,123.06l-.28.83a1.29,1.29,0,0,1-.95-.51Z" transform="translate(-0.25 -0.25)"/><path class="cls-3" d="M199.8,119.55a7.29,7.29,0,0,0,1.48,3.83c-4.93,1.27-11.07,2.73-18.14,4.12-3.58.71-16.75,3.25-40.19,5.45-22.67,2.12-40.86,2.6-51.64,2.72-21.4.24-32.36.32-45.06-2a152.72,152.72,0,0,1-33.08-10.18,28.69,28.69,0,0,1-6-5.68C.25,109,.12,98.48.29,94.45l.08.78a10,10,0,0,0,.71,5.42,10.51,10.51,0,0,0,5.26,5,20.7,20.7,0,0,0,4.77,1.56h0a169.66,169.66,0,0,0,22.53,5.33l12.91,2.58,28.76-.2,28.1.51,40.69-2.52,52-7.41S199.05,115.05,199.8,119.55Z" transform="translate(-0.25 -0.25)"/><path class="cls-3" d="M196.13,105.53l-52,7.41-40.69,2.52L75.32,115l-28.76.2-12.91-2.58,1.55.25c8.16,1.27,19.71,2.46,52.77.57,25.86-1.47,45.32-3.69,50.48-4.3,14.89-1.74,34.33-4.4,57.09-8.6A12.93,12.93,0,0,0,196.13,105.53Z" transform="translate(-0.25 -0.25)"/><path class="cls-7" d="M172.45,52.24c.73,2.81-10.29,8.08-24.59,11.78s-26.5,4.44-27.23,1.63,10.28-8.08,24.6-11.79S171.72,49.43,172.45,52.24Z" transform="translate(-0.25 -0.25)"/><path class="cls-2" d="M80.25,64.82c4.41,9.74-9.73,25.67-31.6,35.56-13.11,5.93-26,8.36-35.2,7.23l-4.87-1.42-6.93-5.38c-.28-.58-.57-1.06-.83-1.5L.37,95.23a18.18,18.18,0,0,1,2.48-6.65L26.53,68.27l2-1.21q2-1,4.15-2C54.53,55.18,75.83,55.06,80.25,64.82Z" transform="translate(-0.25 -0.25)"/><path class="cls-8" d="M23.5,110.55l10.15,2a169.66,169.66,0,0,1-22.53-5.33c.75.15,1.52.28,2.33.37Z" transform="translate(-0.25 -0.25)"/><path class="cls-2" d="M28.53,67.06l-2,1.21L2.85,88.58C7.11,81.24,16.39,73.27,28.53,67.06Z" transform="translate(-0.25 -0.25)"/><path class="cls-2" d="M8.58,106.19l4.87,1.42c-.81-.09-1.58-.22-2.33-.37h0c-1.74-.55-3.34-1.07-4.77-1.56a10.51,10.51,0,0,1-5.26-5,10,10,0,0,1-.71-5.42l.45,4.08c.26.44.55.92.83,1.5Z" transform="translate(-0.25 -0.25)"/><path class="cls-2" d="M6.34,105.68c1.43.49,3,1,4.77,1.56A20.7,20.7,0,0,1,6.34,105.68Z" transform="translate(-0.25 -0.25)"/><path class="cls-2" d="M.29,94.45l0-.31A22.67,22.67,0,0,1,2.82,88.6l0,0A18.18,18.18,0,0,0,.37,95.23Z" transform="translate(-0.25 -0.25)"/></g></g></svg>