<?xml version="1.0" encoding="UTF-8"?>
<svg width="398px" height="431px" viewBox="0 0 398 431" version="1.1" xmlns="http://www.w3.org/2000/svg" xmlns:xlink="http://www.w3.org/1999/xlink">
    <!-- Generator: Sketch 52.6 (67491) - http://www.bohemiancoding.com/sketch -->
    <title>Group 3</title>
    <desc>Created with Sketch.</desc>
    <defs>
        <linearGradient x1="50%" y1="98.1642883%" x2="50%" y2="2.5130961%" id="linearGradient-1">
            <stop stop-color="#F6FCFF" stop-opacity="0" offset="0%"></stop>
            <stop stop-color="#CBE9FD" stop-opacity="0.547684245" offset="61.8587428%"></stop>
            <stop stop-color="#D7EFFF" offset="100%"></stop>
        </linearGradient>
        <linearGradient x1="50%" y1="1.68442919%" x2="50%" y2="100%" id="linearGradient-2">
            <stop stop-color="#D7EFFF" offset="0%"></stop>
            <stop stop-color="#CBE9FD" stop-opacity="0.55" offset="38.0780347%"></stop>
            <stop stop-color="#FFFFFF" stop-opacity="0" offset="100%"></stop>
        </linearGradient>
    </defs>
    <g id="Page-1" stroke="none" stroke-width="1" fill="none" fill-rule="evenodd">
        <g id="Desktop" transform="translate(-425.000000, -94.000000)" fill-rule="nonzero">
            <g id="Group-3" transform="translate(413.000000, 94.000000)">
                <g id="Group" transform="translate(98.420825, 218.091808) scale(-1, 1) rotate(-9.000000) translate(-98.420825, -218.091808) translate(14.420825, 144.091808)">
                    <path d="" id="Path-4" stroke="#979797"></path>
                    <path d="M14.5400725,111.11019 C8.56315559,99.579649 5.99067237,88.1145256 7.32056341,69.8882894 C8.70550545,50.9075758 15.4083949,30.3129097 25.7249998,30.7472516 C45.6972322,31.5881073 36.1718574,71.3170425 46.5427537,62.1802612 C56.91365,53.0434799 56.322286,0.179332047 75.5985775,0.179332047 C89.9247494,0.179332047 81.2948488,37.9158148 84.65625,38.7539062 C88.0176512,39.5919977 94.5431763,22.4441358 97.4072266,16.7099609 C99.7094727,12.1005859 107.27102,-1.51404163 117.70852,3.80138806 C128.14602,9.11681774 120.124917,25.9691688 117.90346,33.3996173 C115.657607,40.9116679 110.3125,50.6152344 113.769531,52.6992187 C117.226562,54.7832031 123.506241,42.3336778 128.256836,37.3671875 C130.521366,34.9997431 138.767578,22.6894531 146.999023,26.0527344 C161.630438,32.0309753 144.161607,59.2979298 138.881836,68.2373047 C135.782489,73.4849235 126.710739,84.6301353 129.9375,87.4921875 C133.90332,91.0097656 152.27463,60.7780113 164.004827,67.3621613 C175.735023,73.9463112 151.087196,104.499063 148.549071,108.760461 C144.573981,115.434456 138.352987,120.978242 132.825438,126.436242 C127.399015,131.794387 110.451172,147.169922 103.616211,147.169922" id="Path-6" fill="#FFCF59"></path>
                </g>
                <g id="Group" transform="translate(95.386377, 216.144470) scale(-1, 1) rotate(-9.000000) translate(-95.386377, -216.144470) translate(11.386377, 142.144470)">
                    <path d="" id="Path-4" stroke="#979797"></path>
                    <path d="M14.5400725,111.11019 C8.56315559,99.579649 5.99067237,88.1145256 7.32056341,69.8882894 C8.70550545,50.9075758 15.4083949,30.3129097 25.7249998,30.7472516 C45.6972322,31.5881073 36.1718574,71.3170425 46.5427537,62.1802612 C56.91365,53.0434799 56.322286,0.179332047 75.5985775,0.179332047 C89.9247494,0.179332047 81.2948488,37.9158148 84.65625,38.7539062 C88.0176512,39.5919977 94.5431763,22.4441358 97.4072266,16.7099609 C99.7094727,12.1005859 107.27102,-1.51404163 117.70852,3.80138806 C128.14602,9.11681774 120.124917,25.9691688 117.90346,33.3996173 C115.657607,40.9116679 110.3125,50.6152344 113.769531,52.6992187 C117.226562,54.7832031 123.506241,42.3336778 128.256836,37.3671875 C130.521366,34.9997431 138.767578,22.6894531 146.999023,26.0527344 C161.630438,32.0309753 144.161607,59.2979298 138.881836,68.2373047 C135.782489,73.4849235 126.710739,84.6301353 129.9375,87.4921875 C133.90332,91.0097656 152.27463,60.7780113 164.004827,67.3621613 C175.735023,73.9463112 151.087196,104.499063 148.549071,108.760461 C144.573981,115.434456 138.352987,120.978242 132.825438,126.436242 C127.399015,131.794387 110.451172,147.169922 103.616211,147.169922" id="Path-6" stroke="#4A4A4A" stroke-width="2"></path>
                </g>
                <g id="Group" transform="translate(323.291296, 218.811494) rotate(-19.000000) translate(-323.291296, -218.811494) translate(241.791296, 141.311494)">
                    <path d="" id="Path-4" stroke="#979797"></path>
                    <path d="M10,105.511719 C4.29403786,89.1870677 1.45891993,74.1917786 7.12988281,56.7138672 C10,47.8681641 18.6435547,32.7138672 26,34.8359375 C45.0810448,40.3401338 33.5978537,75.6211563 43.96875,66.484375 C51.3953506,59.9415243 61.6651148,1.59375 80.9414062,1.59375 C95.2675781,1.59375 82.6835937,36.6972656 84.65625,38.7539062 C86.6289062,40.8105469 94.5431763,22.4441358 97.4072266,16.7099609 C99.7094727,12.1005859 107.269531,-3.72167969 117.707031,1.59375 C128.144531,6.90917969 122.592551,21.6476765 120.371094,29.078125 C118.125241,36.5901757 110.3125,50.6152344 113.769531,52.6992187 C117.226562,54.7832031 123.506241,42.3336778 128.256836,37.3671875 C130.521366,34.9997431 138.767578,22.6894531 146.999023,26.0527344 C161.630438,32.0309753 144.161607,59.2979298 138.881836,68.2373047 C135.782489,73.4849235 126.710739,84.6301353 129.9375,87.4921875 C133.90332,91.0097656 150.379883,70.2373047 159.6875,76.3076172 C168.995117,82.3779297 154.506875,106.186845 151.96875,110.448242 C147.993661,117.122238 139.82773,129.357656 134.300181,134.815655 C128.873758,140.173801 113.744662,154.369773 106.909701,154.369773" id="Path-6" fill="#FFCF59"></path>
                    <path d="M60.484375,88.890625 C77.473339,70.4077662 105.580613,76.3957573 120.941406,92.7539063" id="Path-7" stroke="#FFFFFF" stroke-width="3" stroke-linecap="round"></path>
                </g>
                <g id="Group" transform="translate(325.980660, 218.943092) rotate(-19.000000) translate(-325.980660, -218.943092) translate(241.980660, 141.443092)">
                    <path d="" id="Path-4" stroke="#979797"></path>
                    <path d="M15.053161,105.194041 C9.3471989,88.8693899 6.51208097,73.8741008 12.1830438,56.3961894 C15.053161,47.5504863 23.6967157,32.3961894 31.053161,34.5182597 C50.1342059,40.022456 38.6510147,75.3034785 49.021911,66.1666972 C56.4485117,59.6238465 66.7182758,1.2760722 85.9945673,1.2760722 C100.320739,1.2760722 87.7367548,36.3795878 89.709411,38.4362284 C91.6820673,40.4928691 99.5963373,22.126458 102.460388,16.3922831 C104.762634,11.7829081 112.322692,-4.03935749 122.760192,1.2760722 C133.197692,6.59150188 127.645712,21.3299987 125.424255,28.7604472 C123.178402,36.2724979 115.365661,50.2975566 118.822692,52.3815409 C122.279724,54.4655253 128.559402,42.016 133.309997,37.0495097 C135.574527,34.6820653 143.820739,22.3717753 152.052184,25.7350566 C166.683599,31.7132975 149.214768,58.980252 143.934997,67.9196269 C140.83565,73.1672457 131.7639,84.3124575 134.990661,87.1745097 C138.956481,90.6920878 155.433044,69.9196269 164.740661,75.9899394 C174.048278,82.0602519 159.560036,105.869167 157.021911,110.130564 C153.046822,116.80456 144.880891,129.039978 139.353342,134.497977 C133.926919,139.856123 118.797823,154.052095 111.962862,154.052095" id="Path-6" stroke="#4A4A4A" stroke-width="2"></path>
                    <path d="M60.484375,87.890625 C77.473339,69.4077662 105.580613,75.3957573 120.941406,91.7539063" id="Path-7" stroke="#FFFFFF" stroke-width="3" stroke-linecap="round"></path>
                </g>
                <g id="Group-2" transform="translate(99.000000, 0.000000)">
                    <path d="M114.945312,33.8632813 C96.892778,14.6747068 85.3945313,-1.42108547e-14 53.9453125,-1.21760995e-14 C23.4953696,-9.55498909e-15 2.59396168e-15,23.4770948 0,53.2148438 C0,67.6171875 12.214367,82.2489695 21.7734375,93.7304687 C45.5942445,122.341888 97.84375,161.787109 114.945312,161.787109 C132.046875,161.787109 193.294922,117.264184 213.507813,93.7304687 C225.94935,79.2448805 230.173828,67.6209375 230.173828,53.2148438 C230.173828,22.9243541 209.6875,-1.42108547e-14 178.667969,-1.42108547e-14 C157.988281,-1.24307613e-14 136.747396,11.2877604 114.945312,33.8632813 Z" id="Path-8" fill="#FF776D"></path>
                    <path d="M45.1744171,19 C30.9506211,19 19.2097878,30.297581 18.0468083,44.3911852 C17.5687863,50.1841109 21.3809707,57.5097728 24.846602,54.8618937 C29.0139571,51.6778698 29.0139571,43.0124476 36.1881051,35.0972354 C43.9756361,26.5052799 52.9687594,25.309847 55.0554853,23.4327886 C57.1533206,21.545737 52.3051962,19 45.1744171,19 Z" id="Path" fill="#FFFFFF"></path>
                </g>
                <path d="M61.0732873,246.32151 C74.2991367,236.388826 91.872716,239.566844 105.073287,248.430885" id="Path-9" stroke="#FFFFFF" stroke-width="3" stroke-linecap="round" transform="translate(83.073287, 244.310678) rotate(-5.000000) translate(-83.073287, -244.310678) "></path>
                <path d="M75.3926362,231.656318 C87.0685931,227.893647 99.130647,230.267202 106.134824,239.777411" id="Path-10" stroke="#FFFFFF" stroke-width="3" stroke-linecap="round" transform="translate(90.763730, 234.865554) rotate(-5.000000) translate(-90.763730, -234.865554) "></path>
                <path d="M68.0394673,383.072274 C55.3643448,352.359729 49.1819825,293.430048 50.3007823,288.273775 C50.9148089,285.443877 55.0037703,284.691712 57.7714854,283.840181 C68.2063107,280.629745 78.9273642,278.405602 89.6152354,276.178072 C102.488386,273.495093 167.022105,265.744642 170.611931,268.494744 C177.601462,273.849297 167.491852,376.180612 169.177265,390.144518" id="Path-11" stroke="#4A4A4A" stroke-width="2" transform="translate(111.637973, 329.028867) rotate(-5.000000) translate(-111.637973, -329.028867) "></path>
                <path d="M78.8385638,417.845838 C66.1634412,384.838653 50.7509958,295.274946 51.8697955,289.733429 C52.4838221,286.6921 56.5727836,285.883738 59.3404987,284.968586 C69.775324,281.518287 80.4963774,279.127971 91.1842487,276.734014 C104.0574,273.850581 168.591118,265.521067 172.180945,268.476638 C179.170475,274.231249 167.185716,376.340565 172.964951,426.08083 L78.8385638,417.845838 Z" id="Path-11" fill="url(#linearGradient-1)" transform="translate(113.127378, 346.966246) rotate(-5.000000) translate(-113.127378, -346.966246) "></path>
                <path d="M68.0394673,383.072274 C55.3643448,352.359729 49.1819825,293.430048 50.3007823,288.273775 C50.9148089,285.443877 55.0037703,284.691712 57.7714854,283.840181 C68.2063107,280.629745 78.9273642,278.405602 89.6152354,276.178072 C102.488386,273.495093 167.022105,265.744642 170.611931,268.494744 C177.601462,273.849297 167.491852,376.180612 169.177265,390.144518" id="Path-11-Copy" stroke="#4A4A4A" stroke-width="2" transform="translate(111.637973, 329.028867) rotate(-5.000000) translate(-111.637973, -329.028867) "></path>
                <path d="M260.927734,430.800781 C262.871094,402.155699 262.469139,337.893348 262.871094,319.065742 C263.621831,283.901098 259.736688,270.352443 265.268174,267.083403 C269.839006,264.382098 378.850426,282.853219 384.714844,285.01947 C386.295695,285.603419 382.11477,315.774125 380.070312,333.214759 C377.276473,357.04813 367.855469,407.074574 364.421875,430.800781" id="Path-12" fill="url(#linearGradient-2)"></path>
                <path d="M262.871094,384.228516 C262.414062,367.583984 262.469139,329.657898 262.871094,313.011719 C263.621831,281.921362 259.736688,269.942497 265.268174,267.052219 C269.839006,264.663896 378.850426,280.994894 384.714844,282.910156 C386.295695,283.426447 382.11477,310.101479 380.070313,325.521386 C377.276473,346.593346 375.017578,363.251302 371.583984,384.228516" id="Path-12" stroke="#4A4A4A" stroke-width="2"></path>
            </g>
        </g>
    </g>
</svg>