<svg width="65" height="95" viewBox="0 0 65 95" fill="none" xmlns="http://www.w3.org/2000/svg">
<path fill-rule="evenodd" clip-rule="evenodd" d="M32.8495 2.92062C32.665 2.70904 32.335 2.70904 32.1505 2.92061L2.89531 36.4761C2.63546 36.7742 2.84824 37.2381 3.24479 37.2381H61.7552C62.1518 37.2381 62.3645 36.7742 62.1047 36.4761L32.8495 2.92062ZM30.0537 1.11078C31.3449 -0.370264 33.6551 -0.370259 34.9463 1.11079L64.2015 34.6663C66.0205 36.7526 64.5311 40 61.7552 40H3.24479C0.46893 40 -1.02049 36.7526 0.798459 34.6663L30.0537 1.11078Z" fill="black"/>
<path fill-rule="evenodd" clip-rule="evenodd" d="M32.1505 92.0794C32.335 92.291 32.665 92.291 32.8495 92.0794L62.1047 58.5239C62.3645 58.2258 62.1518 57.7619 61.7552 57.7619L3.24479 57.7619C2.84824 57.7619 2.63547 58.2258 2.89532 58.5239L32.1505 92.0794ZM34.9463 93.8892C33.6551 95.3703 31.3449 95.3703 30.0537 93.8892L0.798463 60.3337C-1.02049 58.2474 0.468939 55 3.2448 55L61.7552 55C64.5311 55 66.0205 58.2474 64.2015 60.3337L34.9463 93.8892Z" fill="black"/>
</svg>
