<svg xmlns="http://www.w3.org/2000/svg" viewBox="0 0 422.45 383.13"><defs><style>.cls-1{fill:#0a0a0a;}</style></defs><title>Asset 11</title><g id="Layer_2" data-name="Layer 2"><g id="Layer_1-2" data-name="Layer 1"><path class="cls-1" d="M73.15,62.84A26.62,26.62,0,1,1,46.53,89.46,26.65,26.65,0,0,1,73.15,62.84m0-28a54.62,54.62,0,1,0,54.61,54.62A54.62,54.62,0,0,0,73.15,34.84Z"/><path class="cls-1" d="M349.3,62.84a26.62,26.62,0,1,1-26.62,26.62A26.65,26.65,0,0,1,349.3,62.84m0-28a54.62,54.62,0,1,0,54.61,54.62A54.61,54.61,0,0,0,349.3,34.84Z"/><path class="cls-1" d="M263.45,160.12a24.9,24.9,0,0,1,4.88,14.33v179.1a9.2,9.2,0,0,1-5.48,1.58H159.6a9.14,9.14,0,0,1-5.48-1.58V174.45A24.83,24.83,0,0,1,159,160.12a116.68,116.68,0,0,0,104.45,0m2.4-34.72a87.82,87.82,0,0,1-109.26,0c-18.39,10.88-30.47,28.84-30.47,49V355c0,15.47,15.07,28.12,33.48,28.12H262.85c18.41,0,33.48-12.65,33.48-28.12V174.45c0-20.21-12.09-38.17-30.48-49Z"/><path class="cls-1" d="M211.22,28a35.54,35.54,0,1,1-35.54,35.54A35.58,35.58,0,0,1,211.22,28m0-28a63.54,63.54,0,1,0,63.54,63.54A63.54,63.54,0,0,0,211.22,0Z"/><path class="cls-1" d="M392.6,177.73a17.5,17.5,0,0,1,1.85,7.64V339.16a4.58,4.58,0,0,1-.78.06H340.51V186.86q4.38.38,8.79.38a103,103,0,0,0,43.3-9.51m3.65-35.1a74.67,74.67,0,0,1-93.91,0c-.47.28-.94.57-1.4.87,7.35,9,11.57,19.4,11.57,30.51V357.06a21.44,21.44,0,0,1-2.63,10.16h83.79c15.83,0,28.78-11,28.78-24.51V185.37c0-17.62-10.39-33.26-26.2-42.74Z"/><path class="cls-1" d="M29.85,177.73a103,103,0,0,0,43.3,9.51q4.41,0,8.78-.38V339.22H28.78a4.58,4.58,0,0,1-.78-.06V185.37a17.36,17.36,0,0,1,1.85-7.64m90.26-35.1a73.61,73.61,0,0,1-47,16.61,73.59,73.59,0,0,1-47-16.61C10.39,152.11,0,167.75,0,185.37V342.71c0,13.48,13,24.51,28.78,24.51h83.79a21.34,21.34,0,0,1-2.64-10.16V174c0-11.11,4.23-21.53,11.58-30.51-.47-.3-.93-.59-1.4-.87Z"/></g></g></svg>