<svg width="93" height="112" viewBox="0 0 93 112" fill="none" xmlns="http://www.w3.org/2000/svg">
<path fill-rule="evenodd" clip-rule="evenodd" d="M49.7513 0.82523C47.5676 0.345304 45.5 2.00787 45.5 4.24364V15V26.3889L44.5751 26.7999L44.5452 26.7712C35.8036 30.5704 22.3319 35.878 7.45638 40.5559C5.54745 41.1562 4.37023 42.5861 3.76449 44.0326C3.17432 45.4419 3.0507 46.9989 3.22481 48.3931C3.39842 49.7834 3.90097 51.2716 4.84699 52.4874C5.38738 53.1819 6.10001 53.8114 6.96984 54.2377C7.07596 56.5573 7.86107 58.8698 9.36863 60.861C10.126 61.8613 11.011 62.7082 11.9836 63.396C11.8743 64.0633 11.7649 64.7374 11.6544 65.4185L11.6544 65.4187C9.91652 76.1316 7.89765 88.5764 1.23542 103.635C-0.360588 107.243 2.19462 111.5 6.29563 111.5H47H49H86.7044C90.8054 111.5 93.3606 107.243 91.7646 103.635C85.1023 88.5764 83.0835 76.1316 81.3456 65.4187L81.3431 65.403C81.2653 64.9235 81.188 64.4474 81.1109 63.9747C81.5283 63.7324 81.9355 63.462 82.3301 63.1632C85.1406 61.0353 86.7394 57.9006 87.0043 54.6433C88.3956 54.3054 89.4904 53.4602 90.2473 52.4874C91.1933 51.2716 91.6958 49.7834 91.8694 48.3931C92.0435 46.9989 91.9199 45.4419 91.3298 44.0326C90.724 42.5861 89.5468 41.1562 87.6379 40.5559C72.7345 35.8693 59.2402 30.5505 50.5 26.7498V16.9676L70.375 12.1627C73.9835 11.2903 73.9298 6.13919 70.3038 5.34227L49.7513 0.82523ZM80.9362 54.8003H69.368C69.5332 55.6593 69.893 56.4946 70.4567 57.2392C72.4204 59.8327 76.1147 60.3433 78.7083 58.3797C79.9149 57.4661 80.6707 56.1779 80.9362 54.8003ZM62.168 54.8003H50.5999C50.765 55.6593 51.1248 56.4946 51.6886 57.2392C53.6522 59.8327 57.3465 60.3433 59.9401 58.3797C61.1467 57.4661 61.9025 56.1779 62.168 54.8003ZM43.3998 54.8003H31.8317C31.9968 55.6593 32.3566 56.4946 32.9204 57.2392C34.884 59.8327 38.5784 60.3433 41.1719 58.3797C42.3785 57.4661 43.1343 56.1779 43.3998 54.8003ZM24.6317 54.8003H13.0635C13.2287 55.6593 13.5885 56.4946 14.1522 57.2392C16.1159 59.8327 19.8102 60.3433 22.4037 58.3797C23.6104 57.4661 24.3661 56.1779 24.6317 54.8003ZM62.8813 8.83029L50.5 11.8236V6.10911L62.8813 8.83029ZM40.8036 86.9762C42.9692 83.1285 44.9668 78.9775 46.5 74.6876C48.0332 78.9775 50.0308 83.1285 52.1964 86.9762C56.7437 95.0559 62.1649 102.032 66.0517 106.5H49H47H26.9483C30.8351 102.032 36.2563 95.0559 40.8036 86.9762ZM86.7044 106.5H70.7951L76.1302 95.8298C77.315 93.4602 76.6227 90.7071 74.7909 89.0542C69.4409 84.227 60.3678 73.8309 53.7012 65.2674C57.0171 66.0337 60.6364 65.3782 63.5619 63.1632C64.4094 62.5216 65.1467 61.7883 65.7705 60.9878C68.3588 64.3143 72.3759 65.8955 76.2965 65.5204L76.4165 66.2605C78.1551 76.9892 80.2628 89.9957 87.1921 105.658C87.28 105.857 87.2596 106.067 87.1462 106.246C87.0365 106.419 86.8842 106.5 86.7044 106.5ZM39.1342 65.4786C35.0967 65.9943 30.9049 64.4202 28.2342 60.9878C27.6104 61.7883 26.873 62.5216 26.0255 63.1632C23.2642 65.2539 19.8848 65.9552 16.7258 65.3829L16.5835 66.2601L16.5835 66.2605C14.8449 76.9892 12.7372 89.9957 5.80792 105.658C5.71996 105.857 5.74043 106.067 5.85382 106.246C5.96353 106.419 6.11578 106.5 6.29563 106.5H22.2049L16.8698 95.8298C15.685 93.4602 16.3773 90.7071 18.2091 89.0542C23.5152 84.2666 32.4836 74.0011 39.1342 65.4786ZM21.5586 92.7664C27.1575 87.7146 36.3972 77.1315 43.2232 68.3646C41.8129 73.8448 39.3527 79.3599 36.4464 84.5238C32.794 91.0132 28.5297 96.7862 25.0484 101.007L21.342 93.5938C21.2423 93.3944 21.258 93.0377 21.5586 92.7664ZM49.7767 68.3646C56.6028 77.1315 65.8425 87.7146 71.4414 92.7664C71.742 93.0377 71.7577 93.3944 71.658 93.5938L67.9516 101.007C64.4703 96.7862 60.206 91.0132 56.5536 84.5238C53.6473 79.3599 51.1871 73.8448 49.7767 68.3646ZM9.34595 46.2514C24.738 41.4067 38.6497 35.9006 47.5471 32.0077C56.4445 35.9006 70.3563 41.4067 85.7483 46.2514C85.7606 46.2733 85.7766 46.3052 85.7954 46.3502C85.9066 46.6157 85.9861 47.0856 85.9157 47.6496C85.8451 48.2149 85.6569 48.615 85.5139 48.8003H9.58038C9.43738 48.615 9.24916 48.2149 9.17856 47.6496C9.10813 47.0856 9.18762 46.6157 9.29882 46.3502C9.31765 46.3052 9.33364 46.2733 9.34595 46.2514ZM9.36628 46.2188C9.37144 46.2136 9.37375 46.2099 9.37375 46.2099C9.37375 46.2099 9.37271 46.2108 9.37078 46.213C9.36961 46.2144 9.36809 46.2162 9.36628 46.2188ZM85.7224 46.2126C85.7237 46.2141 85.7255 46.2163 85.728 46.2188L85.7252 46.2151L85.7231 46.2125C85.7214 46.2105 85.7205 46.2099 85.7205 46.2099L85.7224 46.2126Z" fill="currentColor"/>
</svg>
