<?xml version="1.0" encoding="utf-8"?>
<!-- Generator: Adobe Illustrator 22.1.0, SVG Export Plug-In . SVG Version: 6.00 Build 0)  -->
<svg version="1.1" id="Layer_1" xmlns="http://www.w3.org/2000/svg" xmlns:xlink="http://www.w3.org/1999/xlink" x="0px" y="0px"
	 viewBox="0 0 668 91" style="enable-background:new 0 0 668 91;" xml:space="preserve">
<style type="text/css">
	.st0{fill:#011F5B;}
	.st1{fill:none;stroke:#000000;stroke-width:0.8534;stroke-miterlimit:3.8636;}
	.st2{fill:#FFFFFF;}
	.st3{fill:#990000;}
	.st4{fill:none;stroke:#000000;stroke-width:0.4565;stroke-miterlimit:3.8636;}
	.st5{fill:#011F5B;stroke:#011F5B;stroke-width:0.9132;stroke-miterlimit:3.8636;}
	.st6{fill:#FFFFFF;stroke:#011F5B;stroke-width:0.9132;stroke-miterlimit:3.8636;}
	.st7{fill:#FFFFFF;stroke:#011F5B;stroke-width:0.9126;stroke-miterlimit:3.8636;}
</style>
<path class="st0" d="M189.8,84.6c8.6,0,17.1,0,25.7,0c0-0.9,0-1.7,0-2.6c-0.3,0-0.4-0.1-0.6-0.1c-5.7-0.4-7.2-0.9-7.3-8
	c-0.1-7.8,0-15.6,0-23.4c0-0.5,0-1.1,0.3-1.5c2.3-3,4.8-5.8,8.2-7.6C222,38.4,229,41,230.8,47c0.4,1.5,0.6,3,0.6,4.6
	c0.1,7.2,0,14.4,0,21.6c0,1.5,0,2.9-0.1,4.4c-0.2,2.3-1.1,3.4-3.4,3.9c-1.5,0.3-3.1,0.4-4.7,0.7c0,0.9,0,1.7,0,2.5
	c16.8,0,33.5,0,50.4,0c0-0.9,0-1.7,0-2.6c-1.1-0.1-2.2-0.2-3.3-0.4c-2.8-0.4-3.9-1.5-4.3-4.2c-0.2-1.3-0.3-2.6-0.3-3.9
	c0-7.7,0-15.3,0-23c0-0.5,0-1,0.2-1.3c2.6-3.5,5.4-6.7,9.6-8.3c6.5-2.6,13.6,1.5,13.9,8.5c0.4,9.2,0.1,18.5,0.2,27.8
	c0,0.1,0,0.3-0.1,0.4c-0.3,2.4-1.2,3.4-3.6,3.9c-1.5,0.3-3,0.4-4.5,0.6c0,0.9,0,1.7,0,2.5c8.7,0,17.3,0,25.9,0c0-0.9,0-1.7,0-2.6
	c-1.2-0.1-2.2-0.2-3.3-0.4c-2.9-0.4-4.1-1.7-4.5-4.5c-0.2-1.2-0.3-2.4-0.3-3.7c0-7.7,0.1-15.3-0.1-23c-0.2-7.9-5.7-14.3-13.4-15.5
	c-6.1-1-11.4,1.1-16,5c-1.4,1.1-2.6,2.4-4.1,3.8c0-3.1,0-6,0-9.2c-6,0.6-11.8,1.1-17.7,1.6c0,1,0,1.9,0,2.7c1.5,0.2,3,0.3,4.4,0.5
	c1.8,0.3,2.8,1.4,3.1,3.2c0.1,0.7,0.3,1.5,0.3,2.2c0,10.1,0.1,20.2,0,30.3c0,5.4-1.5,6.8-7,6.8c-5.9,0.1-7.7-1.7-7.7-7.6
	c0-7,0-14,0-21c0-1.6-0.1-3.2-0.3-4.8c-1.3-9.3-10.1-15.4-19.2-13.5c-4.7,0.9-8.6,3.5-12,6.8c-0.6,0.6-1.2,1.2-2.1,2.1
	c0-3.2,0-6.1,0-9.3c-6,0.6-11.9,1.1-17.7,1.6c0,1.1,0,1.8,0,2.8c0.7,0,1.3,0,1.9,0c4.7,0.2,6.1,1.6,6.1,6.3c0,9.5,0,19.1,0,28.6
	c0,1.6-0.3,3.2-0.6,4.7c-0.2,1.5-1.2,2.4-2.7,2.7c-1.5,0.3-3,0.5-4.6,0.7C189.8,82.9,189.8,83.6,189.8,84.6z"/>
<path class="st0" d="M143.8,13.1c-6.2-4.9-13.4-6.6-21.1-6.7c-9.6-0.1-19.3-0.1-28.9-0.1c-0.5,0-1,0-1.6,0c0,1,0,1.8,0,2.7
	c0.5,0,1,0.1,1.4,0.1c3.7,0.2,5.9,1.9,6.6,5.5c0.4,1.7,0.6,3.5,0.6,5.3c0,17.1,0.1,34.2,0,51.3c0,2-0.4,4.1-0.9,6.1
	c-0.7,2.6-2.6,3.9-5.2,4.3c-0.9,0.1-1.7,0.2-2.5,0.3c0,0.9,0,1.7,0,2.6c9.5,0,18.9,0,28.3,0c0-0.9,0-1.7,0-2.6
	c-0.8-0.1-1.5-0.2-2.2-0.3c-3.5-0.5-5.2-2-5.9-5.5c-0.4-1.9-0.6-3.9-0.6-5.9c-0.1-6.9,0-13.7,0-20.6c0-0.5,0-0.9,0-1.5
	c2,0.2,3.8,0.4,5.6,0.5c6.3,0.4,12.6,0.5,18.7-1.3c5.3-1.5,9.8-4,12.7-9C152.9,31.4,152.5,19.9,143.8,13.1z M138.2,36.9
	c-2.7,5-7.1,7.4-12.6,8.3c-4.2,0.7-8.3,0.4-12.5-0.6c-0.7-0.2-1.3-0.3-1.3-1.3c0-11,0-21.9,0-32.9c0-0.1,0-0.3,0.1-0.7
	c5.1,0.2,10.2-0.6,15.2,0.8c7.1,2,11,7.1,12.3,14.1C140.4,28.9,140.2,33.1,138.2,36.9z"/>
<path class="st0" d="M188.3,71.4c-0.5,0.6-0.7,1.1-1,1.4c-1.9,1.9-3.8,3.8-5.8,5.5c-5.2,4.3-12.3,4.7-18,1.3c-6-3.5-9-9.1-10.2-15.6
	c-0.5-2.8-0.7-5.6-1-8.6c12,0,23.7,0,35.5,0c0.2-4.4-0.8-8.3-3.3-11.7c-6.3-8.6-18.2-11.5-27.9-6.7c-13.9,6.9-17.1,23.6-11.9,35.1
	c7.1,15.7,31.2,19.4,42.1,5.9C188.3,76,188.7,74.1,188.3,71.4z M159.2,39.6c4.5-2.5,9.2-2.2,13.6,0.7c3.7,2.5,5.9,7.8,5,12
	c-8.4,0-16.9,0-25.4,0C152.8,47.1,154.3,42.3,159.2,39.6z"/>
<g>
	<g>
		<g>
			<g>
				<path class="st1" d="M79.3,5.8"/>
			</g>
		</g>
	</g>
	<g>
		<g>
			<g>
				<path class="st2" d="M6.5,6.2h74.6c0,0,0,35.6,0,36.2c-0.5,29.5-34.6,45-38.8,44.9c-4.5-0.1-35.8-15.3-35.7-45
					C6.5,41.7,6.5,6.2,6.5,6.2z"/>
			</g>
		</g>
	</g>
	<g>
		<g>
			<g>
				<path class="st3" d="M6.5,28.1c0.1,0.1,0-22,0-22H81c0,0,0,11.8,0,22L6.5,28.1z"/>
			</g>
		</g>
		<g>
			<g>
				<path class="st3" d="M81.3,28.4l-74.8,0l0-0.3l-0.2,0c0.1-0.6,0-16,0-21.9l0-0.3h75V28.4z M6.7,27.9l74,0V6.4h-74
					C6.8,22.4,6.8,26.7,6.7,27.9z"/>
			</g>
		</g>
	</g>
	<g>
		<g>
			<g>
				<path class="st0" d="M10.7,60.3c2.9,5.8,6.4,10.6,11.4,14.6l21.7-21.3l20.9,20.8c4.3-3.8,8.5-8.4,11.5-13.9L43.7,30.2L10.8,60.4
					L10.7,60.3z"/>
			</g>
		</g>
		<g>
			<g>
				<path class="st0" d="M22.1,75.2l-0.2-0.1c-4.8-3.9-8.5-8.5-11.5-14.7l-0.3-0.6l0.6,0.3l33-30.3l0.2,0.2l32.6,30.4l-0.1,0.2
					c-2.6,4.8-6.5,9.5-11.6,14l-0.2,0.2L43.7,54L22.1,75.2z M11,60.5c2.9,5.8,6.4,10.3,11,14l21.7-21.3l20.9,20.8
					c4.8-4.3,8.6-8.9,11.2-13.5l-32.1-30L11,60.5z"/>
			</g>
		</g>
	</g>
	<g>
		<g>
			<g>
				<path class="st1" d="M24.5,5.6"/>
			</g>
		</g>
	</g>
	<g>
		<g>
			<g>
				<path class="st1" d="M22.2,5.8"/>
			</g>
		</g>
	</g>
	<g>
		<g>
			<g>
				<path class="st1" d="M7.9,5.8"/>
			</g>
		</g>
	</g>
	<g>
		<g>
			<g>
				<path class="st1" d="M12.8,6"/>
			</g>
		</g>
	</g>
	<g>
		<g>
			<g>
				<path class="st1" d="M17.7,5.8"/>
			</g>
		</g>
	</g>
	<g>
		<g>
			<g>
				<path class="st1" d="M65.1,5.8"/>
			</g>
		</g>
	</g>
	<g>
		<g>
			<g>
				<path class="st1" d="M69.8,6.2"/>
			</g>
		</g>
	</g>
	<g>
		<g>
			<g>
				<path class="st1" d="M74.5,6.1"/>
			</g>
		</g>
	</g>
	<g>
		<g>
			<g>
				<path class="st1" d="M20.1,5.6"/>
			</g>
		</g>
	</g>
	<g>
		<g>
			<g>
				<path class="st1" d="M15.3,5.8"/>
			</g>
		</g>
	</g>
	<g>
		<g>
			<g>
				<path class="st1" d="M10.3,5.6"/>
			</g>
		</g>
	</g>
	<g>
		<g>
			<g>
				<path class="st1" d="M43.8,23"/>
			</g>
		</g>
	</g>
	<g>
		<g>
			<g>
				<path class="st1" d="M34.4,24.7"/>
			</g>
		</g>
	</g>
	<g>
		<g>
			<g>
				<path class="st1" d="M29.7,25.9"/>
			</g>
		</g>
	</g>
	<g>
		<g>
			<g>
				<path class="st1" d="M48.8,25.5"/>
			</g>
		</g>
	</g>
	<g>
		<g>
			<g>
				<path class="st1" d="M76.9,5.9"/>
			</g>
		</g>
	</g>
	<g>
		<g>
			<g>
				<path class="st1" d="M67.5,5.6"/>
			</g>
		</g>
	</g>
	<g>
		<g>
			<g>
				<path class="st1" d="M53.2,26.1"/>
			</g>
		</g>
	</g>
	<g>
		<g>
			<g>
				<path class="st1" d="M72.2,6"/>
			</g>
		</g>
	</g>
	<g>
		<g>
			<g>
				<path class="st1" d="M62.7,5.6"/>
			</g>
		</g>
	</g>
	<g>
		<g>
			<g>
				<rect x="6.5" y="28" class="st0" width="74.5" height="0.5"/>
			</g>
		</g>
	</g>
	<g>
		<g>
			<g>
				<path class="st1" d="M41.4,21.8"/>
			</g>
		</g>
	</g>
	<g>
		<g>
			<g>
				<path class="st1" d="M32,26"/>
			</g>
		</g>
	</g>
	<g>
		<g>
			<g>
				<path class="st1" d="M36.6,22.6"/>
			</g>
		</g>
	</g>
	<g>
		<g>
			<g>
				<path class="st1" d="M27,5.8"/>
			</g>
		</g>
	</g>
	<g>
		<g>
			<g>
				<path class="st1" d="M55.4,17"/>
			</g>
		</g>
	</g>
	<g>
		<g>
			<g>
				<path class="st1" d="M50.8,25.9"/>
			</g>
		</g>
	</g>
	<g>
		<g>
			<g>
				<path class="st1" d="M39.1,21.4"/>
			</g>
		</g>
	</g>
	<g>
		<g>
			<g>
				<path class="st1" d="M49,16.4"/>
			</g>
		</g>
	</g>
	<g>
		<g>
			<g>
				<path class="st1" d="M57.8,24.8"/>
			</g>
		</g>
	</g>
	<g>
		<g>
			<g>
				<path class="st1" d="M53.3,19.4"/>
			</g>
		</g>
	</g>
	<g>
		<g>
			<g>
				<path class="st1" d="M46.4,24.3"/>
			</g>
		</g>
	</g>
	<g>
		<g>
			<g>
				<path class="st1" d="M55.3,25.9"/>
			</g>
		</g>
	</g>
	<g>
		<g>
			<g>
				<path class="st1" d="M51.1,21.1"/>
			</g>
		</g>
	</g>
	<g>
		<g>
			<g>
				<path class="st4" d="M20.4,73.5"/>
			</g>
		</g>
	</g>
	<g>
		<g>
			<g>
				<path class="st2" d="M62.3,11.6h2c1.5-0.3,2-1.2,3.6-1.2c1.1,0,1.6,0.7,2.4,0.7c0.7,0,1.7-0.8,2.9-0.8c1.2,0,1.8,0.7,2.5,1
					c0.7,0.3,1.6,0.3,2.5,0.3c0,0.7,0,1.1,0,1.6c0,0.6,0.8,0.3,0.8,1.3c0,1-1,0.8-1,1.2l0,3.6c0.1,0.4,1,0.5,1,1.2c0,1-1,0.7-1,1.5
					c0.1,0.6,0,1.8,0,1.8c-2,0-14.9,0.1-15.5,0.1c0-1.3,0.3-1.3,0.3-1.9c0-0.5-1.2-0.8-1.2-1.7c0-0.6,0.7-0.6,0.8-1.1v-3.6
					c0-0.5-1.1-0.7-1.1-1.4c0-0.8,1-0.7,1-1.2C62.3,12.7,62.3,11.8,62.3,11.6z"/>
			</g>
		</g>
		<g>
			<g>
				<path class="st0" d="M63,24.1c-0.3,0-0.4,0-0.5,0l-0.3,0l0-0.2c0-0.8,0.1-1.2,0.2-1.4c0-0.2,0.1-0.3,0.1-0.5
					c0-0.1-0.2-0.3-0.4-0.4c-0.3-0.3-0.8-0.7-0.8-1.3c0-0.4,0.3-0.6,0.5-0.8c0.2-0.1,0.3-0.2,0.3-0.4l0-3.6c0-0.1-0.2-0.2-0.4-0.3
					c-0.3-0.2-0.7-0.5-0.7-1c0-0.6,0.4-0.8,0.7-1c0.2-0.1,0.3-0.2,0.3-0.3c0-0.1,0-0.2,0-0.4c0-0.3,0-0.8,0-0.9l0-0.3h2.3
					c0.5-0.1,1-0.3,1.4-0.6c0.6-0.3,1.2-0.6,2.1-0.6c0.7,0,1.1,0.2,1.5,0.4c0.3,0.2,0.6,0.3,0.9,0.3c0.2,0,0.6-0.1,1-0.3
					c0.6-0.2,1.2-0.5,1.9-0.5c0.9,0,1.5,0.4,2,0.7c0.2,0.1,0.4,0.3,0.7,0.4c0.6,0.2,1.4,0.2,2.3,0.2l0.4,0l0,0.3c0,0.4,0,0.7,0,1.1
					c0,0.2,0,0.3,0,0.5c0,0.1,0,0.1,0.2,0.2c0.2,0.1,0.6,0.4,0.6,1c0,0.8-0.5,1-0.8,1.1c-0.1,0-0.2,0.1-0.2,0.1l0,3.6
					c0,0,0.2,0.1,0.3,0.2c0.3,0.2,0.7,0.4,0.7,1c0,0.7-0.4,0.9-0.7,1c-0.2,0.1-0.3,0.2-0.3,0.4c0.1,0.6,0,1.8,0,1.9l0,0.2H78
					c-0.8,0-3.6,0-6.6,0C67.9,24.1,64.3,24.1,63,24.1z M62.7,23.6c1.1,0,5.1,0,8.7-0.1c2.7,0,5.3,0,6.3,0c0-0.4,0-1.2,0-1.6
					c0-0.5,0.3-0.7,0.6-0.9c0.2-0.1,0.4-0.2,0.4-0.6c0-0.2-0.2-0.4-0.4-0.5c-0.2-0.1-0.5-0.3-0.5-0.6l0-3.6c0-0.3,0.3-0.4,0.5-0.5
					c0.3-0.1,0.5-0.2,0.5-0.6c0-0.4-0.1-0.5-0.3-0.6c-0.2-0.1-0.4-0.3-0.4-0.7c0-0.2,0-0.4,0-0.5c0-0.3,0-0.5,0-0.8c0,0,0,0,0,0
					c-0.9,0-1.7,0-2.3-0.3c-0.3-0.1-0.5-0.3-0.7-0.4c-0.5-0.3-1-0.6-1.7-0.6c-0.6,0-1.2,0.2-1.7,0.4c-0.4,0.2-0.8,0.3-1.2,0.3
					c-0.4,0-0.8-0.2-1.1-0.3c-0.4-0.2-0.8-0.4-1.3-0.4c-0.8,0-1.3,0.3-1.9,0.5c-0.4,0.2-0.9,0.5-1.6,0.6l-1.8,0c0,0.2,0,0.5,0,0.7
					c0,0.2,0,0.3,0,0.4c0,0.4-0.3,0.6-0.5,0.7c-0.3,0.2-0.4,0.3-0.5,0.6c0,0.2,0.2,0.4,0.5,0.6c0.3,0.2,0.6,0.4,0.6,0.7l0,3.6
					c0,0.4-0.3,0.6-0.5,0.7c-0.2,0.1-0.3,0.2-0.3,0.4c0,0.4,0.3,0.6,0.6,0.9c0.3,0.2,0.6,0.5,0.6,0.8c0,0.3-0.1,0.4-0.1,0.6
					C62.9,22.8,62.8,23,62.7,23.6z"/>
			</g>
		</g>
	</g>
	<g>
		<g>
			<g>
				<path class="st0" d="M70,21.8c-2.9,0-5.7,0-6,0l-0.3,0l0-0.3c0-1.9,0-9.8,0-9.9l0.5,0c0,0.1,0,7.4,0,9.6c3.9,0,10.6,0,12,0
					c0-2.4,0-9.7,0-9.7l0.5,0c0,0,0,7.8,0,9.9v0.2l-0.2,0C76.3,21.8,73.1,21.8,70,21.8z"/>
			</g>
		</g>
	</g>
	<g>
		<g>
			<g>
				<rect x="70" y="11.2" class="st0" width="0.5" height="10.4"/>
			</g>
		</g>
	</g>
	<g>
		<g>
			<g>
				<path class="st0" d="M70.5,20.3c0.5,0,1.5,0.4,2.4,0.6c1.2,0.4,2.5,0.1,3.5,0.3c0.3,0.1-5.9,0.1-5.9,0.1
					C70.5,20.2,70.5,20.3,70.5,20.3z"/>
			</g>
		</g>
		<g>
			<g>
				<path class="st0" d="M70.2,21.6l0-0.3c0-0.4,0-0.7,0-0.8l-0.1,0l0.1-0.5l0.2,0c0,0,0,0,0.1,0c0.4,0,1,0.2,1.7,0.4
					c0.2,0.1,0.5,0.1,0.7,0.2c0.7,0.2,1.4,0.2,2.1,0.2c0.5,0,1,0,1.4,0.1l0.2,0l0,0.2c0,0.1,0,0.2-0.3,0.2l0,0c0,0,0,0,0,0
					c-0.5,0.1-2,0.1-5.8,0.1L70.2,21.6z M70.7,20.6c0,0.1,0,0.3,0,0.5c0.5,0,1.1,0,1.7,0c-0.1,0-0.2-0.1-0.3-0.1
					C71.6,20.8,71.1,20.7,70.7,20.6z"/>
			</g>
		</g>
	</g>
	<g>
		<g>
			<g>
				<g>
					<path class="st0" d="M69.6,21.9c0-0.3,0.3-0.5,0.7-0.5c0.4,0,0.7,0.2,0.7,0.5c0,0.3-0.3,0.5-0.7,0.5
						C69.9,22.3,69.6,22.1,69.6,21.9z"/>
				</g>
			</g>
			<g>
				<g>
					<path class="st0" d="M70.3,22.6c-0.5,0-1-0.3-1-0.7c0-0.4,0.4-0.7,1-0.7s1,0.3,1,0.7C71.2,22.3,70.8,22.6,70.3,22.6z
						 M70.3,21.6c-0.3,0-0.4,0.1-0.4,0.2c0,0.1,0.2,0.2,0.4,0.2c0.3,0,0.4-0.1,0.4-0.2C70.7,21.8,70.5,21.6,70.3,21.6z"/>
				</g>
			</g>
		</g>
		<g>
			<g>
				<g>
					<path class="st5" d="M70.3,21.9"/>
				</g>
			</g>
		</g>
	</g>
	<g>
		<g>
			<g>
				<path class="st0" d="M69.9,20.3c-0.5,0-1.5,0.4-2.4,0.6c-1.2,0.4-2.5,0.1-3.5,0.3c-0.3,0.1,5.9,0.1,5.9,0.1
					C69.9,20.2,69.9,20.3,69.9,20.3z"/>
			</g>
		</g>
		<g>
			<g>
				<path class="st0" d="M70.2,21.6l-0.3,0c-3.9,0-5.3,0-5.8-0.1c0,0,0,0,0,0l0,0c-0.3,0-0.3-0.1-0.3-0.2l0-0.2l0.2,0
					c0.4-0.1,0.9-0.1,1.4-0.1c0.7,0,1.4,0,2.1-0.2c0.2-0.1,0.5-0.1,0.7-0.2c0.7-0.2,1.3-0.4,1.7-0.4c0,0,0,0,0.1,0l0.2,0l0.1,0.5
					l-0.1,0c0,0.1,0,0.4,0,0.8L70.2,21.6z M67.9,21.1c0.6,0,1.2,0,1.7,0c0-0.2,0-0.4,0-0.5c-0.4,0.1-0.9,0.2-1.4,0.4
					C68.1,21,68,21.1,67.9,21.1z"/>
			</g>
		</g>
	</g>
	<g>
		<g>
			<g>
				<path class="st2" d="M28.6,24.8c0.2,0.8,0.8,1.3,1.8,1.3c1.8,0,3.5-1.3,4.6-2c0.8-0.6,1.7-1.2,1.7-2.4l-0.2,0.5
					c0,0,1.4-1.4,4.9-0.3c1,0.3,5.1,2.6,6,2.9c0.8,0.3,3.5,2.2,7.7,1.5c0,0,6.4-0.9,5-7.3c-1-4.6-0.7-4.9-0.3-6.4
					c-0.2-0.1-3.9-0.9-3.8,4.2c-1.6,0.2-3.7,1.4-2.4,4.5c0.6-0.8,1.3-1.6,2.3-1.6c0.6,0,1.3,0.9,1.4,1.6c0.1,1.6-1.6,2.3-3.6,2
					c-1-0.2-2-1.3-3.5-2.3c0.3-0.1,0.5-0.9,0.5-1.3c0-0.8-0.7-1.2-1.2-1.5c0.1-0.3,0.3-0.7,0.3-0.9c0-0.6-0.9-0.6-1.3-0.8
					c0.2-0.2,0.2-0.1,0.2-0.4c0-0.9,0.2-1.5-1.8-1.4c0.2-0.9,0-1.5-0.7-1.8l-1.5-0.2c-0.9-0.2,0-0.5-0.8-1.2c-0.7-0.7-2,0-2,0
					c0-0.6-0.5-1.2-1.3-1.2c-0.4,0-1,0-1.3,0.2l-0.6,0.5c-0.8,0-0.9-0.7-1.8-0.7c-0.9,0-1.2,0.7-1.6,1.1c-0.6-0.3-0.7-0.8-1.5-0.8
					c-0.5,0-0.6,0.5-0.8,0.7c-0.5,0.6-0.5,1.1-1.3,1.4l-0.3-0.5c0,0,0-0.1,0-0.1c-1.2,0.6-3.9,6.5-3.9,7.7c0,1.2,1,0.6,1,1.9
					c0,0.7-1.1,1.3-1.1,1.9c0,0.8,0.9,1.2,1.8,1.2L28.6,24.8z"/>
			</g>
		</g>
		<g>
			<g>
				<path class="st0" d="M53.2,26.7c-2.7,0-4.6-1-5.5-1.4c-0.2-0.1-0.3-0.2-0.4-0.2c-0.4-0.2-1.3-0.6-2.3-1.1
					c-1.4-0.7-3.1-1.6-3.7-1.8c-2.6-0.8-4-0.2-4.4,0.1c-0.2,1-1,1.6-1.7,2.1L35,24.4c-1.1,0.8-2.8,1.9-4.6,1.9c-1,0-1.8-0.5-2-1.5
					l0-0.1c-0.7-0.2-1.2-0.6-1.2-1.3c0-0.4,0.3-0.7,0.6-1c0.3-0.3,0.5-0.6,0.5-0.9c0-0.5-0.2-0.6-0.4-0.8c-0.3-0.2-0.6-0.4-0.6-1.1
					c0-1.3,2.7-7.3,4-7.9l0.3-0.1l0.1,0.4l0.2,0.3c0.3-0.1,0.4-0.4,0.5-0.6c0.1-0.2,0.2-0.4,0.4-0.6c0,0,0.1-0.1,0.1-0.2
					c0.2-0.2,0.4-0.6,0.9-0.6c0.6,0,0.9,0.2,1.1,0.5c0.1,0.1,0.2,0.1,0.3,0.2c0,0,0,0,0,0c0.3-0.4,0.7-1,1.6-1
					c0.5,0,0.8,0.2,1.1,0.4c0.2,0.1,0.4,0.2,0.6,0.3l0.5-0.4c0.3-0.2,0.8-0.2,1.4-0.2c0.8,0,1.3,0.4,1.5,1c0.5-0.2,1.3-0.4,1.9,0.2
					c0.5,0.5,0.5,0.8,0.5,1c0,0,0,0.1,0,0.1c0,0,0.1,0,0.2,0.1l1.4,0.2c0.7,0.3,1.1,0.9,1,1.8c0.8,0,1.2,0.1,1.5,0.4
					c0.3,0.3,0.3,0.7,0.3,1.1l0,0.2c0,0.1,0,0.2,0,0.3c0.1,0,0.1,0,0.2,0c0.4,0.1,1,0.3,1,0.9c0,0.3-0.1,0.5-0.2,0.8c0,0,0,0,0,0
					c0.5,0.3,1.1,0.7,1.1,1.6c0,0.2-0.1,0.9-0.4,1.2c0.4,0.3,0.8,0.6,1.1,0.8c0.8,0.6,1.4,1.2,2,1.3c1.2,0.2,2.3,0,2.8-0.5
					c0.3-0.3,0.5-0.7,0.5-1.2c0-0.5-0.6-1.3-1.1-1.3c-0.9,0-1.6,0.8-2.1,1.5l-0.3,0.4l-0.2-0.4c-0.6-1.4-0.6-2.5-0.1-3.4
					c0.5-0.8,1.4-1.3,2.4-1.4c0-1.9,0.5-3.2,1.6-3.9c1.1-0.7,2.5-0.4,2.6-0.3l0.2,0.1L59.9,13c-0.3,1.1-0.5,1.8,0.4,5.9
					c0.4,2,0.2,3.7-0.8,5c-1.5,2.1-4.3,2.5-4.4,2.6C54.4,26.6,53.8,26.7,53.2,26.7z M38.9,21.2c0.7,0,1.5,0.1,2.6,0.4
					c0.6,0.2,2.3,1,3.8,1.8c1,0.5,1.9,1,2.3,1.1c0.1,0,0.3,0.1,0.5,0.2c1.1,0.6,3.5,1.8,7.1,1.2c0,0,2.7-0.4,4.1-2.3
					c0.9-1.2,1.1-2.8,0.7-4.6c-0.9-4.2-0.8-4.9-0.4-6.1l0-0.1c-0.4-0.1-1.2-0.1-2,0.4c-0.9,0.6-1.3,1.8-1.3,3.6l0,0.2l-0.2,0
					c-1,0.1-1.9,0.6-2.3,1.2c-0.4,0.7-0.4,1.5-0.1,2.5c0.5-0.7,1.3-1.4,2.2-1.4c0.8,0,1.6,1,1.6,1.8c0,0.7-0.2,1.2-0.6,1.6
					c-0.7,0.6-1.9,0.8-3.3,0.6c-0.8-0.1-1.5-0.7-2.3-1.4c-0.4-0.3-0.8-0.7-1.3-1l-0.4-0.2l0.4-0.2c0.1-0.1,0.3-0.7,0.3-1
					c0-0.6-0.6-1-1-1.2l-0.2-0.1l0-0.2c0-0.1,0.1-0.2,0.1-0.3c0.1-0.2,0.2-0.4,0.2-0.6c0-0.2-0.2-0.3-0.6-0.4
					c-0.2-0.1-0.4-0.1-0.6-0.2L48,16.4l0.2-0.2c0-0.1,0.1-0.1,0.1-0.1c0,0,0-0.1,0-0.1l0-0.2c0-0.4,0-0.6-0.1-0.7
					c-0.2-0.2-0.6-0.2-1.4-0.2l-0.3,0l0.1-0.3c0.2-1.1-0.2-1.4-0.5-1.5l-1.4-0.2c-0.6-0.1-0.7-0.3-0.7-0.7c0-0.2,0-0.3-0.3-0.7
					c-0.6-0.6-1.7,0-1.7,0l-0.4,0.2l0-0.4c0-0.6-0.4-0.9-1-0.9c-0.5,0-0.9,0.1-1.1,0.2l-0.6,0.5h-0.1c-0.4,0-0.7-0.2-1-0.4
					c-0.2-0.2-0.5-0.3-0.8-0.3c-0.6,0-0.9,0.4-1.2,0.8c-0.1,0.1-0.1,0.1-0.2,0.2l-0.1,0.2l-0.2-0.1c-0.3-0.1-0.4-0.3-0.6-0.4
					c-0.2-0.2-0.4-0.3-0.8-0.3c-0.2,0-0.3,0.1-0.4,0.4c-0.1,0.1-0.1,0.2-0.2,0.3c-0.2,0.2-0.3,0.4-0.4,0.5c-0.2,0.4-0.4,0.7-1,0.9
					l-0.2,0.1l-0.3-0.5c-1.1,1-3.5,6.1-3.5,7.3c0,0.4,0.2,0.5,0.4,0.7c0.3,0.2,0.6,0.4,0.6,1.2c0,0.5-0.3,0.9-0.7,1.2
					c-0.2,0.3-0.5,0.5-0.5,0.7c0,0.7,0.9,0.9,1.5,0.9l0.1,0.5L29,25c0.2,0.6,0.7,0.9,1.4,0.9c1.6,0,3.2-1.1,4.3-1.9l0.2-0.1
					c0.7-0.5,1.3-0.9,1.5-1.7l-0.1-0.1l0.2-0.5l0.4,0.1C37.2,21.4,37.9,21.2,38.9,21.2z"/>
			</g>
		</g>
	</g>
	<g>
		<g>
			<g>
				<path class="st0" d="M31.4,19.9c0,0,1.3,0.5,1.3,0.8c0,0.4-0.8,0.8-1.4,1.2h-0.7c0.3-0.8,0-0.5,0-1.2
					C30.6,20.1,31.2,19.9,31.4,19.9z"/>
			</g>
		</g>
		<g>
			<g>
				<path class="st0" d="M31.4,22.1h-1.2l0.1-0.3c0.1-0.4,0.1-0.5,0.1-0.6c0-0.1-0.1-0.3-0.1-0.6c0-0.7,0.7-1,1.1-1l0.1,0
					c1.5,0.6,1.5,0.9,1.5,1c0,0.4-0.4,0.7-0.9,1C31.9,21.7,31.7,21.9,31.4,22.1L31.4,22.1z M30.9,21.6h0.3c0.2-0.1,0.4-0.3,0.6-0.4
					c0.2-0.2,0.6-0.4,0.7-0.5c-0.1-0.1-0.6-0.4-1.1-0.5c-0.1,0-0.5,0.2-0.5,0.5c0,0.2,0,0.3,0.1,0.4C31,21.2,31,21.3,30.9,21.6z"/>
			</g>
		</g>
	</g>
	<g>
		<g>
			<g>
				<path class="st0" d="M49.2,24.1L48.7,24c0.1-0.8-0.2-0.9-0.6-1c-0.3-0.1-0.6-0.2-0.8-0.6c0-0.1-0.1-0.3-0.1-0.5
					c-0.1-0.4-0.1-0.9-0.4-1.1c-0.2-0.1-0.6-0.1-1.1,0l-0.4,0.1l0-0.4c0-0.7-0.1-1.2-0.5-1.5c-0.6-0.4-1.6-0.1-1.6-0.1l-0.4,0.1
					l0.1-0.4c0.1-0.5-0.1-1-0.4-1.3c-0.2-0.3-0.6-0.4-0.8-0.4c-0.4,0-0.6,0.1-0.9,0.3c-0.3,0.1-0.5,0.3-0.9,0.3
					c-0.5,0-0.8-0.2-1.2-0.3c-0.3-0.2-0.6-0.3-1-0.3c-0.5,0-0.6,0.2-0.7,0.5c-0.1,0.2-0.3,0.5-0.6,0.7l-0.2-0.5
					c0.2-0.1,0.3-0.2,0.4-0.4c0.2-0.3,0.4-0.7,1.2-0.7c0.6,0,0.9,0.2,1.3,0.4c0.3,0.2,0.6,0.3,0.9,0.3c0.2,0,0.4-0.1,0.6-0.2
					c0.3-0.2,0.7-0.3,1.2-0.3c0.4,0,0.9,0.2,1.2,0.6c0.4,0.4,0.6,0.9,0.6,1.4c0.4-0.1,1.1-0.1,1.7,0.3c0.4,0.3,0.7,0.8,0.7,1.5
					c0.5-0.1,0.9-0.1,1.2,0.1c0.5,0.3,0.6,1,0.7,1.5c0,0.2,0,0.3,0.1,0.4c0,0.1,0.1,0.2,0.4,0.3C48.7,22.7,49.4,22.9,49.2,24.1z"/>
			</g>
		</g>
	</g>
	<g>
		<g>
			<g>
				<path class="st2" d="M9.3,11.7h2c1.5-0.3,2-1.2,3.6-1.2c1.1,0,1.6,0.7,2.4,0.7c0.7,0,1.7-0.8,2.9-0.8c1.2,0,1.8,0.7,2.5,1
					c0.7,0.3,1.6,0.3,2.5,0.3c0,0.7,0,1.1,0,1.6c0,0.6,0.8,0.3,0.8,1.3c0,1-1,0.8-1,1.2l0,3.6c0.1,0.4,1,0.5,1,1.2c0,1-1,0.7-1,1.5
					c0.1,0.6,0,1.8,0,1.8c-2,0-14.6,0-15.2,0c0-1.3,0-1.1,0-1.8c0-0.5-1.2-0.8-1.2-1.7c0-0.6,0.7-0.6,0.8-1.1v-3.6
					c0-0.5-1.1-0.7-1.1-1.4c0-0.8,1-0.7,1-1.2C9.3,12.8,9.3,11.9,9.3,11.7z"/>
			</g>
		</g>
		<g>
			<g>
				<path class="st0" d="M16.8,24.1c-3.5,0-6.7,0-7,0l-0.3,0l0-0.2c0-0.7,0-1,0-1.2c0-0.2,0-0.3,0-0.6c0-0.1-0.2-0.3-0.4-0.4
					c-0.3-0.3-0.8-0.7-0.8-1.3c0-0.4,0.3-0.6,0.5-0.8c0.2-0.1,0.3-0.2,0.3-0.4l0-3.6c0-0.1-0.2-0.2-0.4-0.3C8.4,15,8,14.7,8,14.2
					c0-0.6,0.4-0.8,0.7-1C9,13.2,9,13.1,9,13c0-0.1,0-0.2,0-0.4c0-0.3,0-0.8,0-0.9l0-0.3h2.3c0.5-0.1,1-0.3,1.4-0.6
					c0.6-0.3,1.2-0.6,2.1-0.6c0.7,0,1.1,0.2,1.5,0.4c0.3,0.2,0.6,0.3,0.9,0.3c0.2,0,0.6-0.1,1-0.3c0.6-0.2,1.2-0.5,1.9-0.5
					c0.9,0,1.5,0.4,2,0.7c0.2,0.1,0.4,0.3,0.7,0.4c0.6,0.2,1.4,0.2,2.3,0.2l0.4,0l0,0.3c0,0.4,0,0.7,0,1.1c0,0.2,0,0.3,0,0.5
					c0,0.1,0,0.1,0.2,0.2c0.2,0.1,0.6,0.4,0.6,1c0,0.8-0.5,1-0.8,1.1c-0.1,0-0.2,0.1-0.2,0.1l0,3.6c0,0,0.2,0.1,0.3,0.2
					c0.3,0.2,0.7,0.4,0.7,1c0,0.7-0.4,0.9-0.7,1c-0.2,0.1-0.3,0.2-0.3,0.4c0.1,0.6,0,1.8,0,1.9l0,0.2l-2.2,0
					C21.4,24.1,19,24.1,16.8,24.1z M10,23.6c1.6,0,9.2,0,13.1,0l1.7,0c0-0.4,0-1.2,0-1.6c0-0.5,0.3-0.7,0.6-0.9
					c0.3-0.1,0.4-0.2,0.4-0.6c0-0.2-0.2-0.4-0.4-0.5c-0.2-0.1-0.5-0.3-0.5-0.6l0-3.6c0-0.3,0.3-0.4,0.5-0.5c0.3-0.1,0.5-0.2,0.5-0.6
					c0-0.4-0.1-0.5-0.3-0.6c-0.2-0.1-0.4-0.3-0.4-0.7c0-0.2,0-0.4,0-0.5c0-0.3,0-0.5,0-0.8c-0.9,0-1.7,0-2.4-0.3
					c-0.3-0.1-0.5-0.3-0.7-0.4c-0.5-0.3-1-0.6-1.7-0.6c-0.6,0-1.2,0.2-1.7,0.4c-0.4,0.2-0.8,0.3-1.2,0.3c-0.4,0-0.8-0.2-1.1-0.3
					c-0.4-0.2-0.8-0.4-1.3-0.4c-0.8,0-1.3,0.3-1.9,0.5c-0.4,0.2-0.9,0.5-1.6,0.6l-1.8,0c0,0.2,0,0.5,0,0.7c0,0.2,0,0.3,0,0.4
					c0,0.4-0.3,0.6-0.5,0.7c-0.3,0.2-0.4,0.3-0.5,0.6c0,0.2,0.2,0.4,0.5,0.6c0.3,0.2,0.6,0.4,0.6,0.7l0,3.6c0,0.4-0.3,0.6-0.5,0.7
					c-0.2,0.1-0.3,0.2-0.3,0.4c0,0.4,0.3,0.6,0.6,0.9c0.3,0.2,0.6,0.5,0.6,0.8c0,0.3,0,0.4,0,0.6C10,22.8,10,23.1,10,23.6z"/>
			</g>
		</g>
	</g>
	<g>
		<g>
			<g>
				<path class="st0" d="M16.9,21.9c-2.9,0-5.7,0-6,0l-0.3,0l0-0.3c0-1.9,0-9.8,0-9.9l0.5,0c0,0.1,0,7.4,0,9.6c3.9,0,10.6,0,12,0
					c0-2.4,0-9.7,0-9.7l0.5,0c0,0,0,7.8,0,9.9v0.2l-0.2,0C23.3,21.9,20,21.9,16.9,21.9z"/>
			</g>
		</g>
	</g>
	<g>
		<g>
			<g>
				<rect x="17" y="11.3" class="st0" width="0.5" height="10.4"/>
			</g>
		</g>
	</g>
	<g>
		<g>
			<g>
				<path class="st0" d="M17.4,20.4c0.5,0,1.5,0.4,2.4,0.6c1.2,0.4,2.5,0.1,3.5,0.3c0.3,0.1-5.9,0.1-5.9,0.1
					C17.5,20.3,17.4,20.4,17.4,20.4z"/>
			</g>
		</g>
		<g>
			<g>
				<path class="st0" d="M17.2,21.7l0-0.3c0-0.4,0-0.7,0-0.8l-0.1,0l0.1-0.5l0.2,0c0,0,0,0,0.1,0c0.4,0,1,0.2,1.7,0.4
					c0.2,0.1,0.5,0.1,0.7,0.2C20.6,21,21.3,21,22,21c0.5,0,1,0,1.4,0.1l0.2,0l0,0.2c0,0.1,0,0.2-0.3,0.2l0,0c0,0,0,0,0,0
					c-0.5,0.1-2,0.1-5.9,0.1L17.2,21.7z M17.7,20.7c0,0.1,0,0.3,0,0.5c0.5,0,1.1,0,1.7,0c-0.1,0-0.2-0.1-0.3-0.1
					C18.6,20.9,18.1,20.7,17.7,20.7z"/>
			</g>
		</g>
	</g>
	<g>
		<g>
			<g>
				<g>
					<path class="st0" d="M16.5,21.9c0-0.3,0.3-0.5,0.7-0.5c0.4,0,0.7,0.2,0.7,0.5c0,0.3-0.3,0.5-0.7,0.5
						C16.9,22.4,16.5,22.2,16.5,21.9z"/>
				</g>
			</g>
			<g>
				<g>
					<path class="st0" d="M17.2,22.6c-0.5,0-1-0.3-1-0.7c0-0.4,0.4-0.7,1-0.7c0.5,0,1,0.3,1,0.7C18.2,22.3,17.8,22.6,17.2,22.6z
						 M17.2,21.7c-0.3,0-0.4,0.1-0.4,0.2c0,0.1,0.2,0.2,0.4,0.2c0.3,0,0.4-0.1,0.4-0.2C17.7,21.8,17.5,21.7,17.2,21.7z"/>
				</g>
			</g>
		</g>
		<g>
			<g>
				<g>
					<path class="st5" d="M17.2,21.9"/>
				</g>
			</g>
		</g>
	</g>
	<g>
		<g>
			<g>
				<path class="st0" d="M16.9,20.4c-0.5,0-1.5,0.4-2.4,0.6c-1.2,0.4-2.5,0.1-3.5,0.3c-0.3,0.1,5.9,0.1,5.9,0.1
					C16.9,20.3,16.9,20.4,16.9,20.4z"/>
			</g>
		</g>
		<g>
			<g>
				<path class="st0" d="M17.2,21.7l-0.3,0c-3.9,0-5.3,0-5.9-0.1c0,0,0,0,0,0l0,0c-0.3,0-0.3-0.1-0.3-0.2l0-0.2l0.2,0
					c0.4-0.1,0.9-0.1,1.4-0.1c0.7,0,1.4,0,2.1-0.2c0.2-0.1,0.5-0.1,0.7-0.2c0.7-0.2,1.3-0.4,1.7-0.4c0,0,0,0,0.1,0l0.2,0l0.1,0.5
					l-0.1,0c0,0.1,0,0.4,0,0.8L17.2,21.7z M14.9,21.2c0.6,0,1.2,0,1.7,0c0-0.2,0-0.4,0-0.5c-0.4,0.1-0.9,0.2-1.4,0.4
					C15.1,21.1,15,21.1,14.9,21.2z"/>
			</g>
		</g>
	</g>
	<g>
		<g>
			<g>
				<g>
					<path class="st2" d="M19.3,57.9c0-3.4,2.9-6.1,6.5-6.1c3.6,0,6.5,2.7,6.5,6.1c0,3.4-2.9,6.1-6.5,6.1
						C22.2,64,19.3,61.3,19.3,57.9z"/>
				</g>
			</g>
			<g>
				<g>
					<path class="st0" d="M25.8,64.3c-3.7,0-6.8-2.8-6.8-6.3c0-3.5,3-6.3,6.8-6.3s6.8,2.8,6.8,6.3C32.6,61.4,29.5,64.3,25.8,64.3z
						 M25.8,52.1c-3.4,0-6.2,2.6-6.2,5.8c0,3.2,2.8,5.8,6.2,5.8c3.4,0,6.2-2.6,6.2-5.8C32.1,54.7,29.3,52.1,25.8,52.1z"/>
				</g>
			</g>
		</g>
		<g>
			<g>
				<g>
					<path class="st6" d="M25.8,57.9"/>
				</g>
			</g>
		</g>
	</g>
	<g>
		<g>
			<g>
				<g>
					<path class="st2" d="M37.2,43.3c0-3.4,2.9-6.1,6.5-6.1c3.6,0,6.5,2.7,6.5,6.1c0,3.4-2.9,6.1-6.5,6.1
						C40.1,49.4,37.2,46.7,37.2,43.3z"/>
				</g>
			</g>
			<g>
				<g>
					<path class="st0" d="M43.7,49.6c-3.7,0-6.8-2.8-6.8-6.3c0-3.5,3-6.3,6.8-6.3s6.8,2.8,6.8,6.3C50.5,46.8,47.4,49.6,43.7,49.6z
						 M43.7,37.5c-3.4,0-6.2,2.6-6.2,5.8c0,3.2,2.8,5.8,6.2,5.8c3.4,0,6.2-2.6,6.2-5.8C49.9,40.1,47.1,37.5,43.7,37.5z"/>
				</g>
			</g>
		</g>
		<g>
			<g>
				<g>
					<path class="st7" d="M43.7,43.3"/>
				</g>
			</g>
		</g>
	</g>
	<g>
		<g>
			<g>
				<g>
					<path class="st2" d="M54.1,57.9c0-3.4,2.9-6.1,6.5-6.1c3.6,0,6.5,2.7,6.5,6.1c0,3.4-2.9,6.1-6.5,6.1C57,64,54.1,61.3,54.1,57.9
						z"/>
				</g>
			</g>
			<g>
				<g>
					<path class="st0" d="M60.6,64.3c-3.7,0-6.8-2.8-6.8-6.3c0-3.5,3-6.3,6.8-6.3c3.7,0,6.8,2.8,6.8,6.3
						C67.3,61.4,64.3,64.3,60.6,64.3z M60.6,52.1c-3.4,0-6.2,2.6-6.2,5.8c0,3.2,2.8,5.8,6.2,5.8c3.4,0,6.2-2.6,6.2-5.8
						C66.8,54.7,64,52.1,60.6,52.1z"/>
				</g>
			</g>
		</g>
		<g>
			<g>
				<g>
					<path class="st6" d="M60.6,57.9"/>
				</g>
			</g>
		</g>
	</g>
	<g>
		<g>
			<g>
				<path class="st0" d="M50,20.8c-0.9-1-1.8-2-2.4-2.8c-0.4-0.5-0.8-1-0.9-1.1c-0.2-0.1-0.5-0.4-0.9-0.8c-1.1-1.2-3.1-3.3-7-3.6
					c-1.7-0.1-6.1,0.5-6.2,1.4l-0.5-0.1c0.2-1.6,5.8-1.9,6.8-1.9c4.1,0.2,6.2,2.5,7.4,3.7c0.3,0.3,0.6,0.6,0.7,0.7
					c0.2,0.1,0.4,0.3,1.1,1.2c0.6,0.8,1.5,1.8,2.4,2.8L50,20.8z"/>
			</g>
		</g>
	</g>
	<g>
		<g>
			<g>
				<path class="st0" d="M36.9,22L36.4,22c0-0.1,0-0.1,0-0.2c-0.2,0-0.4,0-0.6,0c-0.3,0-0.6,0-0.7,0l-0.2,0l-0.1-0.2
					c0-0.2,0.2-0.3,0.4-0.5c0,0,0.1,0,0.1-0.1l0.1,0.1l0-0.2c1.1-0.4,1.9-0.9,2-1.2c0,0,0-0.1-0.1-0.1c-0.4-0.4-0.7-0.8-1-1.2
					c-0.2-0.2-0.3-0.4-0.4-0.5c-0.5-0.5-1-0.7-1.8-0.7c-0.5,0-1.3,0.7-1.8,1.1c-0.2,0.2-0.4,0.4-0.6,0.5l-0.3-0.4l0.1-0.1
					c0.4-0.3,1.3-1.2,1.3-1.7c0-1-0.5-1.9-1-2.7c-0.3-0.6-0.6-1.2-0.8-1.8l0.5-0.1c0.1,0.5,0.4,1.1,0.7,1.7c0.5,0.9,1,1.9,1,3
					c0,0.1,0,0.3-0.1,0.4c0.3-0.2,0.6-0.3,0.9-0.3c0.9,0,1.6,0.3,2.2,0.9c0.1,0.2,0.3,0.3,0.4,0.5c0.3,0.3,0.6,0.7,1,1.1
					c0.2,0.2,0.2,0.4,0.2,0.6c-0.1,0.6-1.1,1.1-2.1,1.5c0.6,0,1,0,1,0.4C37,21.8,37,21.9,36.9,22z"/>
			</g>
		</g>
	</g>
	<g>
		<g>
			<g>
				<path class="st0" d="M29.1,24.8v-0.5c1.4,0,2.1-0.1,2.7-0.4c0.9-0.5,2-1.2,2.2-1.7l0.5,0.2c-0.4,0.9-2.1,1.8-2.4,2
					C31.3,24.8,30.4,24.8,29.1,24.8z"/>
			</g>
		</g>
	</g>
	<g>
		<g>
			<g>
				<path class="st0" d="M42.2,87.7C42.2,87.7,42.2,87.7,42.2,87.7C38,87.6,5.9,72.3,6,42.2c0-0.5,0-36,0-36V5.7h75.6v36.7
					C81.3,56.9,73,67.6,66,74C56.2,83,44.9,87.7,42.2,87.7z M7,6.7c0,4.3,0,35,0,35.5C6.9,71.6,38.1,86.6,42.2,86.7c0,0,0,0,0,0
					c2.2,0,13.3-4.5,23-13.5c6.8-6.3,15-16.8,15.2-30.9V6.7H7z"/>
			</g>
		</g>
	</g>
</g>
<path class="st0" d="M393.4,75c0,5.5,1.7,7,8.3,7v2.4h-26.3V82c7.6,0,8.4-2,8.4-9.6V45.3c0-7.3,1.2-8.2-7.3-8.2v-2.4l14.5-1.5h2.4
	V44c9.3-8,13.7-10.8,17-10.8c2.8,0,6.6,1.7,9.2,3.9l-3.8,8.9c-4.1-2.3-8.4-4.4-11.8-4.4c-3.2,0-6.1,1.7-10.6,6.1V75z"/>
<path class="st0" d="M447.8,86c-15.6,0-27.3-11.3-27.3-26.3c0-15.2,11.7-26.5,27.3-26.5c15.6,0,27.3,11.3,27.3,26.5
	C475.1,74.7,463.4,86,447.8,86z M447.8,36c-10.6,0-16.9,9.3-16.9,23.7c0,12.8,5.4,23.5,16.9,23.5c11.8,0,16.9-11.4,16.9-23.5
	C464.7,47.1,459.4,36,447.8,36z"/>
<path class="st0" d="M504.4,72.3l9.7-25.2c2.4-6.5,2.4-9.4-4.9-10v-2.4h18.3v2.4c-5.8,0.6-7.2,1.8-9.6,7.2l-16.1,41.3h-2.4
	l-15.9-39.1c-3.4-8.2-4.6-9-10.6-9.3v-2.4h24.1v2.4c-4.8,0.4-6.1,3.1-3.8,8.6L504.4,72.3z"/>
<path class="st0" d="M552.9,86c-15.6,0-27.3-11.3-27.3-26.3c0-15.2,11.7-26.5,27.3-26.5c15.6,0,27.3,11.3,27.3,26.5
	C580.2,74.7,568.5,86,552.9,86z M552.9,36c-10.6,0-16.9,9.3-16.9,23.7c0,12.8,5.4,23.5,16.9,23.5c11.8,0,16.9-11.4,16.9-23.5
	C569.8,47.1,564.5,36,552.9,36z"/>
<path class="st0" d="M616.2,48.5c-1-8.3-6.5-12.5-12.4-12.5c-4.9,0-8.3,2.7-8.3,6.8c0,12.7,26.2,9.3,26.2,27.9
	c0,8.3-7.2,15.3-15.8,15.3c-5.5,0-10.3-3.7-12.7-3.7c-1.8,0-3.1,1.5-3.2,3.4h-2.4v-17h2.4c2.1,10.4,9.9,14.5,16.1,14.5
	c4.9,0,8.7-3.7,8.7-8.6c0-13.9-26.5-10.1-26.5-27c0-7.7,6.9-14.4,15.2-14.4c5.2,0,6.8,2.4,10.1,2.4c1.3,0,2.3-0.7,3-2.4h2.4v15.3
	H616.2z"/>
<path class="st0" d="M643.4,34.4h17.3v3.7h-17.3v32.1c0,6.9,3.5,10.4,9,10.4c3.7,0,6.3-1.4,9.3-4.8l1.5,1.8
	c-4.4,5.5-9.4,8.3-15.1,8.3c-8.5,0-14.4-5.9-14.4-14.5V38.1h-9.4v-2.4c6.8-3.4,12.4-9.4,16.6-18h2.4V34.4z"/>
<path class="st0" d="M366.5,13.1c-6.2-4.9-13.4-6.6-21.1-6.7c-9.6-0.1-19.3-0.1-28.9-0.1c-0.5,0-1,0-1.6,0c0,1,0,1.8,0,2.7
	c0.5,0,1,0.1,1.4,0.1c3.7,0.2,5.9,1.9,6.6,5.5c0.4,1.7,0.6,3.5,0.6,5.3c0,17.1,0.1,34.2,0,51.3c0,2-0.4,4.1-0.9,6.1
	c-0.7,2.6-2.6,3.9-5.2,4.3c-0.9,0.1-1.7,0.2-2.5,0.3c0,0.9,0,1.7,0,2.6c9.5,0,18.9,0,28.3,0c0-0.9,0-1.7,0-2.6
	c-0.8-0.1-1.5-0.2-2.2-0.3c-3.5-0.5-5.2-2-5.9-5.5c-0.4-1.9-0.6-3.9-0.6-5.9c-0.1-6.9,0-13.7,0-20.6c0-0.5,0-0.9,0-1.5
	c2,0.2,3.8,0.4,5.6,0.5c6.3,0.4,12.6,0.5,18.7-1.3c5.3-1.5,9.8-4,12.7-9C375.6,31.4,375.2,19.9,366.5,13.1z M360.8,36.9
	c-2.7,5-7.1,7.4-12.6,8.3c-4.2,0.7-8.3,0.4-12.5-0.6c-0.7-0.2-1.3-0.3-1.3-1.3c0-11,0-21.9,0-32.9c0-0.1,0-0.3,0.1-0.7
	c5.1,0.2,10.2-0.6,15.2,0.8c7.1,2,11,7.1,12.3,14.1C363,28.9,362.9,33.1,360.8,36.9z"/>
</svg>
