<svg xmlns="http://www.w3.org/2000/svg" viewBox="0 0 470.15 392.78"><defs><style>.cls-1{fill:#fff;}.cls-2{fill:#242424;}.cls-3{fill:#1f2147;}.cls-4{fill:#e1e3fc;}.cls-5{fill:#de5863;}</style></defs><g id="Layer_2" data-name="Layer 2"><polygon class="cls-1" points="408.96 63.81 329.81 130.73 308.09 151.26 306.94 173.48 315.02 204 324.97 215 308.09 235.03 300.47 260.68 308.91 284.62 326.68 300.99 308.91 320.52 300.47 351.29 311.3 367.82 330.75 382.95 300.47 387.2 46.87 387.2 19.51 371.06 11.54 343.66 16.89 325.65 38.32 303.45 33.19 292.89 16.95 281.77 10.23 264.99 10.23 252.88 16.95 236.18 37.75 215 16.95 204 6.4 187.16 6.4 167.53 16.04 145.02 38.34 127.56 111.26 60.65 413.78 60.65 408.96 63.81"/></g><g id="Layer_1" data-name="Layer 1"><g id="Draw_Layer" data-name="Draw Layer"><path class="cls-2" d="M255.36,209.05Z" transform="translate(0.03 -0.03)"/><path class="cls-2" d="M275,295.7h0Z" transform="translate(0.03 -0.03)"/><path class="cls-2" d="M270.52,382.41h0Z" transform="translate(0.03 -0.03)"/><path class="cls-3" d="M40,122.31a49.19,49.19,0,0,0-28.49,16.74,48.09,48.09,0,0,0-7.35,11.83,50.73,50.73,0,0,0-2.84,8.38,48.26,48.26,0,0,0-.67,19.15,43.21,43.21,0,0,0,2.19,8.67,50.35,50.35,0,0,0,10.5,17.18,49,49,0,0,0,7.51,6.51,44,44,0,0,0,8,4.57c.62.28,1.25.55,1.88.81a47.7,47.7,0,0,0-12.57,10.68,52.63,52.63,0,0,0-4.5,6.3,49.74,49.74,0,0,0-4,8.52,48,48,0,0,0-2.92,16,49.73,49.73,0,0,0,2,14.5,48.85,48.85,0,0,0,6.66,14A48.3,48.3,0,0,0,27,298.1a39.7,39.7,0,0,0,5,3.21,48.57,48.57,0,0,0-21.29,23.52,50.07,50.07,0,0,0-2.93,9,53.53,53.53,0,0,0-1.08,8.92,48.68,48.68,0,0,0,9.59,30.6,51,51,0,0,0,6,6.79,51.81,51.81,0,0,0,6.34,5,48.39,48.39,0,0,0,12.38,6h.12l.31.1.31.1.21.05c.64.19,1.28.37,1.93.53h.39l.25.08h.85c.72.15,1.45.29,2.18.4h.9l.45.06.75.1,2.22.25h.91a4.62,4.62,0,0,0,2.2-.62H337.46v-.12a5.95,5.95,0,0,0,4-4,5.28,5.28,0,0,0-.53-4,5,5,0,0,0-3.06-2.37l-.91-.24-.07.06-1.5-.45h-.13c-.64-.21-1.28-.43-1.91-.67a6.67,6.67,0,0,0-.74-.29,7.12,7.12,0,0,0-.76-.31,46.23,46.23,0,0,1-8.43-5,49.53,49.53,0,0,1-7.3-7.32,40,40,0,0,1-7.84-18.86,50.08,50.08,0,0,1,0-10.67,48.92,48.92,0,0,1,2.75-10,47.35,47.35,0,0,1,5.22-8.91,49.4,49.4,0,0,1,7.13-7.11,47.45,47.45,0,0,1,8.86-5.14c.41-.16.79-.31,1.23-.45h.06l1.61-.57a5.3,5.3,0,0,0,.86-.34h0a5.25,5.25,0,0,0,.79-.06h.58v-.15a5.12,5.12,0,0,0,0-9.88v-.23h-.45l-.12.09h-.51a6,6,0,0,0-1.46-.7h-.24l-.19-.07-.2-.06-.32-.11h-.25l-1.42-.5a5.55,5.55,0,0,0-.56-.24,5.89,5.89,0,0,0-.7-.26c-.64-.28-1.27-.58-1.9-.89l-.14-.07a47.39,47.39,0,0,1-6.85-4.25,51.27,51.27,0,0,1-6.91-6.91,39.82,39.82,0,0,1-8-18.95,49.52,49.52,0,0,1,0-10.61,39.64,39.64,0,0,1,15.15-26.22,47.82,47.82,0,0,1,8.69-5.08c.79-.32,1.6-.61,2.4-.9a8.6,8.6,0,0,0,1.34-.63h.76a5.28,5.28,0,0,0,1.31.16,5.17,5.17,0,0,0,4.18-2.22l.14.38a5.14,5.14,0,0,0,.85-2.79,5.21,5.21,0,0,0-4.52-5.09V209h-.19l-.14.08h-.67l-.15-.05c-.89-.27-1.77-.59-2.7-.95a7.22,7.22,0,0,0-.91-.37c-.41-.18-.81-.38-1.22-.57l-.14-.07-.14-.07-.13-.06-.33-.17a45.66,45.66,0,0,1-6.65-4.15,50.34,50.34,0,0,1-7-7,40,40,0,0,1-8-19,49.8,49.8,0,0,1,0-10.64,48.19,48.19,0,0,1,2.78-10,47.46,47.46,0,0,1,5.26-8.9,49.77,49.77,0,0,1,7.12-7.1,47.6,47.6,0,0,1,8.67-5.07c1-.41,1.85-.73,2.6-1a6.77,6.77,0,0,0,2.14-1.21,5.1,5.1,0,0,0,3.75-4.9v-.18h0a5.15,5.15,0,0,0-4.06-4.79v-.11H43.49a4.79,4.79,0,0,0-2.07-.44,8.68,8.68,0,0,0-1.44.15Zm-6,84.16a48.65,48.65,0,0,1-8.61-5A39.29,39.29,0,0,1,13.19,185.6a48,48,0,0,1-2.65-9.86,39,39,0,0,1,2.71-20.19,45.32,45.32,0,0,1,5.1-8.72,46.47,46.47,0,0,1,6.94-6.94,47.37,47.37,0,0,1,8.89-5.19,45.73,45.73,0,0,1,5.92-1.88,4.78,4.78,0,0,0,1,.1H316.89c-1.09.86-2.14,1.77-3.14,2.73a54.15,54.15,0,0,0-5.35,6.17,49.56,49.56,0,0,0-6.58,46.89,48.34,48.34,0,0,0,6.58,12.13,52.86,52.86,0,0,0,7.61,8.21H42.7A45.87,45.87,0,0,1,34,206.54Zm10.27,89-.29-.1-.28-.09h-.1c-.8-.26-1.56-.53-2.3-.82a4.51,4.51,0,0,0-.94-.38,45.76,45.76,0,0,1-8.29-4.9,39.1,39.1,0,0,1-12.14-15.76,46.4,46.4,0,0,1-2.67-9.74A38.67,38.67,0,0,1,25,234.62a46.86,46.86,0,0,1,7.11-7.11,46.4,46.4,0,0,1,8.7-5.07,47.72,47.72,0,0,1,7.19-2.2,4.41,4.41,0,0,0,1.93-1H314.32a46.07,46.07,0,0,0-6.87,7.09,52.66,52.66,0,0,0-3.88,5.6,53.8,53.8,0,0,0-3.4,7,48.79,48.79,0,0,0-3.32,14.49,49.66,49.66,0,0,0,1.21,15.27,47.83,47.83,0,0,0,5.51,13.64,49.48,49.48,0,0,0,9.76,11.9c.55.48,1.1,1,1.67,1.43H46.25a4.91,4.91,0,0,0-.94.09l-1-.29Zm3.37,86.79H46.49c-.75-.19-1.5-.4-2.24-.63l-.24-.07h-.3c-1-.32-2-.68-3-1.09a46.21,46.21,0,0,1-8.8-5.16,46.76,46.76,0,0,1-6.85-6.86,38.59,38.59,0,0,1-7.85-18.65,39.07,39.07,0,0,1,2.66-20.2,46,46,0,0,1,5.06-8.72,47.39,47.39,0,0,1,7.15-7.15,47,47,0,0,1,8.73-5.08,48.29,48.29,0,0,1,8-2.35H315.47a42.83,42.83,0,0,0-3.25,2.92,53.91,53.91,0,0,0-5.35,6.44,48.54,48.54,0,0,0-6.8,13.76,49.73,49.73,0,0,0-2.2,16.79,48.5,48.5,0,0,0,2.8,14.6,51.69,51.69,0,0,0,3.67,8.05,53.21,53.21,0,0,0,4.59,6.66,44.55,44.55,0,0,0,7.22,7.24H50.85a4.9,4.9,0,0,0-1.47.22c-.58-.1-1.15-.21-1.72-.34Z" transform="translate(0.03 -0.03)"/><path class="cls-3" d="M299.14,56H135.25c-3.34.06-6.68.28-10,.39H118.9q-3.15,0-6.29.18c-1.15.07-2.29.15-3.43.24l-.86.53a17.67,17.67,0,0,1-2.19,1.06l-.22.18L25.4,126.67,12.85,137.28A4.55,4.55,0,0,0,16,145.05h0a4.75,4.75,0,0,0,3.21-1.33L77.49,94.45,112.4,64.92a3.42,3.42,0,0,0,.9.12H401.57L371.51,90.42l-37,31.24-1.94,1.64-1.93,1.63a4.43,4.43,0,0,0-1.34,3.22,4.54,4.54,0,0,0,4.54,4.54h0a4.72,4.72,0,0,0,3.2-1.33l4.37-3.7v-.13l25.76-21.8L395.9,81.47l.07-.06h0l.06.11a2.86,2.86,0,0,0-.2.48c-.27.79-.52,1.56-.73,2.36a48.64,48.64,0,0,0-.7,20.76A45.89,45.89,0,0,0,398,116.31a47.13,47.13,0,0,0,15.72,18.6,48.51,48.51,0,0,0,5.77,3.51h0l.67.33h.06l-3.56,3-.35.3Q394.16,160.73,372,179.49l-20.23,17.26-.21.18-14.44,12.12H337l-.76.64A4.43,4.43,0,0,0,335,212.9a4.52,4.52,0,0,0,4.5,4.54h0a4,4,0,0,0,1.41-.23.44.44,0,0,0,.08-.11,5.76,5.76,0,0,0,1.66-1l44.5-37.6,15.2-12.84.06-.05h0l.06.11c-.19.49-.34,1-.5,1.51a47.47,47.47,0,0,0-1.43,7A48.25,48.25,0,0,0,401,189.3a45.84,45.84,0,0,0,4.52,12.85A46.55,46.55,0,0,0,414,213.54a50,50,0,0,0,9.73,7.52h.07l.83.46h.05l-5.52,4.76-.28.23q-29.36,24.8-58.72,49.64l-9.71,8.21-11.77,10-1.76,1.46h-.1l-4.58,3.88a4.43,4.43,0,0,0-1.33,3.21,4.61,4.61,0,0,0,1.33,3.21,4.07,4.07,0,0,0,1.2.86h.11a4.51,4.51,0,0,0,5.05-.89l71.18-60.18h.06V246c-.3.59-.56,1.2-.76,1.67a48.69,48.69,0,0,0-2.13,6.45,48,48,0,0,0-1.23,8,41.32,41.32,0,0,0,.16,8.32,49.1,49.1,0,0,0,1.49,7.88,52.32,52.32,0,0,0,2.8,7.36,46.94,46.94,0,0,0,8.22,12,42.82,42.82,0,0,0,6.18,5.47c.8.62,1.7,1.25,2.91,2.09l.12.1h.06l-7.5,6.4L395.71,332.4l-38.32,32.41-11.75,9.94-8.71,7.3h0l-3,2.5a4.39,4.39,0,0,0-1.33,3.21,4.54,4.54,0,0,0,4.54,4.54,4.75,4.75,0,0,0,3.21-1.33l57.7-48.8,38.44-32.52.22-.29.16-.2.16-.2-.12.06.27-.31c.38-.45.76-.91,1.13-1.38l.56-.69c.26-.35.5-.7.72-1.06a5.21,5.21,0,0,0,.28-.52,6,6,0,0,0,.22-.59c.09-.27.18-.54.25-.82a7.27,7.27,0,0,0-.22-.8c-.13-.24-.27-.47-.42-.7a13,13,0,0,0-1.3-1.27l-.2-.18-.58-.51h-.52l-.39-.08h-.34l-.14-.05-.15-.06H436l-.16-.08-.2-.08-.15-.06-.18-.09h-.09l-.19-.09-.13-.06a7.88,7.88,0,0,1-1.82-1.38c-1.24-.75-2.43-1.55-3.56-2.37a38,38,0,0,1-11.89-44.93,45.56,45.56,0,0,1,4.91-8.4c.69-.86,1.38-1.67,2-2.39a5.52,5.52,0,0,1,.42-.75,33.89,33.89,0,0,1,3.42-4.33l.28-.29.16-.2a9.85,9.85,0,0,1,1.64-1.65c.46-.37.9-.76,1.34-1.16l.45-.41.12-.12a7.23,7.23,0,0,0,.63-.61l.22-.25.12-.14c.13-.15.25-.29.38-.42l.4-.42c.34-.35.65-.68.93-1l.08-.1a12.85,12.85,0,0,0,1-1.52l.34-.63.28-.53c.1-.21.2-.41.31-.61l.05-.11.07-.16a16.22,16.22,0,0,0,.79-2.35v-.41a8,8,0,0,0,.07-1.1v-.39a10.84,10.84,0,0,0-.6-1.91,6,6,0,0,0-.57-.94,3.08,3.08,0,0,0-.51-.51c-.31-.22-.61-.41-.93-.6a27,27,0,0,1-3.43-.88l-.31-.11a12,12,0,0,1-2.87-1.25,9.31,9.31,0,0,1-1.59-1.35c-1.16-.71-2.27-1.45-3.28-2.2a45.75,45.75,0,0,1-7-7,44.5,44.5,0,0,1-4.76-8.56A37.74,37.74,0,0,1,409.48,175a44.41,44.41,0,0,1,2.58-9.47,46.63,46.63,0,0,1,5-8.62c.62-.76,1.35-1.59,2.17-2.48.13-.25.28-.49.42-.72l.18-.27.06-.11.07-.1a14.07,14.07,0,0,1,1-1.46c.56-.76,1.16-1.57,1.79-2.31a16.51,16.51,0,0,1,1.55-1.58c.21-.2.42-.4.62-.61.41-.4.73-.71,1.08-1,.62-.51,1.24-1,1.88-1.49l1.66-1.38a16.77,16.77,0,0,1,1.75-1.29l.36-.25a4.26,4.26,0,0,0,.52-.52l.07-.07.07-.11a5.12,5.12,0,0,0,.47-.82,5.7,5.7,0,0,0,.28-1v-1.9a8.93,8.93,0,0,0-.09-1.67c-.06-.26-.13-.51-.21-.76a7.61,7.61,0,0,0-.62-1.16,1.06,1.06,0,0,0-.15-.15,3.15,3.15,0,0,0-.51-.28l-.14-.06-.63-.23-.38-.13-.5-.2a1.9,1.9,0,0,1-.36-.12c-.25-.09-.5-.19-.74-.3a3.65,3.65,0,0,1-.54-.32l-.15.1-.13.1c-.51-.2-1.06-.4-1.6-.62a3.89,3.89,0,0,0-.79-.33,38,38,0,0,1-15-11.69,45,45,0,0,1-5-8.46,44.35,44.35,0,0,1-2.61-9.54,37.93,37.93,0,0,1,2.61-20,45.51,45.51,0,0,1,5-8.56,46,46,0,0,1,6.93-6.88,2,2,0,0,0,.21-.2c.24-.48.48-1,.7-1.45s.28-.78.39-1.18a2.41,2.41,0,0,0,0-.38,4,4,0,0,0-.1-.91,4.2,4.2,0,0,0,.3-1.56v-.25c-.07-.24-.14-.46-.22-.68a3.45,3.45,0,0,0-.26-.51,5.35,5.35,0,0,0-.29-.47,9.6,9.6,0,0,0-1.12-1.18l-1-.68-.22-.15c-.22-.14-.44-.28-.67-.41l-.65-.12c-.58-.06-1.16-.08-1.74-.1H299.07Z" transform="translate(0.03 -0.03)"/><path class="cls-3" d="M378.62,174.05l-1.22,1a4,4,0,1,0,3.14-1.54,3.93,3.93,0,0,0-1.92.5Z" transform="translate(0.03 -0.03)"/><path class="cls-4" d="M396,81.45l-.06.06-28.73,24.26-25.76,21.8v.18a5.1,5.1,0,0,1-3.75,4.89,6.55,6.55,0,0,1-2.15,1.22c-.75.25-1.6.57-2.6,1a47.52,47.52,0,0,0-8.66,5.07,48.26,48.26,0,0,0-7.17,7.12,46.9,46.9,0,0,0-5.19,8.87,48.19,48.19,0,0,0-2.78,10,49.8,49.8,0,0,0,0,10.64,48.27,48.27,0,0,0,2.74,10,47.57,47.57,0,0,0,5.23,9,50.34,50.34,0,0,0,7,7,46.2,46.2,0,0,0,6.65,4.15l.33.17.13.06.14.07.14.07c.41.2.81.39,1.22.57a7.22,7.22,0,0,1,.91.37c.93.37,1.81.68,2.7,1l.15,0h.67l14.4-12.15.21-.18,20.29-17.16q22.16-18.75,44.31-37.44l.35-.3,3.56-3a51.65,51.65,0,0,1-6.51-3.9,46.83,46.83,0,0,1-19.34-29.8,47.22,47.22,0,0,1-.56-13.58,48.25,48.25,0,0,1,1.26-7.17c.21-.8.45-1.57.73-2.36a2.86,2.86,0,0,1,.2-.48l-.06-.11Z" transform="translate(0.03 -0.03)"/><path class="cls-4" d="M402.43,165.56l-.06.05-15.23,12.84-44.46,37.6a5.41,5.41,0,0,1-1.66,1,5.15,5.15,0,0,1-4.18,2.23,5.28,5.28,0,0,1-1.31-.16h-.76a7.4,7.4,0,0,1-1.34.62c-.8.29-1.61.59-2.4.91a39.59,39.59,0,0,0-21,21,48.3,48.3,0,0,0-2.83,10.29,49.61,49.61,0,0,0,0,10.62,39.82,39.82,0,0,0,8,18.95,51.27,51.27,0,0,0,6.91,6.91,47.39,47.39,0,0,0,6.85,4.25l.14.07c.62.31,1.26.61,1.9.89a5.89,5.89,0,0,1,.7.26,5.55,5.55,0,0,1,.56.24l1.42.5h.11l.14.05.32.1.2.06.19.07h.24a5.58,5.58,0,0,1,1.46.69h.51l1.76-1.46,11.77-10,9.76-8q29.37-24.84,58.73-49.64l.28-.23,5.55-4.68A51,51,0,0,1,414,213.52a46.55,46.55,0,0,1-8.46-11.39A45.84,45.84,0,0,1,401,189.28a48.25,48.25,0,0,1-.47-15.12,43.91,43.91,0,0,1,1.44-7c.15-.51.3-1,.49-1.51l-.06-.11Z" transform="translate(0.03 -0.03)"/><path class="cls-4" d="M409.83,245.78h-.06l-71.18,60.27a4.46,4.46,0,0,1-5,.89c-.44.14-.82.29-1.23.45a46.51,46.51,0,0,0-8.85,5.14,49,49,0,0,0-7.14,7.11,47.35,47.35,0,0,0-5.22,8.91,48.92,48.92,0,0,0-2.75,10,50.08,50.08,0,0,0,0,10.67A39.47,39.47,0,0,0,316.14,368a48.58,48.58,0,0,0,7.3,7.32,46.23,46.23,0,0,0,8.43,5,7.12,7.12,0,0,1,.76.31,5.21,5.21,0,0,1,.74.3q.94.34,1.92.66h.12l1.5.45,8.68-7.27,11.75-9.94,38.31-32.41,24.49-20.65,7.65-6.45-.23-.19c-1.2-.84-2.11-1.48-2.91-2.09a43.43,43.43,0,0,1-6.18-5.47,46.94,46.94,0,0,1-8.22-12,52.32,52.32,0,0,1-2.8-7.36,47.94,47.94,0,0,1-1.49-7.89,41.22,41.22,0,0,1-.16-8.31,48.05,48.05,0,0,1,1.24-8,50.15,50.15,0,0,1,2.12-6.45c.2-.47.47-1.08.76-1.67v-.11Z" transform="translate(0.03 -0.03)"/></g><g id="Draw_Layer-2" data-name="Draw Layer-2"><path class="cls-5" d="M240.84,246.71l-1.51.09h-.45c-1,.08-1.92.14-2.81.16-1.32,0-3,.06-4.52.2l-.68.06-2.1.18c-.38,0-.75,0-1.12,0a11,11,0,0,1-1.81-.1l-.72-.08c-.71-.08-1.4-.15-2.09-.19l-2.6-.13-1.15-.09c-.6-.06-1.21-.11-1.81-.13h-4.59c-1.36,0-2.48,0-3.68.1-1,.12-2,.3-3.39.58a32.75,32.75,0,0,1-3.67.64,39.31,39.31,0,0,1-4.06.24q-.65,0-1.29-.06h0v82.09l.23-.21.69-.68,1.52-1.42,7.55-7.36L221.83,306l.09-.07.06-.13a3.68,3.68,0,0,1,.7-1,4,4,0,0,1,5.62,0l9.5,9.47,13,13V247.42h-.13a5.28,5.28,0,0,0-.77-.24l-.33-.07c-.61-.09-1.21-.15-1.81-.2l-.74-.06c-.54,0-1.08-.1-1.62-.12h-2.18c-.73,0-1.65,0-2.48.06Z" transform="translate(0.03 -0.03)"/><path class="cls-2" d="M89.74,207.17a5.26,5.26,0,0,1,1.71-.3,3.76,3.76,0,0,1,1.06.14,4.92,4.92,0,0,1,1.26.62l.09.06a6.37,6.37,0,0,1,.9.64,3.32,3.32,0,0,1,.42.32,3.42,3.42,0,0,0-.49-.58,4.34,4.34,0,0,0-3.12-1.28,4.62,4.62,0,0,0-1.83.38Z" transform="translate(0.03 -0.03)"/><path class="cls-5" d="M69.9,166H68.52l-1.21,0h-.24l.06.07a1.43,1.43,0,0,1,.14.2,4.92,4.92,0,0,1,.78,2.61v59.16h.09l1.69-1.66,9.27-9.16,6.19-6.07,2.15-2.11,0-.07a10.41,10.41,0,0,1,.82-.94l.1-.11.19-.18a3.63,3.63,0,0,1,.93-.5l.21-.07a4.62,4.62,0,0,1,1.83-.38,4.34,4.34,0,0,1,3.12,1.28,3.42,3.42,0,0,1,.49.58l.31.27.15.16.23.22c.37.38.74.75,1.1,1.14l.21.22.12.13c.58.62,1.16,1.25,1.71,1.89l2.06,2.4,1,1.13,1.19,1.16,4.52,4.46.26.26.3.29.21.21.14.14,5.74,5.65.17.16.13.12v-23h0v-9.1l.06-26.52v-.85h-.1l-.47-.1a4.77,4.77,0,0,1-.65-.17l-.27-.09-.28-.08-.39-.13-.2-.06-.19,0-.31-.1c-.39-.1-.78-.21-1.18-.3l-.24-.06-.29-.07-.65-.15h-.13l-.37-.08H109l-.6-.1-.92-.09h-2.87c-.72,0-1.4.06-2.08.11l-.59,0-.47.05h-.86l-1.67.15-1,.08h-.62l-.8.07h-2.3c-1,0-2.08-.07-3.17-.16l-1.42-.12-.69-.05-1.06-.08-.7,0h-.35l-.68-.05L85,167.5h-2.1l-1.57-.15-.84-.11h-.37l-.32-.05-.78-.12h-.25l-.52-.09h-.22l-1.42-.22-1.49-.22h-.49c-.54-.07-1.07-.14-1.61-.19-.23,0-.46,0-.7-.06H70Z" transform="translate(0.03 -0.03)"/><path class="cls-5" d="M91.34,199.92a1.75,1.75,0,0,0-.57,1.21v.1a1.78,1.78,0,0,0-1.35-.23,1.85,1.85,0,0,0-1.13.84,2,2,0,0,0-.79,1h0a1.73,1.73,0,0,0,.7,2c.28.19.57.37.86.54l.37.27L91,206.76l.18.13h.28a3.81,3.81,0,0,1,1.06.14,4.92,4.92,0,0,1,1.26.62l.09.06a6.37,6.37,0,0,1,.9.64,4.6,4.6,0,0,1,.73.59l.15.16.23.22c.37.38.74.75,1.1,1.14l.21.22.12.13c.57.61,1.14,1.23,1.68,1.86a2.94,2.94,0,0,0,.65.16.81.81,0,0,0,.31,0l1,.71c.37.27.75.52,1.12.8a2.18,2.18,0,0,0,1.92.66,1.84,1.84,0,0,0,1.09-.76,1.93,1.93,0,0,0,.24-1.33,2.36,2.36,0,0,0-.6-1.08,4.94,4.94,0,0,0-.56-.56,19,19,0,0,0-1.55-1.43l-1.49-1.38a1.75,1.75,0,0,0-.75-1.12c-.42-.28-.84-.54-1.25-.82a75.66,75.66,0,0,1-5.25-6.47,1.58,1.58,0,0,0-1.25-.56,1.81,1.81,0,0,0-1.22.44Z" transform="translate(0.03 -0.03)"/><path class="cls-3" d="M420.72,143.14a4.19,4.19,0,0,0-2.84,1.18l-40.57,34.07-40.56,34.07a3.84,3.84,0,0,0-1.18,2.84,4,4,0,0,0,4,4,4.21,4.21,0,0,0,2.84-1.18L383,184l40.54-34a3.91,3.91,0,0,0,1.17-2.85,4,4,0,0,0-4-4Z" transform="translate(0.03 -0.03)"/><path class="cls-3" d="M405,66.93a4.23,4.23,0,0,0-2.85,1.18l-49.6,41.65L331,127.92a3.93,3.93,0,0,0-1.17,2.84,4,4,0,0,0,4,4,4.19,4.19,0,0,0,2.84-1.18l27.1-22.76q22-18.54,44.12-37A4,4,0,0,0,405,66.92Z" transform="translate(0.03 -0.03)"/><path class="cls-3" d="M423.76,223.29a4.19,4.19,0,0,0-2.84,1.18l-38.45,32.29-28.28,23.75-20.85,17.54a3.92,3.92,0,0,0-1.18,2.85,3.39,3.39,0,0,0,.1.84,4,4,0,0,0,2.87,4.87,3.83,3.83,0,0,0,1,.13,4.28,4.28,0,0,0,2.85-1.18l24.15-20.24,53.18-44.67a3.88,3.88,0,0,0,1.17-2.82l9-7.55.08-.09a3.88,3.88,0,0,0,1.24-2.88,4,4,0,0,0-4-4Z" transform="translate(0.03 -0.03)"/><path class="cls-3" d="M430.44,303.53a4.19,4.19,0,0,0-2.84,1.18l-.21.17-39.13,32.87-39.12,32.84-15,12.65a3.84,3.84,0,0,0-1.18,2.84,4,4,0,0,0,4,4,4.21,4.21,0,0,0,2.84-1.18l45.41-38.14,45.41-38.14,2.33-2,.11-.09.13-.11.11-.09a3.92,3.92,0,0,0,1.18-2.85,4,4,0,0,0-4-4Z" transform="translate(0.03 -0.03)"/><path class="cls-3" d="M243.85,242.16c-1.94,0-3.85.11-5.62.24-1,.07-2,.1-3,.12h-.8c-1.36,0-2.66.15-4.1.28H230c-.79.06-1.6.12-2.43.12h-.24a12.06,12.06,0,0,1-1.7-.15c-.59-.08-1.09-.15-1.59-.18h-.83c-.85,0-1.69-.07-2.54-.13l-1.15-.08h-.29c-.67,0-1.35-.1-2-.13h-7.09a31.66,31.66,0,0,0-4,.49c-.52.1-1,.21-1.55.33l-1.72.36c-.73.14-1.48.22-2.12.29s-1.56.09-2.34.09h-.85l-1.59-.08-.74,0h-.24a2.67,2.67,0,0,0-.4,0,3.48,3.48,0,0,0-.79.09l-.17.06a4.26,4.26,0,0,0-.8-.08,4.08,4.08,0,0,0-4,4V331.3a4.29,4.29,0,0,0-.07.5,36.06,36.06,0,0,0,0,3.89v2.24a4.86,4.86,0,0,0,.07,1c.07.34.07.61.11.87a4.06,4.06,0,0,0,1.16,2.73,4,4,0,0,0,2.83,1.16,4.06,4.06,0,0,0,2.86-1.16l.61-.59.59-.58,8.29-8.09,15.12-14.74,5.22-5.09L253,340.83l.47.46.46.47a4.1,4.1,0,0,0,2.38,1.14,2.86,2.86,0,0,0,.58.06,2,2,0,0,0,.76-.12l.58-.18.16-.15.3-.28a4.26,4.26,0,0,0,.41-.54,3,3,0,0,0,.36-1.37,4.69,4.69,0,0,0,0-.53v-.12a3.49,3.49,0,0,0-.07-.85v-.3a3.22,3.22,0,0,0-.07-.85c0-.47-.06-.93-.1-1.39v-1.8a30,30,0,0,0,0-3.42v-1.71c0-1.71,0-3.26-.07-4.82l0-1.68a30.33,30.33,0,0,0-.11-3.16,27.12,27.12,0,0,1-.08-2.81c0-.95,0-1.64-.05-2.46a12.29,12.29,0,0,0-.06-1.49V247.6a4.08,4.08,0,0,0-4-4,4,4,0,0,0-1.19.19l-.14-.08a8.2,8.2,0,0,0-2.07-.82,23.37,23.37,0,0,0-3-.46h-.19c-1-.09-2.08-.19-3.14-.22Zm-16.2,5.32a8.4,8.4,0,0,0,1.12,0l2.1-.18.68-.06c1.56-.13,3.2-.17,4.52-.2.89,0,1.78-.09,2.81-.16h.45l1.51-.09c.83,0,1.65-.06,2.48-.06h2.18a14.73,14.73,0,0,1,1.62.13l.74.06c.6,0,1.2.11,1.81.19l.33.08a5.28,5.28,0,0,1,.77.24h.13v79.89l-13.06-13-9.5-9.47a4,4,0,0,0-5.62,0,3.71,3.71,0,0,0-.71,1l0,.12-.08.08-15.06,14.68-7.62,7.37-1.52,1.42-.92.9v-82.1a11.48,11.48,0,0,0,1.31,0,39.54,39.54,0,0,0,4.07-.27,33.92,33.92,0,0,0,3.62-.67c1.36-.28,2.4-.46,3.39-.58,1.2-.09,2.33-.1,3.68-.1h4.61c.6,0,1.21.07,1.81.12.38,0,.77.07,1.15.09.87.06,1.73.1,2.6.14a18.87,18.87,0,0,1,2.09.19l.72.08c.61.06,1.2.1,1.81.1Z" transform="translate(0.03 -0.03)"/><path class="cls-3" d="M63.59,164.41a4.6,4.6,0,0,0-4.53,4.53v69a4.58,4.58,0,0,0,0,1.95v.87c.26.31.51.59.78.86l.43.42a2.57,2.57,0,0,0,.41.26c.2.12.41.23.62.34l.54.18a11.73,11.73,0,0,0,1.77.14H64a9.78,9.78,0,0,0,1.19-.28q.67-.3,1.32-.66l.77-.47q.44-.33.84-.69v-.18l1.44-1.4L71,237.85l2.64-2.6,2.58-2.56,9.37-9.24,5.56-5.4,3.33,3.33.88.87.62.62,3.71,3.65.09.08,9.86,9.73,3.33,3.28.1.1.62.61.89.88.11.09,1.06,1.06a4.62,4.62,0,0,0,3.22,1.31,4.44,4.44,0,0,0,4.44-3.8,4.18,4.18,0,0,0,.4-1.84v-68A4.52,4.52,0,0,0,115,168.7h-.13l-.39-.09a4.85,4.85,0,0,1-.75-.19l-1.44-.44c-.49-.15-1-.27-1.47-.38l-.23-.06h-.16c-.36-.09-.73-.18-1.1-.25a13.24,13.24,0,0,0-2.74-.25h-.3c-.94,0-2,0-3.14.11l-1.71.15h-.69l-.55,0h-.28l-.66.06-.87.07-1.68.14-.69,0H93.53l-1.68-.09-.86-.07h-.65l-1.16-.08H88.11l-1.18-.09a5.43,5.43,0,0,1-1-.06l-1.14-.08-.65-.15h-.4L82.49,167l-1-.11c-1-.13-2-.29-3-.45h-.3c-1-.16-2-.32-3-.45-.56-.07-1.07-.14-1.59-.19l-1.6-.15H69l-2.36.09a4.48,4.48,0,0,0-3-1.15Zm4.46,63.64V169a5.13,5.13,0,0,0-.77-2.61l-.15-.2-.07-.08,1.46-.07h3.91l.7.07c.54.05,1.07.12,1.61.19h.49l1.48.21,1.43.22h.22l.51.08h.26l.78.12.32.06h.37q.42.08.84.12c.52.06,1,.11,1.57.15h2.1l1,.07.69.05h.35l.7,0,1.06.08.69,0,1.42.11c1.09.1,2.12.15,3.17.17h1.65l.65,0,.8-.06h.62l1-.08c.55-.06,1.1-.1,1.66-.15h.92l.48,0,.58-.05c.68,0,1.36-.09,2.08-.11h2.87l.92.09.6.09h.12l.37.08h.13l.66.15.28.07.24.06c.4.09.79.2,1.18.3l.31.1.19,0,.2.06.39.13.28.09.27.08c.27.08.45.13.65.17l.48.1h.09v.85l-.06,26.52v9.82l.07-.8L114.8,210v18.65l-.32-.29-5.73-5.65-.14-.14-.22-.21-.29-.29-.26-.26-4.52-4.46-1.19-1.16-1-1.13c-.69-.79-1.38-1.6-2.06-2.4-.55-.64-1.13-1.27-1.71-1.89l-.12-.13-.21-.22c-.36-.39-.73-.76-1.1-1.14l-.23-.22-.16-.16a4.52,4.52,0,0,0-.72-.59,6.37,6.37,0,0,0-.9-.64l-.09-.06a4.92,4.92,0,0,0-1.26-.62,3.81,3.81,0,0,0-1.06-.14,5.69,5.69,0,0,0-1.92.37,3.63,3.63,0,0,0-.93.5l-.19.18-.1.11a8.12,8.12,0,0,0-.82.94l-.08.11-8.33,8.11-9.27,9.16-1.73,1.7h-.09Z" transform="translate(0.03 -0.03)"/></g><g id="Draw_Layer-3" data-name="Draw Layer-3"><path class="cls-3" d="M276,241.85H175.23a4,4,0,0,0,0,8H276a4,4,0,0,0,0-8Z" transform="translate(0.03 -0.03)"/><path class="cls-3" d="M126.85,163.54H56.45a4,4,0,0,0,0,8.05h70.4a4,4,0,1,0,0-8.05Z" transform="translate(0.03 -0.03)"/><path class="cls-3" d="M387.43,141.58,334.3,186.2a4.12,4.12,0,0,0-1.24,3,4.25,4.25,0,0,0,4.25,4.25h0a4.49,4.49,0,0,0,3-1.25l53.13-44.62a4.08,4.08,0,0,0,1.25-3,4.25,4.25,0,0,0-4.25-4.25,4.53,4.53,0,0,0-3,1.24Z" transform="translate(0.03 -0.03)"/><path class="cls-3" d="M396.27,134.16l-7.8,6.55-5.17,4.34-.08.07-51.24,43a4.13,4.13,0,0,0-1.25,3,4.25,4.25,0,0,0,4.25,4.25,4.53,4.53,0,0,0,3-1.24l.21-.18,60.37-50.7,3.71-3.12a4.07,4.07,0,0,0,1.24-3,4.25,4.25,0,0,0-4.25-4.25h0a4.49,4.49,0,0,0-3,1.25Z" transform="translate(0.03 -0.03)"/><path class="cls-3" d="M401.69,220.22,331,279.59a4.13,4.13,0,0,0-1.25,3,4.25,4.25,0,0,0,4.25,4.25,4.53,4.53,0,0,0,3-1.24l70.69-59.38a4.08,4.08,0,0,0,1.24-3,4.23,4.23,0,0,0-4.21-4.25h0a4.48,4.48,0,0,0-3,1.24Z" transform="translate(0.03 -0.03)"/><path class="cls-3" d="M406.5,302.27l-73.31,61.57a4.13,4.13,0,0,0-1.25,3,4.25,4.25,0,0,0,4.25,4.25h0a4.48,4.48,0,0,0,3-1.24l73.31-61.58a4.13,4.13,0,0,0,1.25-3A4.25,4.25,0,0,0,409.5,301h0a4.48,4.48,0,0,0-3,1.24Z" transform="translate(0.03 -0.03)"/><polygon class="cls-3" points="428.77 270.55 428.77 270.56 428.77 270.55 428.77 270.55 428.77 270.55 428.77 270.55"/></g><g id="Draw_Layer-4" data-name="Draw Layer-4"><path class="cls-5" d="M396.53,4.25c-.17,3.59-.74,7.14-1.07,10.71s-.74,7.24-1.21,10.85c-.05.35-.09.7-.14,1.05a4.24,4.24,0,0,0,6.39,3.67,4,4,0,0,0,2-2.54c.58-4.22,1.08-8.46,1.47-12.71.34-3.67.93-7.34,1.1-11a4.25,4.25,0,1,0-8.5,0Z" transform="translate(0.03 -0.03)"/><path class="cls-5" d="M441.92,9.7a4.69,4.69,0,0,0-2.55,2c-1.19,1.61-2.35,3.23-3.41,4.92s-2.29,3.64-3.48,5.43a131.66,131.66,0,0,0-7.42,11.45,4.33,4.33,0,0,0,1.52,5.82,4.28,4.28,0,0,0,5.82-1.53,128.69,128.69,0,0,1,7.2-11.12c1.23-1.85,2.44-3.72,3.61-5.61s2.27-3.42,3.5-5.07a4,4,0,0,0,.43-3.27,4.25,4.25,0,0,0-5.22-3Z" transform="translate(0.03 -0.03)"/><path class="cls-5" d="M464.71,51.42c-.24.06-.49.11-.74.15-3.4.44-6.76,1-10.1,1.73-3.73.83-7.46,1.59-11.22,2.22a4.09,4.09,0,0,0-2.54,1.95,4.23,4.23,0,0,0,1.51,5.8h0a4.49,4.49,0,0,0,3.27.43c3.31-.54,6.6-1.16,9.87-1.9,2.85-.65,5.72-1.23,8.61-1.67a28.74,28.74,0,0,0,3.59-.52,4.23,4.23,0,0,0-1.19-8.32,4.81,4.81,0,0,0-1.07.12Z" transform="translate(0.03 -0.03)"/></g></g></svg>