<svg xmlns="http://www.w3.org/2000/svg" viewBox="0 0 470.08 393.29"><title>bookmarks2</title><g id="Draw_Layer" data-name="Draw Layer"><path d="M536.22,371h0Z" transform="translate(-280.86 -161.95)" fill="#242424"/><path d="M555.82,457.65l40,0,0,0Z" transform="translate(-280.86 -161.95)" fill="#242424"/><path d="M551.38,544.36l45.63,0,0,0Z" transform="translate(-280.86 -161.95)" fill="#242424"/><path d="M320.84,284.26A49.17,49.17,0,0,0,292.35,301,48.09,48.09,0,0,0,285,312.83a50.87,50.87,0,0,0-2.84,8.38,48.22,48.22,0,0,0-.67,19.15,43.37,43.37,0,0,0,2.19,8.67,50.34,50.34,0,0,0,10.5,17.18,49.15,49.15,0,0,0,7.51,6.51,43.93,43.93,0,0,0,8,4.57c.62.28,1.25.55,1.88.81A47.6,47.6,0,0,0,299,388.78a52,52,0,0,0-4.5,6.3,50,50,0,0,0-4,8.52,47.78,47.78,0,0,0-2.92,15.95,49.55,49.55,0,0,0,1.95,14.5,48.69,48.69,0,0,0,6.66,14,48.3,48.3,0,0,0,11.69,12,39.65,39.65,0,0,0,5,3.21,48.36,48.36,0,0,0-12.77,10.14,47.84,47.84,0,0,0-8.52,13.38,50.59,50.59,0,0,0-2.93,9,53.38,53.38,0,0,0-1.08,8.92,48.68,48.68,0,0,0,9.59,30.6,51.21,51.21,0,0,0,6,6.79,52,52,0,0,0,6.34,5,48.07,48.07,0,0,0,12.38,6l.12,0,.31.1.31.1.21.05c.64.19,1.28.37,1.93.53l.1,0,.16,0h.13l.25.08.14,0,.23,0,.17,0,.1,0,.11,0,.1,0c.72.15,1.45.29,2.18.4l.26,0,.18,0,.16,0,.15,0,.15,0,.45.06.75.1,2.22.25.16,0h.31a1.08,1.08,0,0,0,.19,0h.25a4.57,4.57,0,0,0,2.2-.62H616.7c.17,0,.34,0,.52,0s.35,0,.52,0h.58s0-.11,0-.12a5.17,5.17,0,0,0,3.55-2.88,5,5,0,0,0,.47-1.14,5.25,5.25,0,0,0-.53-4,5,5,0,0,0-3.06-2.37l-.91-.24-.07.06-1.5-.45-.13,0c-.64-.21-1.28-.43-1.91-.67a6,6,0,0,0-.74-.29,5.75,5.75,0,0,0-.76-.31,46.43,46.43,0,0,1-8.43-5,49.05,49.05,0,0,1-7.3-7.32,40,40,0,0,1-7.84-18.86,50.07,50.07,0,0,1,0-10.67,48.4,48.4,0,0,1,2.75-10,47.86,47.86,0,0,1,5.22-8.91,49.4,49.4,0,0,1,7.13-7.11,47.86,47.86,0,0,1,8.86-5.14c.41-.16.79-.31,1.23-.45l.06,0,1.61-.57a5.92,5.92,0,0,0,.86-.34h0a4.62,4.62,0,0,0,.79-.06h.58l0-.15a5.12,5.12,0,0,0,0-9.88v-.23h-.45l-.12.09-.51,0a6.16,6.16,0,0,0-1.46-.7l-.13,0-.11,0-.19-.07-.2-.06-.32-.11-.14,0-.11,0-1.42-.5a3.93,3.93,0,0,0-.56-.24,5.3,5.3,0,0,0-.7-.26c-.64-.28-1.27-.58-1.9-.89l-.14-.07a48.12,48.12,0,0,1-6.85-4.25,51.27,51.27,0,0,1-6.91-6.91,39.75,39.75,0,0,1-8-18.95,49.54,49.54,0,0,1,0-10.61,39.63,39.63,0,0,1,15.15-26.22,47.77,47.77,0,0,1,8.69-5.08c.79-.32,1.6-.61,2.4-.9a8.33,8.33,0,0,0,1.34-.63l.76,0a5.06,5.06,0,0,0,1.31.16,5.15,5.15,0,0,0,4.18-2.22L622,379a5.1,5.1,0,0,0,.85-2.79,5.21,5.21,0,0,0-4.52-5.09l0-.2h-.19L618,371l-.67,0-.15-.05c-.89-.27-1.77-.59-2.7-.95a6.9,6.9,0,0,0-.91-.37c-.41-.18-.81-.38-1.22-.57l-.14-.07-.14-.07-.13-.06-.33-.17a45.84,45.84,0,0,1-6.65-4.15,50,50,0,0,1-7-7,40,40,0,0,1-8-19,50.44,50.44,0,0,1,0-10.64,48.07,48.07,0,0,1,2.78-10A47.49,47.49,0,0,1,598,309a49.27,49.27,0,0,1,7.12-7.1,47.75,47.75,0,0,1,8.67-5.07c1-.41,1.85-.73,2.6-1a6.63,6.63,0,0,0,2.14-1.21,5.11,5.11,0,0,0,3.75-4.9l0-.18,0,0a5.16,5.16,0,0,0-4.06-4.79l0-.11-167,0H324.35a4.86,4.86,0,0,0-2.07-.44,7.83,7.83,0,0,0-1.44.15Zm-6,84.16a48.35,48.35,0,0,1-8.61-5,39.31,39.31,0,0,1-12.18-15.87,48,48,0,0,1-2.65-9.86,39,39,0,0,1,2.71-20.19,45.66,45.66,0,0,1,5.1-8.72,46.94,46.94,0,0,1,6.94-6.94,47.42,47.42,0,0,1,8.89-5.19,46.37,46.37,0,0,1,5.92-1.88,4.54,4.54,0,0,0,1,.1H597.75a40.82,40.82,0,0,0-3.14,2.73,54.51,54.51,0,0,0-5.35,6.17,49.54,49.54,0,0,0-6.58,46.89,48.4,48.4,0,0,0,6.58,12.13,52.28,52.28,0,0,0,7.61,8.21l-151.63,0H323.56a46.32,46.32,0,0,1-8.68-2.51Zm10.27,89-.29-.1-.28-.09-.1,0c-.8-.26-1.56-.53-2.3-.82a4.88,4.88,0,0,0-.94-.38,46.15,46.15,0,0,1-8.29-4.9,39,39,0,0,1-12.14-15.76,46.45,46.45,0,0,1-2.67-9.74,38.7,38.7,0,0,1,7.72-29.06,47.32,47.32,0,0,1,7.11-7.11,46.49,46.49,0,0,1,8.7-5.07,47.72,47.72,0,0,1,7.19-2.2,4.47,4.47,0,0,0,1.93-1H595.18a45.66,45.66,0,0,0-6.87,7.09,54.24,54.24,0,0,0-3.88,5.6,52.67,52.67,0,0,0-3.4,7,48.68,48.68,0,0,0-3.32,14.49,49.84,49.84,0,0,0,1.21,15.27,48,48,0,0,0,5.51,13.64,49.6,49.6,0,0,0,9.76,11.9c.55.48,1.1,1,1.67,1.43l-100.11,0H327.11a5.15,5.15,0,0,0-.94.09l-1-.29Zm3.37,86.79-.16,0-.1,0-.19,0-.1,0-.14,0-.12,0-.22,0-.1,0c-.75-.19-1.5-.4-2.24-.63l-.24-.07-.17,0-.13,0c-1-.32-1.95-.68-3-1.09a46.21,46.21,0,0,1-8.8-5.16,46.76,46.76,0,0,1-6.85-6.86,38.67,38.67,0,0,1-7.85-18.65,47.12,47.12,0,0,1,0-10.35,47.75,47.75,0,0,1,2.66-9.85,46.25,46.25,0,0,1,5.06-8.72,47.86,47.86,0,0,1,7.15-7.15,47,47,0,0,1,8.73-5.08,48,48,0,0,1,8-2.35H596.33a42.12,42.12,0,0,0-3.25,2.92,54.1,54.1,0,0,0-5.35,6.44,48.57,48.57,0,0,0-6.8,13.76,49.84,49.84,0,0,0-2.2,16.79,48.63,48.63,0,0,0,2.8,14.6,52,52,0,0,0,3.67,8.05,53.24,53.24,0,0,0,4.59,6.66,44.43,44.43,0,0,0,7.22,7.24l-114.07,0H331.71a4.94,4.94,0,0,0-1.47.22c-.58-.1-1.15-.21-1.72-.34Z" transform="translate(-280.86 -161.95)" fill="#1f2147"/><path d="M580,217.94H416.11c-3.34.06-6.68.28-10,.39-1.36,0-2.73,0-4.09,0h-2.26c-2.1,0-4.2.06-6.29.18-1.15.07-2.29.15-3.43.24l-.86.53a17.23,17.23,0,0,1-2.19,1.06l-.22.18-80.51,68.1-12.55,10.61a4.45,4.45,0,0,0-1.33,3.22A4.52,4.52,0,0,0,296.9,307a4.76,4.76,0,0,0,3.21-1.33l58.24-49.27,34.91-29.53a3.37,3.37,0,0,0,.9.12H682.43l-30.06,25.38-37,31.24-1.94,1.64-1.93,1.63a4.42,4.42,0,0,0-1.34,3.22,4.54,4.54,0,0,0,4.55,4.54,4.72,4.72,0,0,0,3.2-1.33l4.37-3.7,0-.13,25.76-21.8,28.72-24.26.07-.06h0l.06.11a3.45,3.45,0,0,0-.2.48c-.27.79-.52,1.56-.73,2.36a48.65,48.65,0,0,0-.7,20.76,46,46,0,0,0,3.62,11.19,46.88,46.88,0,0,0,7.16,10.94,46,46,0,0,0,8.56,7.66,48,48,0,0,0,5.77,3.51h0l.67.33h.06l-3.56,3-.35.3q-22.17,18.67-44.31,37.44L632.65,358.7l-.21.18L618,371h-.1l-.76.64a4.43,4.43,0,0,0-1.33,3.21,4.52,4.52,0,0,0,4.54,4.54,4.17,4.17,0,0,0,1.41-.23.76.76,0,0,0,.08-.11,5.79,5.79,0,0,0,1.66-1.05L668,340.4l15.2-12.84.06-.05h0l.06.11c-.19.49-.34,1-.5,1.51a47,47,0,0,0-1.43,7,48.36,48.36,0,0,0,.47,15.12,45.73,45.73,0,0,0,4.52,12.85,46.6,46.6,0,0,0,8.46,11.39,50,50,0,0,0,9.73,7.52l.07,0,.83.46h0l0,0h.05L700,388.23l-.28.23Q670.37,413.26,641,438.1l-9.71,8.21-11.77,10-1.76,1.46h-.1l-4.58,3.88a4.43,4.43,0,0,0-1.33,3.21,4.61,4.61,0,0,0,1.33,3.21,4.2,4.2,0,0,0,1.2.86l.11,0a4.51,4.51,0,0,0,5.05-.89l71.18-60.18.06,0h0l0,.11c-.3.59-.56,1.2-.76,1.67a49.72,49.72,0,0,0-2.13,6.45,47.92,47.92,0,0,0-1.23,8,41.08,41.08,0,0,0,.16,8.32,48.16,48.16,0,0,0,1.49,7.88,51.87,51.87,0,0,0,2.8,7.36,46.79,46.79,0,0,0,8.22,12,43.14,43.14,0,0,0,6.18,5.47c.8.62,1.7,1.25,2.91,2.09l.12.1,0,0h.06L701,473.71l-24.43,20.64-38.32,32.41-11.75,9.94L617.79,544h0l-3,2.5a4.4,4.4,0,0,0-1.33,3.21,4.54,4.54,0,0,0,4.54,4.54,4.76,4.76,0,0,0,3.21-1.33l57.7-48.8,38.44-32.52.22-.29.16-.2.16-.2-.12.06.27-.31c.38-.45.76-.91,1.13-1.38l.56-.69c.26-.35.5-.7.72-1.06a5.21,5.21,0,0,0,.28-.52,6,6,0,0,0,.22-.59c.09-.27.18-.54.25-.82a6.71,6.71,0,0,0-.22-.8c-.13-.24-.27-.47-.42-.7a12.8,12.8,0,0,0-1.3-1.27l-.2-.18-.58-.51-.23,0-.16,0-.13,0-.39-.08-.11,0-.13,0-.1,0-.14-.05-.15-.06-.13,0-.16-.08-.2-.08-.15-.06-.18-.09-.09,0-.19-.09-.13-.06a7.85,7.85,0,0,1-1.82-1.38c-1.24-.75-2.43-1.55-3.56-2.37a38.42,38.42,0,0,1-11.89-15.37,38.1,38.1,0,0,1,0-29.56,45.84,45.84,0,0,1,4.91-8.4c.69-.86,1.38-1.67,2-2.39a6,6,0,0,1,.42-.75,34,34,0,0,1,3.42-4.33l.28-.29.16-.2a9.85,9.85,0,0,1,1.64-1.65c.46-.37.9-.76,1.34-1.16l.45-.41.12-.12a7.23,7.23,0,0,0,.63-.61l.22-.25.12-.14c.13-.15.25-.29.38-.42s.26-.28.4-.42c.34-.35.65-.68.93-1l.08-.1a12.62,12.62,0,0,0,1-1.52l.34-.63.28-.53c.1-.21.2-.41.31-.61l.05-.11.07-.16a16.19,16.19,0,0,0,.79-2.35l0-.15,0-.11,0-.15a9,9,0,0,0,.07-1.1c0-.13,0-.26,0-.39a11,11,0,0,0-.6-1.91,6.18,6.18,0,0,0-.57-.94,3.51,3.51,0,0,0-.51-.51c-.31-.22-.61-.41-.93-.6a27.47,27.47,0,0,1-3.43-.88l-.31-.11a12.35,12.35,0,0,1-2.87-1.25,9.73,9.73,0,0,1-1.59-1.35c-1.16-.71-2.27-1.45-3.28-2.2a45.57,45.57,0,0,1-7-7.05A44.58,44.58,0,0,1,693,357a37.77,37.77,0,0,1-2.66-20.08,44.52,44.52,0,0,1,2.58-9.47,46.3,46.3,0,0,1,5-8.62c.62-.76,1.35-1.59,2.17-2.48.13-.25.28-.49.42-.72l.18-.27.06-.11.07-.1c.29-.46.62-1,1-1.46.56-.76,1.16-1.57,1.79-2.31a17.87,17.87,0,0,1,1.55-1.58c.21-.2.42-.4.62-.61.41-.4.73-.71,1.08-1,.62-.51,1.24-1,1.88-1.49l1.66-1.38a17.89,17.89,0,0,1,1.75-1.29l.36-.25a4.26,4.26,0,0,0,.52-.52l.07-.07.07-.11a6,6,0,0,0,.47-.82,5.74,5.74,0,0,0,.28-1c0-.59,0-1.18,0-1.71v-.19c0-.71,0-1.21-.09-1.67a7.6,7.6,0,0,0-.21-.76,7.76,7.76,0,0,0-.62-1.16,1.06,1.06,0,0,0-.15-.15,3.63,3.63,0,0,0-.51-.28l-.14-.06-.63-.23-.38-.13-.5-.2c-.11,0-.24-.09-.36-.12a7.65,7.65,0,0,1-.74-.3,3.65,3.65,0,0,1-.54-.32l-.15.1-.13.1c-.51-.2-1.06-.4-1.6-.62a4.14,4.14,0,0,0-.79-.33,38.07,38.07,0,0,1-15-11.69,45.25,45.25,0,0,1-5-8.46,44.66,44.66,0,0,1-2.61-9.54,38,38,0,0,1,2.61-20,45.38,45.38,0,0,1,5-8.56,46,46,0,0,1,6.93-6.88,1.94,1.94,0,0,0,.21-.2c.24-.48.48-1,.7-1.45a11.64,11.64,0,0,0,.39-1.18,2.64,2.64,0,0,0,0-.38,4.16,4.16,0,0,0-.1-.91,4.09,4.09,0,0,0,.3-1.56,2.18,2.18,0,0,0,0-.25c-.07-.24-.14-.46-.22-.68s-.17-.34-.26-.51-.19-.32-.29-.47a9.89,9.89,0,0,0-1.12-1.18c-.34-.24-.68-.46-1-.68l-.22-.15c-.22-.14-.44-.28-.67-.41l-.65-.12c-.58-.06-1.16-.08-1.74-.1h-.14l-113.57,0Z" transform="translate(-280.86 -161.95)" fill="#1f2147"/><path d="M659.48,336l-1.22,1a4,4,0,0,0-.86,2.46,4,4,0,1,0,4-4,3.89,3.89,0,0,0-1.92.5Z" transform="translate(-280.86 -161.95)" fill="#1f2147"/><path d="M676.88,243.4a.17.17,0,0,0-.06.06l-28.73,24.26-25.76,21.8,0,.18a5.1,5.1,0,0,1-3.75,4.89,6.62,6.62,0,0,1-2.15,1.22c-.75.25-1.6.57-2.6,1a47.34,47.34,0,0,0-8.66,5.07A48.36,48.36,0,0,0,598,309a47.49,47.49,0,0,0-5.19,8.87,48.07,48.07,0,0,0-2.78,10,50.44,50.44,0,0,0,0,10.64,48.22,48.22,0,0,0,2.74,10,47.23,47.23,0,0,0,5.23,9,50,50,0,0,0,7,7,46.38,46.38,0,0,0,6.65,4.15l.33.17.13.06.14.07.14.07c.41.2.81.39,1.22.57a6.9,6.9,0,0,1,.91.37c.93.37,1.81.68,2.7,1l.15.05.67,0,14.4-12.15.21-.18,20.29-17.16q22.15-18.75,44.31-37.44l.35-.3,3.56-3a51.66,51.66,0,0,1-6.51-3.9,46,46,0,0,1-8.56-7.66,46.56,46.56,0,0,1-7.16-10.94,45.91,45.91,0,0,1-3.62-11.2,47,47,0,0,1-.56-13.58,47.66,47.66,0,0,1,1.26-7.17c.21-.8.45-1.57.73-2.36a3.45,3.45,0,0,1,.2-.48l-.06-.11Z" transform="translate(-280.86 -161.95)" fill="#e1e3fc"/><path d="M683.29,327.51l-.06.05L668,340.4,623.54,378a5.54,5.54,0,0,1-1.66,1,5.13,5.13,0,0,1-4.18,2.23,5.06,5.06,0,0,1-1.31-.16l-.76,0a7.54,7.54,0,0,1-1.34.62c-.8.29-1.61.59-2.4.91a39.6,39.6,0,0,0-21,21,47.82,47.82,0,0,0-2.83,10.29,49.63,49.63,0,0,0,0,10.62,39.75,39.75,0,0,0,8,18.95,51.27,51.27,0,0,0,6.91,6.91,47.23,47.23,0,0,0,6.85,4.25l.14.07c.62.31,1.26.61,1.9.89a5.3,5.3,0,0,1,.7.26,3.93,3.93,0,0,1,.56.24l1.42.5.11,0,.14.05.32.1.2.06.19.07.11,0,.13,0a5.94,5.94,0,0,1,1.46.69l.51,0,1.76-1.46,11.77-10L641,438.1q29.37-24.84,58.73-49.64l.28-.23,5.55-4.68a50.73,50.73,0,0,1-10.69-8.08,46.6,46.6,0,0,1-8.46-11.39,45.73,45.73,0,0,1-4.52-12.85,48.07,48.07,0,0,1-.47-15.12,44.6,44.6,0,0,1,1.44-7c.15-.51.3-1,.49-1.51l-.06-.11Z" transform="translate(-280.86 -161.95)" fill="#e1e3fc"/><path d="M690.69,407.73l-.06,0L619.45,468a4.46,4.46,0,0,1-5.05.89c-.44.14-.82.29-1.23.45a46.82,46.82,0,0,0-8.85,5.14,49,49,0,0,0-7.14,7.11,47.86,47.86,0,0,0-5.22,8.91,48.58,48.58,0,0,0-2.75,10,50.07,50.07,0,0,0,0,10.67A48.53,48.53,0,0,0,592,521.36a48,48,0,0,0,5,8.58,48.58,48.58,0,0,0,7.3,7.32,46.43,46.43,0,0,0,8.43,5,5.75,5.75,0,0,1,.76.31,4.78,4.78,0,0,1,.74.3q.94.34,1.92.66l.12,0,1.5.45,8.68-7.27,11.75-9.94,38.31-32.41L701,473.71l7.65-6.45-.23-.19c-1.2-.84-2.11-1.48-2.91-2.09a43.69,43.69,0,0,1-6.18-5.47,46.79,46.79,0,0,1-8.22-12,51.87,51.87,0,0,1-2.8-7.36,48.08,48.08,0,0,1-1.49-7.89,41,41,0,0,1-.16-8.31,47.84,47.84,0,0,1,1.24-8,50.19,50.19,0,0,1,2.12-6.45c.2-.47.47-1.08.76-1.67l0-.11Z" transform="translate(-280.86 -161.95)" fill="#e1e3fc"/></g><g id="Draw_Layer-2" data-name="Draw Layer"><path d="M521.7,408.66l-1.51.09-.45,0c-1,.08-1.92.14-2.81.16-1.32,0-3,.06-4.52.2l-.68.06-2.1.18c-.38,0-.75.05-1.12.05-.61,0-1.2,0-1.81-.1l-.72-.08c-.71-.08-1.4-.15-2.09-.19l-2.6-.13-1.15-.09c-.6-.06-1.21-.11-1.81-.13H497l-1.35,0h-1.91c-1.36,0-2.48,0-3.68.1-1,.12-2,.3-3.39.58A32.9,32.9,0,0,1,483,410a37.11,37.11,0,0,1-4.06.24,12.29,12.29,0,0,1-1.29-.06h0l0,82.09.23-.21.69-.68,1.52-1.42,7.55-7.36,15.05-14.68.09-.07.06-.13a3.7,3.7,0,0,1,.7-1,4,4,0,0,1,5.62,0l9.5,9.47,13,13V457.39l0-47.84,0-.18h0l-.13,0a5,5,0,0,0-.77-.24l-.33-.07c-.61-.09-1.21-.15-1.81-.2l-.74-.06c-.54-.05-1.08-.1-1.62-.12-.73,0-1.45,0-2.18,0s-1.65,0-2.48.06Z" transform="translate(-280.86 -161.95)" fill="#de5863"/><path d="M370.6,369.12a5.27,5.27,0,0,1,1.71-.3,3.81,3.81,0,0,1,1.06.14,4.91,4.91,0,0,1,1.26.62l.09.06a7.13,7.13,0,0,1,.9.64,3.61,3.61,0,0,1,.42.32,3.42,3.42,0,0,0-.49-.58,4.31,4.31,0,0,0-3.12-1.28,4.54,4.54,0,0,0-1.83.38Z" transform="translate(-280.86 -161.95)" fill="#242424"/><path d="M350.76,327.91h-.64l-.74,0-1.21.05-.24,0,.06.07a1.43,1.43,0,0,1,.14.2,5,5,0,0,1,.78,2.61V390H349l1.69-1.66,9.27-9.16,6.19-6.07L368.3,371l.05-.07a9.52,9.52,0,0,1,.82-.94l.1-.11.19-.18a3.41,3.41,0,0,1,.93-.5l.21-.07a4.54,4.54,0,0,1,1.83-.38,4.31,4.31,0,0,1,3.12,1.28,3.42,3.42,0,0,1,.49.58l.31.27.15.16.23.22c.37.38.74.75,1.1,1.14l.21.22.12.13c.58.62,1.16,1.25,1.71,1.89l2.06,2.4,1,1.13,1.19,1.16,4.52,4.46.26.26.3.29.21.21.14.14,5.74,5.65.17.16.13.12V372l0-2.38v-2h0l0,1.19V358.52l.06-26.52c0-.14,0-.27,0-.43l0-.42-.1,0-.47-.1a4.51,4.51,0,0,1-.65-.17l-.27-.09-.28-.08-.39-.13-.2-.06-.19-.05-.31-.1c-.39-.1-.78-.21-1.18-.3l-.24-.06-.29-.07-.65-.15-.13,0-.37-.08-.12,0-.6-.1-.92-.09H386l-.58,0c-.72,0-1.4.06-2.08.11l-.59.05-.47.05-.35,0h-.17a2,2,0,0,1-.34,0l-1.67.15-1,.08-.62,0-.8.07-.65,0h-.46l-.45,0h-.74c-1.05,0-2.08-.07-3.17-.16l-1.42-.12-.69-.05-1.06-.08-.7-.05-.35,0-.68-.05-1.06-.07-.55,0-.61,0-.31,0-.63,0-1.57-.15-.84-.11-.18,0-.19,0-.32-.05-.78-.12-.25,0-.52-.09-.22,0-1.42-.22-1.49-.22-.24,0-.25,0c-.54-.07-1.07-.14-1.61-.19-.23,0-.46-.05-.7-.06l-.15,0-.57,0c-.55,0-1.1,0-1.65,0Z" transform="translate(-280.86 -161.95)" fill="#de5863"/><path d="M372.2,361.87a1.75,1.75,0,0,0-.57,1.21v.1a1.77,1.77,0,0,0-1.35-.23,1.86,1.86,0,0,0-1.13.84,2,2,0,0,0-.79,1h0a1.74,1.74,0,0,0,.7,2c.28.19.57.37.86.54l.37.27,1.56,1.11.18.13h.28a3.81,3.81,0,0,1,1.06.14,4.91,4.91,0,0,1,1.26.62l.09.06a7.13,7.13,0,0,1,.9.64,4.6,4.6,0,0,1,.73.59l.15.16.23.22c.37.38.74.75,1.1,1.14l.21.22.12.13c.57.61,1.14,1.23,1.68,1.86a3.25,3.25,0,0,0,.65.16,1.06,1.06,0,0,0,.31,0l.95.71c.37.27.75.52,1.12.8a2.19,2.19,0,0,0,1.92.66,1.84,1.84,0,0,0,1.09-.76,1.93,1.93,0,0,0,.24-1.33,2.32,2.32,0,0,0-.6-1.08,5.92,5.92,0,0,0-.56-.56c-.5-.49-1-1-1.55-1.43l-1.49-1.38a1.79,1.79,0,0,0-.75-1.12c-.42-.28-.84-.54-1.25-.82a74.14,74.14,0,0,1-5.25-6.47,1.57,1.57,0,0,0-1.25-.56,1.85,1.85,0,0,0-1.22.44Z" transform="translate(-280.86 -161.95)" fill="#de5863"/><path d="M701.58,305.09a4.18,4.18,0,0,0-2.84,1.18l-40.57,34.07-40.56,34.07a3.87,3.87,0,0,0-1.18,2.84,4,4,0,0,0,4,4,4.23,4.23,0,0,0,2.84-1.18l40.6-34.1,40.54-34a3.92,3.92,0,0,0,1.17-2.85,4,4,0,0,0-4-4Z" transform="translate(-280.86 -161.95)" fill="#1f2147"/><path d="M685.88,228.88a4.22,4.22,0,0,0-2.85,1.18l-49.6,41.65-21.62,18.16a3.91,3.91,0,0,0-1.17,2.84,4,4,0,0,0,4,4,4.23,4.23,0,0,0,2.84-1.18l27.1-22.76q22-18.54,44.12-37.05a4,4,0,0,0,1.18-2.85,4,4,0,0,0-4-4Z" transform="translate(-280.86 -161.95)" fill="#1f2147"/><path d="M704.62,385.24a4.18,4.18,0,0,0-2.84,1.18l-38.45,32.29-28.28,23.75L614.2,460a3.93,3.93,0,0,0-1.18,2.85,3.39,3.39,0,0,0,.1.84,4,4,0,0,0,3.88,5,4.27,4.27,0,0,0,2.85-1.18L644,447.27l53.18-44.67a3.88,3.88,0,0,0,1.17-2.82l9-7.55.08-.09a3.86,3.86,0,0,0,1.24-2.88,4,4,0,0,0-4-4Z" transform="translate(-280.86 -161.95)" fill="#1f2147"/><path d="M711.3,465.48a4.18,4.18,0,0,0-2.84,1.18l-.21.17L669.12,499.7,630,532.54l-15,12.65a3.87,3.87,0,0,0-1.18,2.84,4,4,0,0,0,4,4,4.23,4.23,0,0,0,2.84-1.18l45.41-38.14,45.41-38.14,2.33-2,.11-.09.13-.11.11-.09a3.91,3.91,0,0,0,1.18-2.85,4,4,0,0,0-4-4Z" transform="translate(-280.86 -161.95)" fill="#1f2147"/><path d="M524.71,404.11c-1.94,0-3.85.11-5.62.24-1,.07-2,.1-3,.12l-.8,0c-1.36,0-2.66.15-4.1.28l.17,0-.55,0c-.79.06-1.6.12-2.43.12h-.24a13.76,13.76,0,0,1-1.7-.15c-.59-.08-1.09-.15-1.59-.18l-.83,0c-.85,0-1.69-.07-2.54-.13l-1.15-.08-.29,0c-.67-.05-1.35-.1-2-.13-1.16,0-2.33,0-3.49,0h-1.85c-.58,0-1.16,0-1.75,0a31.09,31.09,0,0,0-4,.49c-.52.1-1,.21-1.55.33s-1.15.25-1.72.36c-.73.14-1.48.22-2.12.29s-1.56.09-2.34.09c-.28,0-.56,0-.85,0l-1.59-.08-.74-.05h-.24a2.75,2.75,0,0,0-.4,0,3.68,3.68,0,0,0-.79.09l-.17.06a4.43,4.43,0,0,0-.8-.08,4.07,4.07,0,0,0-4,4v83.55a4,4,0,0,0-.07.5,33.9,33.9,0,0,0,0,3.89l0,.82,0,.42,0,1c0,.33,0,.66.07,1s.07.61.11.87a4.07,4.07,0,0,0,1.16,2.73,4,4,0,0,0,2.83,1.16,4.06,4.06,0,0,0,2.86-1.16l.61-.59.59-.58,8.29-8.09,15.12-14.74,5.22-5.09,27.45,27.39.47.46.46.47a4.07,4.07,0,0,0,2.38,1.14,2.58,2.58,0,0,0,.58.06,2,2,0,0,0,.76-.12l.58-.18.16-.15a4,4,0,0,0,.3-.28,3.35,3.35,0,0,0,.41-.54,2.92,2.92,0,0,0,.36-1.37,4.7,4.7,0,0,0,0-.53v-.12c0-.28,0-.57-.07-.85l0-.3c0-.33,0-.59-.07-.85,0-.47-.06-.93-.1-1.39l0-.6c0-.4,0-.8,0-1.2.08-1.15.05-2.3,0-3.42q0-.86,0-1.71c0-1.71,0-3.26-.07-4.82L540,484.8c0-1.05,0-2.11-.11-3.16s-.07-1.86-.08-2.81,0-1.64-.05-2.46c0-.5,0-1-.06-1.49V409.55a4.07,4.07,0,0,0-4-4,4,4,0,0,0-1.19.19l-.14-.08a8.21,8.21,0,0,0-2.07-.82,22.3,22.3,0,0,0-3-.46l-.19,0c-1-.09-2.08-.19-3.14-.22Zm-16.2,5.32c.37,0,.75,0,1.12-.05l2.1-.18.68-.06c1.56-.13,3.2-.17,4.52-.2.89,0,1.78-.09,2.81-.16l.45,0,1.51-.09c.83,0,1.65-.06,2.48-.06s1.45,0,2.18,0c.54,0,1.08.07,1.62.13l.74.06c.6.05,1.2.11,1.81.19l.33.08a5.94,5.94,0,0,1,.77.24l.13,0,0,.18,0,47.84v31.87l-13.06-13-9.5-9.47a4,4,0,0,0-5.62,0,4,4,0,0,0-.71,1l-.05.12-.08.08-15.06,14.68L480.06,490l-1.52,1.42-.92.9,0-82.1a12.93,12.93,0,0,0,1.31.05A37,37,0,0,0,483,410a32.9,32.9,0,0,0,3.62-.67c1.36-.28,2.4-.46,3.39-.58,1.2-.09,2.33-.1,3.68-.1h1.91l1.35,0h1.35c.6,0,1.21.07,1.81.12.38,0,.77.07,1.15.09.87.06,1.73.1,2.6.14.69,0,1.38.11,2.09.19l.72.08c.61.06,1.2.1,1.81.1Z" transform="translate(-280.86 -161.95)" fill="#1f2147"/><path d="M344.45,326.36a4.6,4.6,0,0,0-4.53,4.53v69a4.58,4.58,0,0,0,0,1.95v.87c.26.31.51.59.78.86l.43.42a2.85,2.85,0,0,0,.41.26c.2.12.41.23.62.34l.54.18a12,12,0,0,0,1.77.14h.38a8.89,8.89,0,0,0,1.19-.28,13.54,13.54,0,0,0,1.32-.66l.77-.47q.44-.33.84-.69v-.18l1.44-1.4,1.44-1.43,2.64-2.6,2.58-2.56,9.37-9.24L372,380l3.33,3.33.88.87.62.62,3.71,3.65.09.08,9.86,9.73,3.33,3.28.1.1.62.61.89.88.11.09,1.06,1.06a4.58,4.58,0,0,0,3.22,1.31,4.45,4.45,0,0,0,4.44-3.8,4.26,4.26,0,0,0,.4-1.84V332a4.52,4.52,0,0,0-8.84-1.35l-.13,0-.39-.09a4.58,4.58,0,0,1-.75-.19l-1.44-.44c-.49-.15-1-.27-1.47-.38l-.23-.06-.16,0c-.36-.09-.73-.18-1.1-.25a13.67,13.67,0,0,0-2.74-.25h-.3c-.94,0-2,0-3.14.11l-1.71.15-.34,0-.35,0-.55.05-.28,0-.66.06-.87.07-1.68.14-.69.05H376l-.81,0-.8,0-1.68-.09-.86-.07-.21,0-.44,0-1.16-.08-.44,0-.63,0-1.18-.09c-.35,0-.68,0-1-.06l-1.14-.08L365,329l-.4,0-1.25-.09-1-.11c-1-.13-2-.29-3-.45l-.3,0c-1-.16-2-.32-3-.45-.56-.07-1.07-.14-1.59-.19s-1.07-.11-1.6-.15l-.29,0h-2.76l-2.36.09a4.45,4.45,0,0,0-3-1.15ZM348.91,390v-59.1a5.12,5.12,0,0,0-.77-2.61,1.73,1.73,0,0,0-.15-.2l-.07-.08,1.46-.07.74,0h.8c.55,0,1.1,0,1.65,0l.57,0h.15l.7.07c.54.05,1.07.12,1.61.19l.25,0,.24,0,1.48.21,1.43.22.22,0,.51.08.26,0,.78.12.32.06.19,0,.18,0q.42.08.84.12c.52.06,1.05.11,1.57.15l.63,0,.31,0,.61,0,.55,0,1,.07.69.05.35,0,.7.05,1.06.08.69.05,1.42.11c1.09.1,2.12.15,3.17.17h.2l.54,0h.91l.65-.05.8-.06.62,0,1-.08c.55-.06,1.1-.1,1.66-.15l.34,0H382l.35,0,.48-.05.58-.05c.68-.05,1.36-.09,2.08-.11l.58,0h.56l.73,0h1l.92.09.6.09.12,0,.37.08.13,0,.66.15.28.07.24.06c.4.09.79.2,1.18.3l.31.1.19.05.2.06.39.13.28.09.27.08c.27.08.45.13.65.17l.48.1.09,0c0,.13,0,.28,0,.42s0,.29,0,.43l-.06,26.52V368l.07-.8-.07,4.77v18.65l-.32-.29-5.73-5.65-.14-.14-.22-.21-.29-.29-.26-.26-4.52-4.46-1.19-1.16-1-1.13c-.69-.79-1.38-1.6-2.06-2.4-.55-.64-1.13-1.27-1.71-1.89l-.12-.13-.21-.22c-.36-.39-.73-.76-1.1-1.14l-.23-.22-.16-.16a4.17,4.17,0,0,0-.72-.59,7.13,7.13,0,0,0-.9-.64l-.09-.06a4.91,4.91,0,0,0-1.26-.62,3.81,3.81,0,0,0-1.06-.14,5.74,5.74,0,0,0-1.92.37,3.41,3.41,0,0,0-.93.5l-.19.18-.1.11a8.5,8.5,0,0,0-.82.94l-.08.11L360,379.14l-9.27,9.16L349,390l-.12,0Z" transform="translate(-280.86 -161.95)" fill="#1f2147"/></g><g id="Draw_Layer-3" data-name="Draw Layer"><path d="M556.81,403.8H456.09a4,4,0,0,0,0,8H556.81a4,4,0,1,0,0-8Z" transform="translate(-280.86 -161.95)" fill="#1f2147"/><path d="M407.71,325.49h-70.4a4,4,0,0,0,0,8.05h70.4a4,4,0,0,0,0-8.05Z" transform="translate(-280.86 -161.95)" fill="#1f2147"/><path d="M668.29,303.53l-53.13,44.62a4.13,4.13,0,0,0-1.24,3,4.25,4.25,0,0,0,4.25,4.25,4.49,4.49,0,0,0,3-1.25l53.13-44.62a4.08,4.08,0,0,0,1.25-3,4.25,4.25,0,0,0-4.25-4.25,4.51,4.51,0,0,0-3,1.24Z" transform="translate(-280.86 -161.95)" fill="#1f2147"/><path d="M677.13,296.11l-7.8,6.55L664.16,307l-.08.07-51.24,43a4.12,4.12,0,0,0-1.25,3,4.25,4.25,0,0,0,4.25,4.25,4.51,4.51,0,0,0,3-1.24l.21-.18,60.37-50.7,3.71-3.12a4.07,4.07,0,0,0,1.24-3,4.25,4.25,0,0,0-4.25-4.25,4.49,4.49,0,0,0-3,1.25Z" transform="translate(-280.86 -161.95)" fill="#1f2147"/><path d="M682.55,382.17l-70.69,59.37a4.12,4.12,0,0,0-1.25,3,4.25,4.25,0,0,0,4.25,4.25,4.51,4.51,0,0,0,3-1.24l70.69-59.38a4.11,4.11,0,0,0,1.24-3,4.23,4.23,0,0,0-4.25-4.25,4.48,4.48,0,0,0-3,1.24Z" transform="translate(-280.86 -161.95)" fill="#1f2147"/><path d="M687.36,464.22Q650.71,495,614.05,525.79a4.16,4.16,0,0,0-1.25,3,4.25,4.25,0,0,0,4.25,4.25,4.49,4.49,0,0,0,3-1.24l73.31-61.58a4.12,4.12,0,0,0,1.25-3,4.25,4.25,0,0,0-4.25-4.25,4.49,4.49,0,0,0-3,1.24Z" transform="translate(-280.86 -161.95)" fill="#1f2147"/><polygon points="428.75 270.58 428.75 270.59 428.75 270.58 428.75 270.58 428.75 270.58 428.75 270.58" fill="#1f2147"/></g><g id="Draw_Layer-4" data-name="Draw Layer"><path d="M677.39,166.2c-.17,3.59-.74,7.14-1.07,10.71s-.74,7.24-1.21,10.85c-.05.35-.09.7-.14,1.05a4.18,4.18,0,0,0,.58,2.15,4.25,4.25,0,0,0,5.81,1.52,4,4,0,0,0,2-2.54c.58-4.22,1.08-8.46,1.47-12.71.34-3.67.93-7.34,1.1-11a4.25,4.25,0,1,0-8.5,0Z" transform="translate(-280.86 -161.95)" fill="#de5863"/><path d="M722.78,171.65a4.69,4.69,0,0,0-2.55,1.95c-1.19,1.61-2.35,3.23-3.41,4.92s-2.29,3.64-3.48,5.43a131.66,131.66,0,0,0-7.42,11.45,4.33,4.33,0,0,0,1.52,5.82,4.28,4.28,0,0,0,5.82-1.53,127.86,127.86,0,0,1,7.2-11.12c1.23-1.85,2.44-3.72,3.61-5.61s2.27-3.42,3.5-5.07a4,4,0,0,0,.43-3.27,4.24,4.24,0,0,0-4.1-3.12,4.2,4.2,0,0,0-1.12.15Z" transform="translate(-280.86 -161.95)" fill="#de5863"/><path d="M745.57,213.37a6.94,6.94,0,0,1-.74.15c-3.4.44-6.76,1-10.1,1.73-3.73.83-7.46,1.59-11.22,2.22a4.08,4.08,0,0,0-2.54,1.95,4.24,4.24,0,0,0,1.52,5.81,4.49,4.49,0,0,0,3.27.43c3.31-.54,6.6-1.16,9.87-1.9,2.85-.65,5.72-1.23,8.61-1.67a29,29,0,0,0,3.59-.52,4.23,4.23,0,0,0-1.19-8.32,4.81,4.81,0,0,0-1.07.12Z" transform="translate(-280.86 -161.95)" fill="#de5863"/></g></svg>