<?xml version="1.0" encoding="utf-8"?>
<!-- Generator: Adobe Illustrator 22.1.0, SVG Export Plug-In . SVG Version: 6.00 Build 0)  -->
<svg version="1.1" id="Layer_1" xmlns="http://www.w3.org/2000/svg" xmlns:xlink="http://www.w3.org/1999/xlink" x="0px" y="0px"
	 viewBox="0 0 500 1075.4" style="enable-background:new 0 0 500 1075.4;" xml:space="preserve">
<style type="text/css">
	.st0{fill:#E9EDFF;}
	.st1{fill:none;stroke:#B2B2B2;stroke-width:4;stroke-linecap:round;stroke-miterlimit:10;}
	.st2{fill:none;stroke:#B2B2B2;stroke-width:4;stroke-linecap:round;stroke-miterlimit:10;stroke-dasharray:10.1646,20.3293;}
	.st3{fill:none;stroke:#B2B2B2;stroke-width:8;stroke-linecap:round;stroke-linejoin:round;stroke-miterlimit:10;}
	.st4{fill:#FFFFFF;}
	.st5{fill:none;stroke:#E8E8E8;stroke-width:4;stroke-linecap:round;stroke-linejoin:round;stroke-miterlimit:10;}
	.st6{fill:#B2B2B2;}
	.st7{fill:none;stroke:#7B84E6;stroke-width:5;stroke-linecap:round;stroke-miterlimit:10;}
	.st8{fill:none;stroke:#B2B2B2;stroke-width:8.9109;stroke-linecap:round;stroke-linejoin:round;stroke-miterlimit:10;}
	.st9{fill:#FFFFFF;stroke:#B2B2B2;stroke-width:8;stroke-linecap:round;stroke-linejoin:round;stroke-miterlimit:10;}
	.st10{fill:none;stroke:#B2B2B2;stroke-width:8.4748;stroke-linecap:round;stroke-linejoin:round;stroke-miterlimit:10;}
	.st11{fill:none;stroke:#B2B2B2;stroke-width:7.5021;stroke-linecap:round;stroke-linejoin:round;stroke-miterlimit:10;}
</style>
<polygon class="st0" points="149.9,810 389.3,855.2 376.7,867.1 214.3,917.4 "/>
<g>
	<g>
		<path class="st1" d="M255.3,727.1c0,0,1.6-0.8,4.2-2.7"/>
		<path class="st2" d="M274.8,711.1c19.8-21.2,45.3-65.7,29.4-146.5c-24.4-124.2-162.7-94.8-140.8,4.1
			c21.6,97.4,332.2,29.4,164.7-248.4"/>
		<path class="st1" d="M322.9,311.7c-0.9-1.4-1.8-2.8-2.7-4.2"/>
	</g>
</g>
<circle class="st0" cx="271" cy="962.8" r="24.4"/>
<circle class="st0" cx="373.4" cy="931.2" r="24.4"/>
<g>
	<path class="st3" d="M58.5,794.3l69.2-21.4L227,938.7c2.9,4.8,8.6,7,14,5.3l165.4-51.1"/>
	<path class="st3" d="M214.3,917.4l162.5-50.2c7.9-2.4,13.4-9.6,13.8-17.9l4.7-115.2L149.9,810"/>
	<line class="st3" x1="193.1" y1="882.1" x2="391.7" y2="820.7"/>
	<line class="st3" x1="170.9" y1="845" x2="219.7" y2="829.9"/>
	<line class="st3" x1="254.8" y1="819" x2="392.2" y2="776.5"/>
	<line class="st3" x1="315.7" y1="758.7" x2="337.1" y2="879.4"/>
	<line class="st3" x1="245.1" y1="841.5" x2="269.5" y2="900.3"/>
	<line class="st3" x1="222.7" y1="787.5" x2="232.2" y2="810.4"/>
	<circle class="st3" cx="271" cy="962.8" r="26.8"/>
	<circle class="st4" cx="271" cy="962.8" r="11.1"/>
	<circle class="st4" cx="373.4" cy="931.2" r="11.1"/>
	<circle class="st3" cx="373.4" cy="931.2" r="26.8"/>
</g>
<line class="st5" x1="19.8" y1="1003" x2="373.2" y2="1003"/>
<line class="st5" x1="458.5" y1="1003" x2="389" y2="1003"/>
<line class="st5" x1="485.5" y1="1003.1" x2="473.3" y2="1003.1"/>
<circle class="st6" cx="237.8" cy="825.1" r="4.4"/>
<line class="st7" x1="294.1" y1="232.3" x2="292.3" y2="238.4"/>
<line class="st7" x1="287.3" y1="255.4" x2="285.5" y2="261.5"/>
<line class="st7" x1="275.4" y1="242.6" x2="281.5" y2="244.4"/>
<line class="st7" x1="297.9" y1="249.2" x2="304.2" y2="251.1"/>
<circle class="st7" cx="234.5" cy="207.9" r="8.4"/>
<path class="st7" d="M278.4,154.1c0,0,5.1,4.8,1.5,19.4"/>
<path class="st7" d="M295.4,165.4c0,0,11.4-21.3,25.5-22.5"/>
</svg>