<svg width="1380" height="1359" viewBox="0 0 1380 1359" fill="none" xmlns="http://www.w3.org/2000/svg">
<path d="M511.354 377.91L501.588 375.369L151.088 689.369L232.088 1111.87L917.088 1327.87L1222.59 1006.37L1312.59 586.369L975.044 498.549C962.614 531 943.369 560.079 919.061 584.033L971.818 916.472C975.262 942.744 979.082 960.834 984.24 985.263C984.46 986.309 984.684 987.367 984.91 988.437H983.239L997.273 1076.87L981.592 1076.24C942.043 1167.38 843.754 1229.44 731.91 1229.44C612.137 1229.44 507.554 1158.08 474.588 1056.07L459.588 1055.48L480.176 965.68C481.921 950.089 485.438 934.974 490.535 920.501L570.216 572.969C532.09 530.34 508.91 474.061 508.91 412.369C508.91 400.669 509.743 389.164 511.354 377.91Z" fill="#CF263A"/>
<path d="M540.602 385.519C539.485 394.312 538.91 403.273 538.91 412.369C538.91 458.447 553.68 501.075 578.744 535.778L581.177 525.167L619.757 567.041C640.729 589.804 667.418 607.156 697.548 616.821C714.291 621.096 731.835 623.369 749.91 623.369C781.777 623.369 811.995 616.304 839.081 603.655C850.908 597.239 861.941 589.541 871.999 580.745L912.868 545.005L913.055 546.186C926.611 529.678 937.711 511.077 945.795 490.939L540.602 385.519Z" fill="#CF263A"/>
<path d="M864.876 623C832.445 643.321 794.094 655.069 753 655.069C704.376 655.069 659.593 638.621 623.912 610.987C620.079 609.535 610.612 607.831 603.412 612.631C596.212 617.431 586.628 641.298 582.736 652.631L497.961 1026.61C518.389 1124.74 615.403 1199.07 732 1199.07C841.178 1199.07 933.185 1133.9 961.224 1045.04L899.787 653.601C895.985 642.305 890.803 629.726 886.118 626.114C879.519 621.025 869.139 621.873 864.876 623Z" fill="#4A52F4"/>
<path fill-rule="evenodd" clip-rule="evenodd" d="M928.571 134.669C928.651 137.43 926.479 139.732 923.719 139.813C907.775 140.277 892.277 142.642 877.196 146.672C874.528 147.385 871.787 145.8 871.074 143.132C870.361 140.464 871.946 137.724 874.614 137.011C890.41 132.79 906.677 130.305 923.428 129.817C926.188 129.737 928.491 131.909 928.571 134.669ZM937.827 134.835C938.004 132.079 940.382 129.989 943.137 130.166C952.781 130.786 962.57 132.071 972.506 134.062C975.214 134.605 976.969 137.24 976.426 139.948C975.883 142.655 973.248 144.41 970.541 143.867C961.035 141.962 951.688 140.736 942.496 140.146C939.74 139.968 937.65 137.591 937.827 134.835ZM1003.91 147.836C1004.87 145.246 1007.75 143.926 1010.34 144.885C1017.86 147.673 1025.45 150.865 1033.13 154.476C1040.42 157.904 1047.4 161.422 1054.11 165.022C1056.54 166.328 1057.45 169.359 1056.15 171.792C1054.84 174.225 1051.81 175.138 1049.37 173.831C1042.83 170.318 1036 166.879 1028.87 163.524C1021.44 160.029 1014.11 156.948 1006.86 154.262C1004.27 153.302 1002.95 150.425 1003.91 147.836ZM844.171 152.849C845.313 155.363 844.2 158.327 841.686 159.469C833.144 163.347 824.738 167.746 816.462 172.618C814.082 174.018 811.018 173.225 809.617 170.845C808.216 168.465 809.01 165.401 811.389 164C819.948 158.962 828.667 154.398 837.551 150.363C840.065 149.222 843.029 150.334 844.171 152.849ZM801.766 175.811C803.31 178.1 802.706 181.208 800.417 182.752C787.545 191.436 775.003 201.23 762.776 211.94C760.699 213.76 757.54 213.551 755.72 211.474C753.901 209.396 754.11 206.237 756.187 204.418C768.688 193.467 781.562 183.41 794.825 174.462C797.114 172.918 800.222 173.522 801.766 175.811ZM1063.67 176.056C1065.09 173.688 1068.16 172.919 1070.53 174.339C1078.88 179.346 1086.73 184.488 1094.11 189.744C1096.36 191.346 1096.88 194.468 1095.28 196.717C1093.68 198.966 1090.56 199.491 1088.31 197.889C1081.15 192.79 1073.52 187.792 1065.38 182.916C1063.02 181.496 1062.25 178.424 1063.67 176.056ZM1116.37 213.687C1118.23 211.65 1121.39 211.51 1123.43 213.374C1135.82 224.716 1146.39 236.409 1155.38 248.278C1157.05 250.479 1156.61 253.615 1154.41 255.282C1152.21 256.949 1149.07 256.515 1147.41 254.314C1138.79 242.938 1128.63 231.692 1116.68 220.751C1114.64 218.886 1114.5 215.724 1116.37 213.687ZM734.93 231.23C736.904 233.162 736.939 236.327 735.008 238.301C728.374 245.082 721.839 252.105 715.402 259.332C713.566 261.395 710.405 261.577 708.343 259.741C706.281 257.904 706.098 254.744 707.935 252.682C714.467 245.347 721.108 238.21 727.86 231.308C729.791 229.334 732.957 229.299 734.93 231.23ZM1159.29 262.279C1161.62 260.794 1164.71 261.476 1166.19 263.804C1171.48 272.079 1176.05 280.396 1179.98 288.696C1181.17 291.191 1180.1 294.173 1177.61 295.357C1175.11 296.541 1172.13 295.478 1170.95 292.983C1167.19 285.054 1162.82 277.103 1157.76 269.184C1156.28 266.857 1156.96 263.765 1159.29 262.279ZM702.265 266.76C704.376 268.541 704.644 271.695 702.863 273.806C692.646 285.917 682.683 298.5 672.961 311.4C671.299 313.605 668.164 314.046 665.958 312.384C663.753 310.722 663.313 307.587 664.975 305.381C674.791 292.356 684.868 279.628 695.219 267.358C697 265.247 700.154 264.979 702.265 266.76ZM284.162 304.345C276.334 303.082 267.771 302.747 258.392 303.484C250.835 304.079 243.523 305.684 236.436 308.222C233.836 309.153 230.974 307.8 230.043 305.2C229.112 302.6 230.465 299.738 233.065 298.807C240.958 295.981 249.138 294.182 257.608 293.515C267.7 292.721 277.064 293.071 285.754 294.472C288.48 294.912 290.333 297.478 289.894 300.204C289.454 302.931 286.888 304.784 284.162 304.345ZM300.835 303.296C301.917 300.755 304.853 299.572 307.394 300.654C318.118 305.218 327.412 311.697 335.471 319.668C337.434 321.61 337.451 324.776 335.509 326.739C333.567 328.702 330.402 328.719 328.438 326.777C321.204 319.621 312.949 313.886 303.478 309.855C300.937 308.773 299.754 305.837 300.835 303.296ZM205.776 319.408C207.521 321.548 207.201 324.698 205.061 326.443C198.238 332.007 191.629 338.498 185.225 345.833C183.41 347.914 180.251 348.128 178.171 346.312C176.09 344.496 175.876 341.338 177.692 339.257C184.411 331.56 191.421 324.662 198.741 318.693C200.881 316.948 204.031 317.268 205.776 319.408ZM1187.11 320.736C1189.77 319.99 1192.53 321.541 1193.27 324.199C1197.79 340.306 1200.27 355.99 1201.33 370.793C1201.53 373.547 1199.45 375.94 1196.7 376.137C1193.94 376.335 1191.55 374.262 1191.35 371.507C1190.34 357.308 1187.97 342.295 1183.65 326.901C1182.9 324.243 1184.45 321.482 1187.11 320.736ZM649.122 335.562C651.382 337.15 651.926 340.268 650.339 342.528C644.803 350.408 639.349 358.354 633.974 366.335C632.432 368.626 629.325 369.232 627.034 367.69C624.744 366.148 624.137 363.04 625.68 360.75C631.087 352.72 636.578 344.719 642.157 336.779C643.744 334.52 646.863 333.975 649.122 335.562ZM172.495 353.434C174.719 355.072 175.193 358.202 173.556 360.425C164.852 372.241 156.586 385.596 148.727 400.216C147.419 402.648 144.388 403.56 141.955 402.252C139.523 400.945 138.611 397.913 139.919 395.481C147.954 380.533 156.467 366.763 165.504 354.494C167.142 352.271 170.272 351.796 172.495 353.434ZM353.953 354C356.447 352.815 359.43 353.876 360.615 356.37C368.062 372.036 373.626 389.691 377.925 408.234C378.548 410.924 376.873 413.611 374.183 414.234C371.493 414.858 368.806 413.183 368.183 410.493C363.988 392.399 358.626 375.48 351.584 360.662C350.398 358.168 351.459 355.186 353.953 354ZM621.867 375.46C624.174 376.977 624.815 380.078 623.298 382.385C614.4 395.916 605.727 409.48 597.264 422.923C595.793 425.26 592.706 425.962 590.369 424.491C588.032 423.02 587.33 419.933 588.802 417.596C597.289 404.113 605.999 390.491 614.942 376.891C616.459 374.583 619.56 373.943 621.867 375.46ZM1196.98 384.745C1199.74 384.757 1201.97 387.006 1201.96 389.767C1201.92 399.817 1201.28 409.31 1200.29 418.075C1199.98 420.819 1197.5 422.791 1194.76 422.481C1192.01 422.17 1190.04 419.694 1190.35 416.95C1191.31 408.511 1191.92 399.381 1191.96 389.723C1191.97 386.961 1194.22 384.733 1196.98 384.745ZM376.474 425.501C379.192 425.012 381.792 426.818 382.281 429.536C384.187 440.126 385.779 450.9 387.155 461.678C387.505 464.417 385.568 466.921 382.829 467.271C380.089 467.62 377.585 465.683 377.236 462.944C375.876 452.294 374.308 441.693 372.439 431.308C371.95 428.59 373.756 425.99 376.474 425.501ZM129.589 427.62C132.111 428.745 133.243 431.701 132.118 434.223C128.346 442.679 124.681 451.41 121.118 460.375C120.098 462.941 117.191 464.194 114.625 463.174C112.059 462.155 110.805 459.248 111.825 456.681C115.434 447.601 119.152 438.742 122.986 430.149C124.111 427.627 127.067 426.495 129.589 427.62ZM575.195 448.854C577.544 450.307 578.27 453.388 576.818 455.737C573.434 461.209 570.086 466.633 566.772 472.005C565.036 474.819 563.308 477.62 561.589 480.404C560.138 482.754 557.057 483.482 554.708 482.032C552.358 480.581 551.629 477.5 553.08 475.15C554.794 472.374 556.519 469.579 558.253 466.768C561.571 461.391 564.925 455.955 568.313 450.477C569.765 448.128 572.847 447.402 575.195 448.854ZM1189.81 449.179C1192.48 449.877 1194.08 452.609 1193.39 455.281C1191.54 462.358 1189.73 467.981 1188.39 471.854C1187.71 473.791 1187.15 475.291 1186.76 476.318C1186.56 476.832 1186.4 477.227 1186.29 477.5C1186.23 477.636 1186.19 477.741 1186.16 477.816L1186.12 477.904L1186.11 477.93L1186.11 477.939L1186.11 477.942L1186.11 477.943C1186.11 477.944 1186.11 477.944 1181.5 476L1186.11 477.944C1185.03 480.488 1182.1 481.68 1179.56 480.606M1189.81 449.179C1187.14 448.481 1184.41 450.081 1183.71 452.753ZM1183.71 452.753C1181.94 459.548 1180.21 464.917 1178.94 468.567ZM1178.94 468.567C1178.31 470.392 1177.79 471.787 1177.43 472.714ZM1177.43 472.714C1177.25 473.177 1177.11 473.524 1177.02 473.749ZM1177.02 473.749L1176.97 473.873ZM1176.97 473.873L1176.92 473.995ZM1176.92 473.995L1176.9 474.049ZM1176.9 474.049L1176.89 474.056ZM111.362 471.684C113.951 472.644 115.271 475.522 114.31 478.111C108.924 492.629 103.784 507.65 98.8706 523.014C98.0294 525.644 95.2152 527.094 92.5851 526.253C89.9549 525.412 88.5046 522.598 89.3458 519.968C94.2992 504.48 99.4882 489.313 104.935 474.632C105.895 472.043 108.773 470.723 111.362 471.684ZM549.811 489.949C552.157 491.406 552.878 494.488 551.421 496.835C542.565 511.1 533.95 524.823 525.562 537.752C524.059 540.069 520.962 540.728 518.646 539.225C516.329 537.722 515.67 534.626 517.173 532.309C525.508 519.462 534.083 505.804 542.925 491.56C544.382 489.214 547.464 488.493 549.811 489.949ZM386.315 500.079C389.065 499.825 391.5 501.847 391.755 504.596C392.338 510.884 392.889 517.077 393.429 523.15C394.512 535.319 395.551 547.004 396.718 557.987C397.01 560.733 395.021 563.195 392.275 563.487C389.529 563.779 387.066 561.789 386.774 559.044C385.598 547.978 384.546 536.145 383.458 523.922C382.92 517.868 382.373 511.719 381.798 505.52C381.543 502.77 383.565 500.334 386.315 500.079ZM84.3996 553.194C87.0521 553.962 88.5797 556.735 87.8116 559.388C85.1754 568.492 82.6095 577.666 80.1098 586.879C79.3867 589.544 76.6401 591.119 73.975 590.396C71.3099 589.673 69.7356 586.926 70.4587 584.261C72.9719 574.997 75.553 565.769 78.2062 556.606C78.9743 553.954 81.7471 552.426 84.3996 553.194ZM502.721 562.92C504.977 564.512 505.516 567.632 503.925 569.888C497.97 578.33 492.12 586.234 486.367 593.493C484.652 595.658 481.507 596.022 479.343 594.307C477.179 592.592 476.814 589.447 478.529 587.283C484.141 580.201 489.879 572.452 495.753 564.124C497.345 561.868 500.464 561.329 502.721 562.92ZM393.661 575.007C396.394 574.615 398.928 576.513 399.321 579.246C401.032 591.159 403.065 601.498 405.676 609.849C406.5 612.485 405.031 615.29 402.395 616.113C399.76 616.937 396.955 615.469 396.131 612.833C393.289 603.741 391.165 592.801 389.422 580.667C389.03 577.934 390.927 575.4 393.661 575.007ZM71.6404 599.177C74.3124 599.874 75.9134 602.605 75.2164 605.277C71.1991 620.677 67.3585 636.127 63.6757 651.484C63.0318 654.169 60.3329 655.824 57.6476 655.18C54.9623 654.536 53.3075 651.837 53.9514 649.152C57.647 633.742 61.5037 618.227 65.5402 602.753C66.2372 600.081 68.9684 598.48 71.6404 599.177ZM473.355 601.471C475.409 603.316 475.578 606.477 473.733 608.532C467.839 615.093 462.011 620.901 456.239 625.809C446.999 633.667 438.731 638.673 431.242 640.69C428.576 641.408 425.832 639.828 425.114 637.162C424.396 634.496 425.975 631.752 428.641 631.034C434.067 629.572 441.005 625.638 449.761 618.191C455.111 613.641 460.619 608.167 466.294 601.849C468.139 599.795 471.3 599.625 473.355 601.471ZM51.2566 682.579C53.9491 683.191 55.6351 685.871 55.0224 688.563C52.8819 697.969 50.797 707.292 48.7628 716.499C48.1671 719.195 45.4983 720.898 42.8019 720.302C40.1055 719.707 38.4025 717.038 38.9983 714.341C41.0362 705.117 43.1258 695.773 45.2717 686.344C45.8845 683.652 48.564 681.966 51.2566 682.579ZM40.8679 729.127C43.566 729.714 45.277 732.378 44.6894 735.076C41.7778 748.446 38.9719 761.505 36.2551 774.149C35.7086 776.693 35.1658 779.219 34.6264 781.728C34.046 784.428 31.3869 786.146 28.6872 785.565C25.9874 784.985 24.2694 782.326 24.8498 779.626C25.3892 777.117 25.9323 774.589 26.4792 772.044C29.1955 759.402 32.0043 746.33 34.9184 732.948C35.506 730.25 38.1697 728.539 40.8679 729.127ZM22.726 813.087C25.4229 813.681 27.128 816.348 26.5344 819.045C24.3796 828.835 22.2762 838.22 20.2156 847.128C19.5932 849.818 16.9077 851.495 14.2173 850.872C11.5269 850.25 9.8505 847.565 10.4729 844.874C12.523 836.012 14.6182 826.663 16.7681 816.895C17.3617 814.198 20.0292 812.493 22.726 813.087ZM12.1186 859.727C14.8006 860.384 16.442 863.091 15.7847 865.773C13.7658 874.011 11.7807 881.722 9.81994 888.83C9.0856 891.492 6.33233 893.054 3.67034 892.32C1.00834 891.586 -0.554324 888.832 0.180018 886.17C2.1089 879.178 4.06971 871.563 6.07213 863.393C6.72944 860.711 9.43653 859.069 12.1186 859.727Z" fill="#B2B2B2"/>
<path fill-rule="evenodd" clip-rule="evenodd" d="M898.324 1348.59L261.5 1141.26C255.833 1139.41 241.7 1132.98 230.5 1122C219.3 1111.02 213.411 1097.09 211.867 1091.5L124.333 682.099C123.751 680.437 122.688 676.213 123.088 672.613C123.488 669.013 124.316 667.321 124.68 666.925L415.088 179.613C415.436 179.052 415.812 178.424 416.214 177.75C419.276 172.626 423.901 164.887 430.088 164.113C438.82 163.022 444.088 170.113 445.088 173.113L517.963 347.102C513.894 362.424 511.298 378.346 510.333 394.707L181.588 698.869L966.588 956.869L971.671 951.311L1094.74 549.78L968.413 513.037C973.334 502.757 977.547 492.075 980.99 481.052L1102.69 514.078L1155.09 343.113L1187.59 327.113L1324.46 572.697C1324.76 573.406 1325 574.221 1325 575C1325 576.6 1324.65 579.585 1324.47 580.878L1247.08 989.419C1245.61 995.431 1243.53 1003.22 1241 1009C1238.82 1013.98 1226 1030.81 1226 1030.81C1226 1030.81 1037.46 1237.61 941 1343.4L927.588 1358.11C927.588 1358.11 939.536 1344.99 944.852 1339.16C941.58 1342.69 933.386 1347.86 926 1349.5C917.114 1351.47 906.766 1350.79 898.324 1348.59ZM207.195 614.332L482.918 386.148L431.088 216.869L207.195 614.332ZM1177.59 364.369L1133.72 525.214L1268.17 561.7L1177.59 364.369ZM1036.99 879.884L1124.65 558.478L1287.59 605.869L1036.99 879.884Z" fill="#F04B5F"/>
<path d="M939.155 504.527C944.24 494.514 948.55 484.04 952.006 473.186L545.022 362.737C543.123 371.207 541.732 379.869 540.885 388.691L939.155 504.527Z" fill="#F04B5F"/>
<path d="M224 831L968.835 1086.86" stroke="#CF263A" stroke-width="20" stroke-dasharray="30 20 50 80"/>
<path d="M1003 1041.02L1253.6 767" stroke="#CF263A" stroke-width="20" stroke-dasharray="30 20 50 80"/>
<path d="M1196.54 247.948C1186.92 283.938 1149.97 305.293 1114.03 295.647C1078.09 286 1056.76 249.005 1066.39 213.016C1076.01 177.026 1112.96 155.671 1148.9 165.317C1184.84 174.963 1206.17 211.958 1196.54 247.948Z" fill="#1F204A"/>
<path d="M1112.31 305.799C1124.98 309.201 1137.78 308.747 1149.46 305.156C1150.87 305.161 1154.14 305.758 1155.76 307.876C1156.9 309.379 1157.46 313.693 1157.7 317.496L1144.31 443.473C1128.32 468.595 1094.56 481.107 1060.89 472.069C1027.96 463.232 1005.24 436.508 1003.03 407.5C1002.97 405.5 1002.95 401.1 1003.35 399.5C1003.62 398.444 1004.4 396.736 1005.12 395.31L1006.09 393.459L1060 290.952C1062.13 287.774 1067.06 281.197 1069.68 280.31C1072.29 279.424 1075.07 280.734 1076.14 281.499C1084.86 292.988 1097.31 301.774 1112.31 305.799Z" fill="#1F204A"/>
<path d="M675.803 53.4323C685.03 91.0267 662.119 128.964 624.63 138.168C587.141 147.371 549.269 124.356 540.042 86.7619C530.815 49.1676 553.726 11.2303 591.216 2.02654C628.705 -7.17718 666.576 15.838 675.803 53.4323Z" fill="#414653"/>
<path d="M628.134 148.276C641.355 145.031 652.762 138.212 661.587 129.095C662.869 128.395 666.141 127.301 668.667 128.422C670.46 129.217 673.123 132.866 675.241 136.21L726 257.639C724.015 288.519 699.576 316.812 664.453 325.434C630.108 333.866 596.111 320.898 579.608 295.587C578.555 293.795 576.341 289.797 575.905 288.14C575.617 287.046 575.477 285.099 575.416 283.442L575.376 281.268L573.166 160.938C573.521 156.974 574.714 148.517 576.65 146.4C578.587 144.283 581.767 144.085 583.115 144.25C596.782 150.348 612.491 152.117 628.134 148.276Z" fill="#414653"/>
<circle cx="749.588" cy="412.369" r="211" fill="#4A52F4"/>
<path d="M1154.5 342.942L966 957.942L1014.5 949.442L1175 360.942L1281 591L1318.5 562.5L1187 326.942C1185.33 325.609 1178.6 319.742 1171 322.942C1157.5 328.627 1157.33 338.942 1154.5 342.942Z" fill="#F04B5F"/>
<path fill-rule="evenodd" clip-rule="evenodd" d="M1155 110C1161.63 110 1167 104.627 1167 98C1167 91.3726 1161.63 86 1155 86C1148.37 86 1143 91.3726 1143 98C1143 104.627 1148.37 110 1155 110ZM1155 120C1167.15 120 1177 110.15 1177 98C1177 85.8497 1167.15 76 1155 76C1142.85 76 1133 85.8497 1133 98C1133 110.15 1142.85 120 1155 120Z" fill="#7C86E0"/>
<path fill-rule="evenodd" clip-rule="evenodd" d="M1306 224C1308.21 225.657 1308.66 228.791 1307 231L1292 251C1290.34 253.209 1287.21 253.657 1285 252C1282.79 250.343 1282.34 247.209 1284 245L1299 225C1300.66 222.791 1303.79 222.343 1306 224ZM1244 234C1245.66 231.791 1248.79 231.343 1251 233L1271 248C1273.21 249.657 1273.66 252.791 1272 255C1270.34 257.209 1267.21 257.657 1265 256L1245 241C1242.79 239.343 1242.34 236.209 1244 234ZM1289 264C1290.66 261.791 1293.79 261.343 1296 263L1316 278C1318.21 279.657 1318.66 282.791 1317 285C1315.34 287.209 1312.21 287.657 1310 286L1290 271C1287.79 269.343 1287.34 266.209 1289 264ZM1276 266C1278.21 267.657 1278.66 270.791 1277 273L1262 293C1260.34 295.209 1257.21 295.657 1255 294C1252.79 292.343 1252.34 289.209 1254 287L1269 267C1270.66 264.791 1273.79 264.343 1276 266Z" fill="#7C86E0"/>
<path fill-rule="evenodd" clip-rule="evenodd" d="M1257.83 66.161C1255.16 66.8562 1253.56 69.5862 1254.25 72.2587C1262.75 104.913 1240.26 132.359 1217.76 149.718C1215.58 151.405 1215.17 154.545 1216.86 156.731C1218.54 158.918 1221.68 159.323 1223.87 157.636C1246.91 139.858 1274.07 108.704 1263.93 69.7413C1263.24 67.0688 1260.51 65.4658 1257.83 66.161Z" fill="#7C86E0"/>
<path fill-rule="evenodd" clip-rule="evenodd" d="M1291.3 152.753C1267.16 160.205 1247.08 174.879 1236.1 186.025C1234.16 187.992 1230.99 188.015 1229.03 186.077C1227.06 184.138 1227.04 180.973 1228.97 179.006C1240.91 166.897 1262.36 151.22 1288.35 143.198C1314.47 135.132 1345.41 134.761 1375.55 153.838C1377.88 155.315 1378.57 158.404 1377.1 160.737C1375.62 163.07 1372.53 163.765 1370.2 162.288C1343.07 145.115 1315.29 145.343 1291.3 152.753Z" fill="#7C86E0"/>
</svg>
