<svg xmlns="http://www.w3.org/2000/svg" viewBox="0 0 593.95 634.81"><title>Subscriptions</title><g id="Layer_2" data-name="Layer 2"><g id="Draw_Layer" data-name="Draw Layer"><path d="M243.61,56H122a4.84,4.84,0,0,0-4.77,4.78v142L97,225.18,73.44,251.26l-1.18,1.31-1,1.1-1.88,2.08-1.9,2.11-3.57,4L60.12,266a5.12,5.12,0,0,0-1.55,3.31,4.78,4.78,0,0,0,1.24,3.43,4.64,4.64,0,0,0,.7.63l0,1.69v1.71l0,139.27v79.13l-.13.15c0,1.14,0,2.27,0,3.39,0,.93,0,1.86,0,2.79v1.88a4.62,4.62,0,0,0,2.53.75H338.6c-.29-1.62-.58-3.18-.81-4.66l0-.1-.06-.37,0-.12,0-.13,0-.13,0-.13,0-.2,0-.2,0-.11c-.17-1.12-.33-2.25-.46-3.37L197,494.6H70l0-135.46v-77.9l44,20.62a3.79,3.79,0,0,1,1.09.37l.09,0,.16.08.33.16.29.14.15.07.13.06.13.07.21.1.21.1.26.13.68.32,1.32.63.13.06.23.11c.29.13.59.27.87.42l.35.18.58.31.75.32a18.36,18.36,0,0,1,2.36,1.14L139.93,314l15.55,7.27,38.42,18,77.42,36.21.82.34c.54.21,1.07.44,1.59.67l1.08.51.59.27c.39.13.76.27,1.14.42l.66.25.26.09.53.21.23.08.11,0,.26.1c.64-.33,1.38-.71,2.16-1,.95-.39,1.93-.73,2.86-1.05l54-24.57,71.11-32.38,34.81-15.84,23.81-10.84,4.91-2.24,0,52.71c.58,0,1.14,0,1.69.05,2.64.07,5.28.21,7.84.42l0-56.4,0-1.1v-.43a4.77,4.77,0,0,0,1.55-3.29A5.08,5.08,0,0,0,482,279l-53.1-72.16a1.57,1.57,0,0,0-.21-.24V60.8A4.84,4.84,0,0,0,423.91,56Zm-29,282.47-66.74-31.22-21.15-9.93,0-79.06.07-152.8,0,0,169.16,0,123.25,0,.05,160.94-.07,77.75-16.46,7.54-85.78,39.06L294.52,361l-16.14,7.34h0l-63.72-29.8Zm-97.56-45.67-9-4.21-7.16-3.35Q87.47,279,74.05,272.69l-3.37-1.57L70.2,271l-.38-.18-.28-.14-.34-.17-.16-.14,48.21-53.48h0l0,0,0,11,0,46.41v18.5h0v0h0v0l-.15-.07Zm311.57-16.48V222.49l0,0h0l4.2,5.7,3.7,5q9.22,12.57,18.46,25.12l4.51,6.14,9,12.27,1.26,1.71,1.52,2.07h0c-.23.07-.47.16-.71.25l-.38.15L447.52,291.3,435,297l-6.27,2.85h-.05V276.34Z" fill="#1f2147"/><path d="M511.21,149.8A4,4,0,0,0,510,150a142.6,142.6,0,0,0-13.51,4.93c-3.8,1.64-7.68,3.51-11.53,5.56-1.93,1-4,2.13-6,3.37a71.39,71.39,0,0,0-6.19,4.3,28.29,28.29,0,0,0-4,4.07l-.43.5c-1.46,1.71-2.81,3.56-4.11,5.35l-.52.73a4.66,4.66,0,0,0-.58,3.67,4.77,4.77,0,0,0,4.64,3.62,4.66,4.66,0,0,0,1.13-.14,5,5,0,0,0,2.91-2.11c1-1.34,2.13-2.93,3.38-4.53,1-1.12,1.78-2,2.56-2.82a24,24,0,0,1,2.61-2.23,134.87,134.87,0,0,1,23.15-12c2.52-.95,5.3-1.9,8.74-3a5,5,0,0,0,2.91-2.11,4.82,4.82,0,0,0,.58-3.67,5,5,0,0,0-4.6-3.66Z" fill="#1f2147"/><path d="M365.23,84.26a11.56,11.56,0,0,0-4.34,1.83,18.69,18.69,0,0,0-3.41,3,16.92,16.92,0,0,0-3.82,7.11,13.38,13.38,0,0,0-.11,5.93,11.06,11.06,0,0,0,1.28,2.86,15.33,15.33,0,0,0,1.5,2,27,27,0,0,0,3.8,3.64,42.22,42.22,0,0,0,5.33,3.59l.29.17c1.44.86,2.91,1.83,4.5,3l.12.08.2.14a34.81,34.81,0,0,1,5.05,5.2,10.66,10.66,0,0,1,1,1.73,19.56,19.56,0,0,1,.95,3.47,29,29,0,0,1,.16,2.95v.18c0,.4,0,.79,0,1.17a18,18,0,0,1-.95,3.16,19.25,19.25,0,0,1-1.62,2.82,13.85,13.85,0,0,1-1.13,1.09,13.58,13.58,0,0,1-1.9,1.06,17,17,0,0,1-2.62.7c-.45,0-.91.05-1.36.05s-.93,0-1.4-.05a16.5,16.5,0,0,1-2.79-.78,18.77,18.77,0,0,1-2.75-1.66,15.49,15.49,0,0,1-1.77-1.76,14.11,14.11,0,0,1-1.24-2.16,36.26,36.26,0,0,1-1.13-3.8l-.23-.84-.09-.33c-.22-.77-.37-1.41-.47-2,0-.32-.09-.64-.13-.92a4.69,4.69,0,0,0-3.9-3.38,4,4,0,0,0-.7-.06,5,5,0,0,0-1.18.14l-.1,0-.11,0-.1,0-.1,0-.13,0-.1,0-.1,0-.31.15-.1.06a4.81,4.81,0,0,0-2,2.36,5.2,5.2,0,0,0-.34,1.41,2.81,2.81,0,0,0,0,.43,2.72,2.72,0,0,0,0,.28v.36h0v-.06l0-.14v-.08l0-.1v.08l0,0,.06.49a33,33,0,0,0,.81,3.94l.32,1.17c.26,1,.55,2.05,1,3.16l.18.46a30.12,30.12,0,0,0,1.41,3,18.06,18.06,0,0,0,2.17,2.89,22.36,22.36,0,0,0,4.74,3.89,19.6,19.6,0,0,0,10.42,2.89,20.17,20.17,0,0,0,4.66-.52,17.42,17.42,0,0,0,7.38-3.57,17.24,17.24,0,0,0,3.78-4.41,25.59,25.59,0,0,0,2.45-5.55,18,18,0,0,0,.76-5.49c0-.57,0-1.17-.07-1.78l0-.23a27.38,27.38,0,0,0-1.17-6.47,22.61,22.61,0,0,0-1.41-3.35,16.63,16.63,0,0,0-1.74-2.43l-.33-.41a40,40,0,0,0-3.11-3.5,31.26,31.26,0,0,0-4.18-3.45c-1.22-.89-2.59-1.81-4.32-2.89l-.86-.52-.57-.35-.09-.05c-.84-.49-1.81-1.07-2.69-1.68a26.23,26.23,0,0,1-3.31-3.16c-.22-.32-.42-.65-.64-1v-.14a3.78,3.78,0,0,1,0-.46,15.81,15.81,0,0,1,.44-1.61,17.63,17.63,0,0,1,1-1.7,13.68,13.68,0,0,1,1.46-1.41,7.89,7.89,0,0,1,1.26-.75,4.58,4.58,0,0,1,.62-.18l.18-.06c.4,0,.81,0,1.22,0s.84,0,1.28,0a15.24,15.24,0,0,1,1.78.48l.18.09a17.08,17.08,0,0,1,1.9,1.21l.31.25.48.37.45.37a4.91,4.91,0,0,0,2.38.62A4.64,4.64,0,0,0,382.25,92a4.45,4.45,0,0,0-1.36-3.31l-.46-.35a38.22,38.22,0,0,0-3.09-2.31,14.43,14.43,0,0,0-3.77-1.58,20.11,20.11,0,0,0-4.11-.58h-.65a18.87,18.87,0,0,0-3.58.36Z" fill="#1f2147"/><path d="M336.25,83.05a4.53,4.53,0,0,0-2.81,2.16c-1,2.22-1.9,4.69-3,8-.58,1.84-1,3.91-1.27,5.09l-.12.6c-.53,2.44-1,4.61-1.54,6.65-.35,1.49-.74,3-1.14,4.46l-.11.44-.07.28-.05.17c-.63,2.42-1.35,5.16-1.87,7.9s-1.06,5.58-1.83,9.94h0c-.45-1.19-.81-2.36-1.1-3.35-.61-2-1.2-4.06-1.79-6.09-.91-3.15-1.72-6.31-2.61-9.83l-.73-2.87c-.44-1.72-.89-3.42-1.35-5.13l-.15-.57-.15-.55-.2-.73c-.47-1.72-1.11-3.72-2-6.3-.38-1-.77-2-1.22-3.08a5.92,5.92,0,0,0-1.18-1.75,5.24,5.24,0,0,0-3.74-1.61H306a5.61,5.61,0,0,0-4.46,2.89c-.23.37-.45.8-.63,1.16a40.74,40.74,0,0,0-2.44,7c-.18.64-.36,1.28-.55,1.93-1.23,4.14-2.42,8.28-3.52,12.15-.39,1.4-.81,2.8-1.24,4.2s-.88,2.9-1.29,4.35c-.57,2-1.15,4.17-1.87,6.89l0,.11-.11.43-.11.47-.06.18c0,.1,0,.2-.07.31v0c-.18-.74-.35-1.46-.5-2.15s-.3-1.35-.44-2-.28-1.31-.39-1.87l0-.13-.16-.83-.06-.3,0-.12-.1-.51c-.22-1.08-.46-2.24-.71-3.36l-.14-.57c-.22-.91-.45-1.81-.68-2.72l-.1-.36-.1-.41-.09-.35c-.18-.71-.36-1.42-.52-2.12-.34-1.45-.66-2.9-1-4.36l0-.19-.15-.54c-.49-2.39-1.08-5.18-1.76-7.79l-.06-.24c-.42-1.58-.81-3-1.27-4.44A56.17,56.17,0,0,0,279,88a4.65,4.65,0,0,0-2.82-2.16A4.86,4.86,0,0,0,275,85.7a4.78,4.78,0,0,0-2.39.62,4.51,4.51,0,0,0-2.31,3.94,6.29,6.29,0,0,0,.63,2.49l.2.44.19.44a78.78,78.78,0,0,1,3.44,12.07l.41,1.9c.64,3.05,1.51,7,2.5,10.88.49,1.86.89,3.74,1.26,5.51l.16.76,0,.18.05.26.08.37.08.43.09.45c.24,1.14.48,2.27.73,3.41q.75,3.28,1.51,6.55c.28,1.23.6,2.44.94,3.72l0,.13c.18.69.36,1.38.53,2.07l.27,1.07,0,.15c.38,1.48.67,2.61,1.06,3.81l.08.25a16.82,16.82,0,0,0,1.09,2.53,5.12,5.12,0,0,0,3.06,2.47,4.92,4.92,0,0,0,1.25.15,5.31,5.31,0,0,0,1.29-.15,5.14,5.14,0,0,0,2.87-2.22,7.5,7.5,0,0,0,1-3l.1-.57c.17-.94.34-1.88.53-2.82.26-1.17.54-2.36,1-4.11l.06-.24c.18-.71.35-1.43.53-2.15.25-1,.47-2.08.72-3.3l0-.15,0-.15.08-.34.07-.34c.19-.85.37-1.66.57-2.46.56-2.29,1.17-4.6,1.86-7.16.62-2.38,1.39-4.84,2-6.73.44-1.41.85-2.87,1.25-4.29l0-.13.06-.21.09-.3.49-1.74c.31-1.1.63-2.22,1-3.34l.32-1.07.13-.25,0,0,0-.1v0l0,0c.12.41.23.83.35,1.25s.18.66.26,1c.13.51.26,1,.37,1.46l.08.34.08.3.18.75.07.28.09.36.06.23.09.35.08.34,0,.16c.48,1.91,1.14,4.51,1.8,6.85l.6,2.09.06.21.1.34,0,.16.06.2,0,.15c.8,2.78,1.71,5.94,2.69,8.93l.1.3c.22.65.44,1.29.67,1.92l.12.34.13.37.1.25c.25.71.51,1.42.75,2.12s.48,1.39.7,2.09.55,1.67.84,2.49l.19.52.05.13.09.25c.34.93.72,2,1,3.08l.12.39A27.67,27.67,0,0,0,319,148c.12.29.21.57.37,1a8.34,8.34,0,0,0,.48,1.2,4.82,4.82,0,0,0,6.58,1.74,4.75,4.75,0,0,0,1.68-1.71,3,3,0,0,0,.53-1.16,6.15,6.15,0,0,0,.36-1.56l.21-1.41c.12-.83.24-1.67.35-2.5l.21-1.59.21-1.61,0-.19c.05-.42.11-.85.16-1.28.33-2.19.75-4.47,1.07-6.31l.07-.36.08-.46c.25-1.34.49-2.67.73-4l0-.14,0-.12c.58-3.43,1.38-8.11,2.55-12.54.2-.78.42-1.57.64-2.36.35-1.26.7-2.57,1-3.87.61-2.54,1.09-4.64,1.51-6.62l.2-.9,0-.13,0-.14,0-.17c.29-1.33.64-3,1.12-4.56.24-.8.52-1.66.91-2.71l.05-.16.16-.45.07-.22.3-.84c.17-.52.36-1,.55-1.55l.18-.4c.16-.37.32-.74.47-1.12a5.26,5.26,0,0,0,.15-1.24,5.32,5.32,0,0,0-.15-1.24,4.65,4.65,0,0,0-4.54-3.44,4.93,4.93,0,0,0-1.23.15Z" fill="#1f2147"/><path d="M251.84,84.47c-1.09.09-2.13.1-3,.1h-3.35c-2.11,0-4,.06-5.68.12s-3.57.24-5.27.42l-.74.08c-1.72.17-3.43.2-4.88.2h-2.17a4.67,4.67,0,0,0-2.34.63,4.74,4.74,0,0,0-3.52,4.37v.19c.07,2,.11,4.17.15,6.78,0,1.23.08,2.54.17,3.9l0,.39c.05.83.1,1.65.13,2.48.12,3.75.12,7.58.12,11V130.2c0,.39,0,.77,0,1.2v1c0,.52,0,1.05,0,1.58,0,1,0,2.25.12,3.51.13,2.09.23,3.83.31,5.75,0,.81,0,1.63,0,2.44a4.76,4.76,0,0,0,1.44,3.38,4.62,4.62,0,0,0,3.88,2.26h.12l1.38,0H229a56.67,56.67,0,0,0,5.92-.37,69.12,69.12,0,0,1,7.82-.54c2.35,0,4.71,0,7.06,0h1.09c1.41,0,2.83-.1,4.16-.21q1-.09,2-.15a4.78,4.78,0,0,0,3.31-1.37,4.68,4.68,0,0,0,1.37-3.31,4.76,4.76,0,0,0-4.45-4.69H257l-2.07.14c-1.47.12-2.8.22-4.13.22h-5.07c-1,0-2.06,0-3.08,0a64.88,64.88,0,0,0-7.82.54,29.27,29.27,0,0,1-3.55.22l-.14,0c0-.81-.09-1.63-.15-2.48v-.37c-.09-1.2-.18-2.44-.18-3.67V122.07l.1-.8c4.29-.25,8.56-.28,11.41-.28h4.81l4.8,0a4.68,4.68,0,0,0,0-9.36h-4.8l-4.82,0c-3,0-7,0-11.14.21h-.13l-.15,0c-.07-.86-.09-1.77-.11-2.65v-.4c0-2.13-.05-4.44-.17-6.83l-.06-1c-.1-2-.18-3.81-.2-5.55l.08-.69a33,33,0,0,0,3.34-.17l.32,0h.17l.29,0,.12,0c1.4-.13,3.32-.32,5.11-.41,1.54,0,3.11-.08,4.73-.1h4.3c.89,0,1.95,0,3-.1a4.9,4.9,0,0,0,3.31-1.37,4.68,4.68,0,0,0,0-6.62,4.59,4.59,0,0,0-3.07-1.38Z" fill="#1f2147"/><path d="M198.69,89c0,4.56,0,9.13,0,13.7,0,.64,0,1.28,0,2v.15c0,.67,0,1.35,0,2,0,.88,0,1.78,0,2.7,0,1.22-.09,2.44-.16,3.66,0,.92-.09,1.85-.13,2.77-.16,4.18-.18,8.33-.18,11.49,0,1.16,0,2.31,0,3.46V133l-.05.34h0v0h0l-.66-1.14c-.76-1.29-1.69-2.81-2.74-4.34l-.1-.15q-.47-.66-1-1.32l-.13-.19-.29-.39-.2-.28-.13-.18-.14-.18-.15-.22c-.47-.64-.93-1.28-1.37-1.93l-.24-.35c-.54-.8-1.05-1.64-1.62-2.57l-.08-.12-.08-.13-.1-.16-.09-.16-.05-.09c-.44-.73-.88-1.46-1.33-2.18-.84-1.32-1.76-2.84-2.82-4.67l-.44-.74c-1.3-2.19-2.38-4.09-3.4-6l-.93-1.71L180,104l-.1-.18-.14-.27c-.7-1.3-1.38-2.56-2.12-3.82-1.2-2-2.51-4-4.24-6.4l-.48-.66-.13-.19-.18-.25-.23-.31-.22-.31-.15-.21-.16-.22-.08-.11c-.9-1.25-2-2.82-3.15-4.25l-.74-1a4.76,4.76,0,0,0-5.68-.74,4.38,4.38,0,0,0-.58.41l-.23.18-.16.11A4.76,4.76,0,0,0,159,89.7c0,6.86-.05,13.69-.05,20.43,0,4.85,0,9.66,0,14.4V134q0,5.35,0,10.72v5.19a4.68,4.68,0,0,0,9.36,0V132.49c0-8.06,0-16.4.06-24.8v-3.54l0-.25v-1l0,.06v0l.27.4c1.48,2.31,2.85,4.88,3.85,6.75l.09.17.07.13.09.19c.71,1.31,1.77,3.29,2.77,5,2.36,4,4.64,7.76,6.79,11.2.73,1.15,1.52,2.21,2.39,3.38l.18.24c.27.37.55.74.81,1.11,1.09,1.5,2.13,3.19,2.93,4.49.56.91,1.11,1.84,1.65,2.76l.11.19c.42.72.84,1.44,1.28,2.16l.74,1.15.16.23.08.13.45.68a10,10,0,0,1,.77,1.37l.28.53a4.46,4.46,0,0,0,1.79,1.76c.27.4.56.78.87,1.19a21.58,21.58,0,0,0,1.48,1.8,5.61,5.61,0,0,0,1.42,1.14,5.23,5.23,0,0,0,2.64.69,5.09,5.09,0,0,0,1.34-.15,5,5,0,0,0,3.61-3.87,17.58,17.58,0,0,0,.17-2.89V130.31c0-3,0-6.06,0-9.13,0-1.66.07-3.27.14-5.14v-.78l0-.54v-.57c.13-3.24.2-5.93.2-8.22v-2.54c0-4.74,0-9.63,0-14.44a4.57,4.57,0,0,0-1.35-3.28,4.67,4.67,0,0,0-8,3.28Z" fill="#1f2147"/><path d="M27.43,70.42a4.38,4.38,0,0,0-2.17.55,4.77,4.77,0,0,0-1.9,6.47,4.6,4.6,0,0,0,2.84,2.3c1.87.35,3.31.68,4.68,1.06s2.5.81,3.6,1.2l.68.24c2.46.87,5,1.86,7.5,2.94,2.88,1.37,5.88,3,9.15,4.92A88.11,88.11,0,0,1,60.29,96a62.42,62.42,0,0,1,5.36,5,62.94,62.94,0,0,1,5,6,53.76,53.76,0,0,1,4.27,6.9c1.55,3.07,2.75,5.69,3.78,8.22q.87,2.34,1.7,4.7a5.18,5.18,0,0,0,2.12,2.91,4.88,4.88,0,0,0,2.53.71,4.79,4.79,0,0,0,1.13-.14,4.84,4.84,0,0,0,2.91-2.11,4.68,4.68,0,0,0,.58-3.66l-.24-.67c-.82-2.31-1.74-4.93-2.78-7.37-.87-2.07-1.89-4.25-3.2-6.84A68.64,68.64,0,0,0,75,97.18,65.77,65.77,0,0,0,63.77,86.65,84.72,84.72,0,0,0,51.59,79,99.55,99.55,0,0,0,39.9,73.83c-1.61-.61-3.3-1.2-5-1.77a46.18,46.18,0,0,0-6-1.48,7.7,7.7,0,0,0-1.46-.16Z" fill="#1f2147"/><path d="M4.85,65.88A4.76,4.76,0,0,0,1.4,74a4.62,4.62,0,0,0,3.29,1.41A4.75,4.75,0,0,0,8.14,67.3a4.57,4.57,0,0,0-3.29-1.42Z" fill="#1f2147"/><path d="M383.35,271.57H169.06a4.68,4.68,0,0,0,0,9.36H384.15a4.68,4.68,0,0,0,0-9.36Z" fill="#1f2147"/><path d="M381.94,228.77H170.47a4.68,4.68,0,1,0,0,9.36H382.74a4.68,4.68,0,1,0,0-9.36Z" fill="#1f2147"/><path d="M381.61,192h-213a4.68,4.68,0,1,0,0,9.36H382.68a4.68,4.68,0,0,0,0-9.36Z" fill="#1f2147"/><path d="M126.77,65.46s0,0,0,0l-.07,152.8.06,79.06,21.14,9.93,66.74,31.22,63.72,29.8,38.58-17.5,85.78-39.05,16.46-7.55.06-77.75,0-160.94-123.25,0-169.16,0Zm195.67,63.29c.78-4.36,1.3-7.24,1.83-9.93s1.24-5.49,1.87-7.91l.05-.17.07-.28.12-.44c.39-1.49.78-3,1.14-4.47.5-2,1-4.2,1.52-6.64l.13-.61c.25-1.17.69-3.25,1.27-5.09,1.1-3.32,2-5.79,3-8a4.53,4.53,0,0,1,2.81-2.16,4.93,4.93,0,0,1,1.23-.15A4.65,4.65,0,0,1,342,86.34a5.34,5.34,0,0,1,.16,1.24,5.27,5.27,0,0,1-.16,1.24c-.16.38-.31.75-.47,1.12l-.18.4c-.19.51-.38,1-.55,1.55l-.3.84-.07.22-.16.45-.05.16c-.39,1-.67,1.91-.91,2.71-.47,1.57-.83,3.23-1.12,4.56l0,.17,0,.14,0,.14-.2.89c-.42,2-.91,4.08-1.51,6.62-.32,1.3-.68,2.61-1,3.87-.22.79-.44,1.58-.64,2.37-1.17,4.42-2,9.1-2.55,12.52l0,.13,0,.14c-.24,1.37-.48,2.7-.73,4l-.08.47-.06.36c-.33,1.84-.75,4.12-1.07,6.31-.05.43-.11.86-.17,1.28l0,.19-.21,1.61-.21,1.59c-.11.83-.23,1.67-.35,2.5l-.21,1.41a5.78,5.78,0,0,1-.37,1.56,2.92,2.92,0,0,1-.52,1.17,4.72,4.72,0,0,1-1.68,1.7,4.88,4.88,0,0,1-2.43.65,4.82,4.82,0,0,1-4.14-2.39,8.39,8.39,0,0,1-.49-1.2c-.16-.45-.25-.73-.37-1a27.67,27.67,0,0,1-.86-2.65L318,145c-.29-1.07-.67-2.16-1-3.09l-.09-.25,0-.13-.2-.52c-.29-.82-.56-1.65-.84-2.49s-.45-1.39-.7-2.09-.5-1.41-.75-2.11l-.1-.26-.13-.37-.12-.34c-.22-.63-.45-1.27-.67-1.92l-.1-.3c-1-3-1.89-6.15-2.69-8.93l0-.15-.06-.2,0-.16-.1-.33-.06-.22-.6-2.09c-.66-2.34-1.32-4.94-1.8-6.85l0-.16-.09-.34-.09-.35-.05-.23-.09-.35-.08-.29-.18-.75-.08-.3-.08-.34c-.11-.45-.24-.95-.37-1.46-.08-.33-.17-.66-.26-1s-.23-.84-.35-1.25l-.07.1-.13.25-.32,1.08c-.33,1.11-.65,2.23-1,3.33l-.48,1.74-.09.3-.06.22,0,.12c-.4,1.42-.81,2.88-1.25,4.29-.6,1.89-1.37,4.35-2,6.73-.69,2.56-1.3,4.87-1.86,7.16-.2.8-.38,1.61-.57,2.46l-.07.34-.08.34,0,.15,0,.15c-.25,1.22-.48,2.26-.72,3.3-.18.72-.35,1.44-.53,2.15l-.06.24c-.45,1.75-.73,2.94-1,4.11-.19.94-.36,1.88-.52,2.82l-.11.57a7.5,7.5,0,0,1-1,3,5.14,5.14,0,0,1-2.87,2.22,5.31,5.31,0,0,1-1.29.15,5.06,5.06,0,0,1-1.26-.15,5.13,5.13,0,0,1-3-2.47,17.29,17.29,0,0,1-1.09-2.53l-.08-.25c-.39-1.2-.68-2.33-1.06-3.81l0-.15-.27-1.07c-.17-.69-.35-1.38-.53-2.06l0-.14c-.34-1.28-.66-2.49-.94-3.72q-.76-3.27-1.51-6.55c-.26-1.14-.5-2.27-.73-3.41l-.09-.45-.09-.43-.07-.37-.05-.26,0-.17-.16-.77c-.37-1.77-.77-3.65-1.26-5.51-1-3.84-1.86-7.83-2.51-10.88l-.4-1.9a78.46,78.46,0,0,0-3.44-12.07l-.19-.44-.2-.44a6.29,6.29,0,0,1-.63-2.49,4.49,4.49,0,0,1,.15-1.12,4.77,4.77,0,0,1,5.77-3.3A4.65,4.65,0,0,1,279,88a56.17,56.17,0,0,1,2.23,5.53c.46,1.44.85,2.86,1.27,4.43l.06.25c.68,2.61,1.27,5.4,1.76,7.78l.15.55,0,.19c.31,1.46.63,2.91,1,4.36.16.7.33,1.41.51,2.12l.09.35.11.41.09.36c.24.9.47,1.81.69,2.72l.13.57c.26,1.12.5,2.28.72,3.36l.1.5,0,.13.06.3.17.83,0,.13c.12.56.25,1.19.4,1.87s.28,1.28.44,2,.32,1.41.5,2.14l.16-.44.11-.47.1-.43,0-.11c.72-2.72,1.31-4.88,1.87-6.89.41-1.46.85-2.9,1.29-4.35s.85-2.8,1.24-4.2c1.11-3.87,2.29-8,3.52-12.16.19-.64.37-1.28.55-1.93a39.8,39.8,0,0,1,2.44-7c.18-.36.4-.79.63-1.16A5.61,5.61,0,0,1,306,86.87h.23a5.24,5.24,0,0,1,3.74,1.62,5.79,5.79,0,0,1,1.18,1.75c.45,1.06.84,2,1.22,3.08.9,2.58,1.54,4.58,2,6.3l.2.73.14.55.16.57c.46,1.71.91,3.41,1.35,5.13l.73,2.87c.89,3.52,1.7,6.68,2.61,9.83q.89,3,1.78,6.09c.3,1,.66,2.16,1.11,3.35Zm45.69,12.37c.46,0,.91,0,1.36-.05a16.71,16.71,0,0,0,2.62-.7,13.58,13.58,0,0,0,1.9-1.06,13.85,13.85,0,0,0,1.13-1.09,19.33,19.33,0,0,0,1.63-2.82,18.82,18.82,0,0,0,.94-3.16c0-.38,0-.77,0-1.17v-.18a28.87,28.87,0,0,0-.16-2.95,19.33,19.33,0,0,0-.95-3.47,11.1,11.1,0,0,0-1-1.73,35.31,35.31,0,0,0-5.05-5.2l-.2-.14-.12-.08c-1.59-1.14-3.06-2.11-4.5-3l-.29-.17a42.22,42.22,0,0,1-5.33-3.59,27,27,0,0,1-3.8-3.63,15.58,15.58,0,0,1-1.5-2,10.85,10.85,0,0,1-1.28-2.85,13.38,13.38,0,0,1,.11-5.93,17,17,0,0,1,3.82-7.11,18.45,18.45,0,0,1,3.42-3,11.46,11.46,0,0,1,4.33-1.83,18.87,18.87,0,0,1,3.58-.36h.65a20.11,20.11,0,0,1,4.11.58,13.78,13.78,0,0,1,3.77,1.59,36,36,0,0,1,3.09,2.3l.46.35A4.45,4.45,0,0,1,382.25,92a4.66,4.66,0,0,1-4.68,4.69,4.9,4.9,0,0,1-2.38-.63l-.45-.37-.48-.37-.31-.25a17.08,17.08,0,0,0-1.9-1.21l-.18-.09a15.24,15.24,0,0,0-1.78-.48c-.44,0-.86,0-1.28,0s-.82,0-1.22,0l-.18.05-.62.18a8.79,8.79,0,0,0-1.26.76,13.68,13.68,0,0,0-1.46,1.41,18.92,18.92,0,0,0-1,1.7,11.89,11.89,0,0,0-.43,1.61,3.93,3.93,0,0,0,0,.46v.14c.22.37.42.7.64,1a26.26,26.26,0,0,0,3.31,3.16c.88.61,1.85,1.19,2.68,1.68l.1.05.57.35.86.52c1.73,1.08,3.1,2,4.32,2.89a31.26,31.26,0,0,1,4.18,3.45,40,40,0,0,1,3.11,3.5l.33.41a16.63,16.63,0,0,1,1.74,2.43,22.61,22.61,0,0,1,1.41,3.35,28.42,28.42,0,0,1,1.18,6.47v.23c0,.62.06,1.21.07,1.78a17.69,17.69,0,0,1-.76,5.49A24.89,24.89,0,0,1,383.9,142a17,17,0,0,1-3.77,4.41,17.42,17.42,0,0,1-7.38,3.57,20.17,20.17,0,0,1-4.66.52,19.58,19.58,0,0,1-10.42-2.89,22.65,22.65,0,0,1-4.74-3.88,17.8,17.8,0,0,1-2.16-2.9,28.39,28.39,0,0,1-1.42-3l-.18-.46c-.42-1.11-.71-2.2-1-3.16l-.32-1.17a32.74,32.74,0,0,1-.81-3.95l-.06-.48-.07.14s0,.12,0,.13l0,.14c0-.15,0-.3,0-.44s0-.19,0-.28a2.62,2.62,0,0,1,0-.43,5.2,5.2,0,0,1,.34-1.41,4.85,4.85,0,0,1,2-2.36l.1,0,.31-.16.1,0,.1,0,.13-.05.1,0,.1,0,.11,0,.1,0a5,5,0,0,1,1.18-.14,5.36,5.36,0,0,1,.7,0,4.7,4.7,0,0,1,3.9,3.39c0,.28.09.6.13.92.1.54.25,1.18.46,2l.1.33.22.84a37.78,37.78,0,0,0,1.14,3.8,13.32,13.32,0,0,0,1.24,2.16,15.49,15.49,0,0,0,1.77,1.76,19.31,19.31,0,0,0,2.75,1.66,16.5,16.5,0,0,0,2.79.78c.47,0,.93.05,1.4.05Zm-170-7.79h0l.06-.34v-2.1c0-1.15,0-2.3,0-3.46,0-3.16,0-7.31.18-11.49,0-.92.08-1.85.13-2.77.06-1.22.13-2.44.16-3.66,0-.92,0-1.82,0-2.7,0-.69,0-1.37,0-2v-2.12c0-4.57,0-9.14,0-13.7a4.67,4.67,0,0,1,8-3.28A4.58,4.58,0,0,1,208.06,89c-.05,4.81-.05,9.7-.05,14.44v2.54c0,2.29-.06,5-.2,8.22v.1l0,.47,0,.54V116c-.07,1.87-.13,3.48-.14,5.14,0,3.07,0,6.13,0,9.13v14.52a17.58,17.58,0,0,1-.17,2.89,5,5,0,0,1-3.62,3.88,5.43,5.43,0,0,1-1.33.14,5.23,5.23,0,0,1-2.64-.69,5.8,5.8,0,0,1-1.42-1.13,23,23,0,0,1-1.48-1.81c-.31-.4-.6-.79-.87-1.19a4.59,4.59,0,0,1-1.79-1.76l-.28-.53a10,10,0,0,0-.77-1.37l-.45-.68-.08-.13-.16-.24-.74-1.14c-.44-.72-.86-1.44-1.28-2.16l-.11-.19c-.54-.92-1.09-1.85-1.65-2.76-.79-1.3-1.84-3-2.93-4.49-.26-.37-.54-.74-.81-1.11l-.18-.24c-.87-1.17-1.66-2.23-2.39-3.39-2.15-3.43-4.43-7.2-6.79-11.19-1-1.71-2.06-3.69-2.76-5l-.1-.19-.07-.13-.09-.17c-1-1.87-2.37-4.44-3.85-6.75l-.27-.4-.05,1.25,0,1.11v2.43c-.07,8.4-.07,16.73-.06,24.8v17.44a4.68,4.68,0,0,1-9.36,0v-5.19c0-3.58,0-7.14,0-10.72v-9.49c0-4.74,0-9.55,0-14.4,0-6.74,0-13.57.05-20.43a4.76,4.76,0,0,1,2.15-3.93l.16-.11.23-.18a4.67,4.67,0,0,1,.58-.41,4.64,4.64,0,0,1,5.68.74l.74,1c1.11,1.43,2.24,3,3.15,4.25l.08.11.16.22.15.21.22.31.23.31.18.25.13.19.48.66c1.73,2.43,3,4.4,4.24,6.4.74,1.26,1.42,2.53,2.12,3.82l.14.27.1.18.08.16.93,1.72c1,1.9,2.1,3.8,3.4,6l.44.74c1.06,1.83,2,3.36,2.82,4.67.45.72.89,1.45,1.33,2.18l.05.1.09.15.1.16.08.13.08.12c.57.94,1.08,1.77,1.62,2.57l.24.35c.44.65.9,1.29,1.37,1.93l.15.22.14.18.13.18.2.28.29.39.14.18c.32.45.64.89,1,1.34l.1.14c1,1.53,2,3,2.74,4.34l.66,1.14,0,0Zm50.71-48.76c.87,0,1.91,0,3-.1h.24a4.61,4.61,0,0,1,3.07,1.38,4.68,4.68,0,0,1,0,6.62,4.9,4.9,0,0,1-3.31,1.37c-1.05.09-2.11.1-3,.1h-4.3c-1.61,0-3.2,0-4.73.1-1.79.09-3.71.28-5.11.41l-.12,0-.29,0-.17,0-.33,0a32.67,32.67,0,0,1-3.33.17l-.08.69c0,1.74.1,3.54.21,5.55l0,1c.12,2.39.15,4.7.17,6.83v.4c0,.88,0,1.79.11,2.65l.15,0h.13c4.14-.19,8.13-.21,11.14-.21l4.82,0H252a4.68,4.68,0,0,1,0,9.36l-4.8,0h-4.81c-2.85,0-7.12,0-11.41.28l-.1.8v13.17c0,1.23.09,2.47.18,3.67v.37c.06.85.12,1.67.15,2.48l.14,0a29.27,29.27,0,0,0,3.55-.22,67,67,0,0,1,7.82-.55c1,0,2.05,0,3.08,0h5.07c1.33,0,2.66-.1,4.13-.22l2.07-.14h.23a4.76,4.76,0,0,1,4.45,4.69,4.68,4.68,0,0,1-1.37,3.31A4.78,4.78,0,0,1,257,150c-.69,0-1.37.09-2.05.15-1.32.11-2.74.21-4.15.21h-1.09c-2.35,0-4.71,0-7.06,0a71.88,71.88,0,0,0-7.83.54,56.31,56.31,0,0,1-5.91.37h-.22l-1.38,0h-.12a4.62,4.62,0,0,1-3.88-2.26,4.78,4.78,0,0,1-1.44-3.38c0-.81,0-1.63,0-2.44-.08-1.92-.18-3.66-.32-5.75-.1-1.26-.11-2.48-.11-3.51V131.4c0-.43,0-.81,0-1.2V115.06c0-3.38,0-7.21-.12-11,0-.83-.08-1.65-.13-2.48l0-.39c-.09-1.36-.17-2.68-.17-3.9,0-2.61-.09-4.77-.15-6.78v-.19a6.54,6.54,0,0,1,5.86-5h2.17c1.45,0,3.16,0,4.88-.2l.74-.08c1.7-.18,3.52-.36,5.27-.42s3.57-.1,5.68-.12h3.35ZM168.6,201.37a4.69,4.69,0,0,1,0-9.37H382.68a4.69,4.69,0,0,1,0,9.37H168.6Zm1.87,36.76a4.68,4.68,0,1,1,0-9.36H382.74a4.68,4.68,0,1,1,0,9.36H170.47Zm-1.41,42.81a4.69,4.69,0,0,1,0-9.37H384.15a4.69,4.69,0,0,1,0,9.37H169.06Z" fill="#fefefe"/><path d="M582.84,426.29h0c-.92.42-1.84.84-2.76,1.24a32.9,32.9,0,0,1-5,1.71l-.11,0c.49,1.17,1,2.33,1.51,3.5,1,2.47,2,5,2.88,7.63.71,2.12,1.37,4.29,2,6.46l.13.48.13.49.09.33.09.33,0,.16,0,.13.28,1.12c.49,2,.92,4,1.3,5.95l0,.19c0,.25.09.51.14.77l.07.35,0,.26c.1.53.19,1.06.28,1.57l0,.2c.14.91.28,1.81.41,2.72l.27,2.26c0,.34.07.68.11,1l0,.46,0,.45c0,.34,0,.6.07.87l0,.23,0,.25c.14,1.7.25,3.51.32,5.38l0,.48v.56c0,.17,0,.34,0,.51v.26l0,.82v3.31c0,.4,0,.8,0,1.21v.45l0,.86v.35l0,.56,0,.31v.21l-.12,2.2-.06.78,0,.39,0,.35c0,.06,0,.13,0,.19v.12l0,.33c-.13,1.67-.31,3.4-.54,5.29l0,.13v.12h0l0,.1,0,.12,0,.13,0,.21c0,.15-.05.31-.07.46a120.78,120.78,0,0,1-7.72,28c-1.36,3.19-2.9,6.39-4.57,9.52,0,.53.1,1.05.13,1.58.07,1.16.11,2.33.16,3.49a63.25,63.25,0,0,1-.27,8.29c-.07.91-.14,2-.18,3.19a118.85,118.85,0,0,0,7.8-12.7,121,121,0,0,0,12.87-39l0-.12,0-.26,0-.16,0-.28,0-.18.07-.45,0-.44c.06-.38.11-.76.16-1.14.29-2.32.49-4.2.63-5.92V487l0-.42,0-.33.06-.89v-.14c0-.24,0-.48,0-.72l0-.59,0-.52v-.11c0-.14,0-.28,0-.41v-.16l0-.69,0-1,0-.59v-1.06l0-1a.49.49,0,0,0,0-.12c0-.26,0-.51,0-.77v-1.08a2,2,0,0,1,0-.25v-1.68l0-.39V473l0-.13c-.05-1.64-.15-3.38-.29-5.16v-.1l0-.26,0-.25v-.21l0-.13v-.11l0-.46,0-.51s0-.08,0-.13l0-.36,0-.36v-.1l-.1-.84a1.8,1.8,0,0,1,0-.22c-.26-2.16-.56-4.34-.89-6.48l0-.11,0-.14-.12-.69,0-.1-.15-1,0-.1-.08-.49a3.26,3.26,0,0,0-.05-.33h0s0-.14,0-.14V454l0-.11-.09-.57c-.42-2.07-.8-3.82-1.22-5.52l0-.17c-.05-.18-.1-.36-.14-.53l0-.16,0-.1,0-.12,0-.17,0-.17-.06-.23-.05-.23,0-.1,0-.16,0-.14a.53.53,0,0,1,0-.17l0-.12-.08-.31,0-.1-.19-.7,0-.15c-.51-1.79-1-3.52-1.62-5.28l-.19-.6,0-.13,0-.1c-1.38-4-2.92-7.89-4.61-11.57Z" fill="#1f2147"/><path d="M470.35,354.06H470a127,127,0,0,0-19.73,1.7,121.56,121.56,0,0,0-37.6,12.78,123.26,123.26,0,0,0-63.89,90.17.5.5,0,0,0,0,.12l-.05.32c-.53,3.54-.91,7.23-1.14,10.94,0,.14,0,.28,0,.43q-.08,1.47-.12,2.94c0,.65,0,1.3-.05,2,0,1.58,0,3.14,0,4.65a123.86,123.86,0,0,0,2.77,23.49c.12.57.25,1.14.38,1.71a119.43,119.43,0,0,0,7.91,23.21,124.85,124.85,0,0,0,46.76,53.4,119.36,119.36,0,0,0,14.48,7.82l-.06-.19-.49-.86-.07-.12c-.53-1-1.14-2-1.82-3l-.29-.42c-.53-.78-1.07-1.58-1.53-2.41s-.83-1.57-1.24-2.37c-.68-1.33-1.35-2.64-2.1-3.87l-.17-.28-.18-.28a115,115,0,0,1-46.35-52.66l-.18-.43-.05-.1-.16-.37,0-.11-.15-.35a121.88,121.88,0,0,1-7.66-27.39.5.5,0,0,0,0-.12l0-.25c-.07-.42-.13-.84-.19-1.26a114.83,114.83,0,0,1,7.92-59.9,121.41,121.41,0,0,1,15-25.64,114.57,114.57,0,0,1,75.35-43.65,122.37,122.37,0,0,1,31,0,114.92,114.92,0,0,1,75.47,43.72c.33.42.65.85,1,1.28,2.34-1.13,4.7-2.25,7-3.32l.8-.38a123.15,123.15,0,0,0-81-49.4,126.84,126.84,0,0,0-19-1.44Z" fill="#1f2147"/><path d="M472,385.36a100.55,100.55,0,0,0-14.28,1.09,91.65,91.65,0,0,0-49.49,24.3c-1.37,1.29-2.71,2.63-4,4a91.49,91.49,0,0,0-9.45,12c-.26.38-.51.77-.77,1.16-.81,1.24-1.6,2.55-2.36,3.88a91.61,91.61,0,0,0-6.38,13.64l-.11.31-.12.31a88.05,88.05,0,0,0-4.64,18.76c-.05.32-.09.64-.13,1-.09.66-.17,1.33-.25,2a91.36,91.36,0,0,0,2.55,33.47c.27,1,.57,2.08.87,3.11.25.82.51,1.63.79,2.44.34,1,.7,2.06,1.08,3.08l.15-.34c.27-.68.56-1.45.91-2.22a21.24,21.24,0,0,1,4.45-6.23l.45-.44a82.44,82.44,0,0,1-2.53-34.27,83.15,83.15,0,0,1,16.73-40c.83-1,1.63-2,2.38-2.89l.12-.14.09-.1.11-.12.09-.12.18-.2c1.75-2,3.62-3.95,5.56-5.81l.16-.16.16-.14.14-.13.14-.14.1-.09.19-.18c1.87-1.74,3.79-3.38,5.71-4.89a83.15,83.15,0,0,1,40-16.69,92.94,92.94,0,0,1,11.15-.68,81.86,81.86,0,0,1,32.61,6.54,84.06,84.06,0,0,1,33.55,25.87,83.21,83.21,0,0,1,16.76,39.82,88.18,88.18,0,0,1,0,22.74,90.21,90.21,0,0,1-3.85,16,26.44,26.44,0,0,1,6.2,1.85c.64.26,1.28.53,1.91.81a91.17,91.17,0,0,0,5-29.07v-.18a97.38,97.38,0,0,0-2.09-20.3,91.74,91.74,0,0,0-6.34-18.93,87.84,87.84,0,0,0-10.21-17,91.73,91.73,0,0,0-68.14-36.52c-1.71-.11-3.43-.17-5.14-.17Z" fill="#1f2147"/><path d="M484.4,420.32h0l.12.71c.18.9.42,1.79.64,2.66l0,.11h0c.18.7.36,1.4.52,2.11.27,1.26.52,2.52.76,3.78,1.63.52,3.22,1.08,4.72,1.68a57.65,57.65,0,0,1,11.17,6.53c.5.4,1,.8,1.48,1.21l.19.16.13.12.31.27.13.11.18.16.19.17.11.1.25.23a58.19,58.19,0,0,1,6.3,6.74l.1.12a58.65,58.65,0,0,1,6.4,11,50.56,50.56,0,0,1,3.51,26.43c-.07.46-.14.91-.22,1.36h.13c.44,0,.86,0,1.29,0l.93,0a13.73,13.73,0,0,1,2.54.22,12.47,12.47,0,0,1,2.44.81l.33.14.12.05.58.26a59,59,0,0,0-26.95-59.64l-.17-.1-.14-.09-.12-.08-.12-.07-.1-.07-.16-.09-.16-.09a55.35,55.35,0,0,0-10.1-4.81,51.12,51.12,0,0,0-6-1.85l-1.24-.3Z" fill="#1f2147"/><path d="M432,434.21h0q-.93.84-1.83,1.71a61.54,61.54,0,0,0-6.58,7.74,58.19,58.19,0,0,0-8.49,17.18,59.12,59.12,0,0,0-2.47,19.55,57.28,57.28,0,0,0,1.62,11.54l.42,0,.17,0a9.11,9.11,0,0,1,1-.06,13.63,13.63,0,0,1,5.18,1.3,16.45,16.45,0,0,1,2.68,1.46l.17.1a61.88,61.88,0,0,1-2.39-10,57.83,57.83,0,0,1,0-13.41,56.92,56.92,0,0,1,3.42-12.73,58.42,58.42,0,0,1,6.68-11.47c.27-.34.55-.68.83-1l-.09-2c-.11-2.35-.2-4.69-.29-7,0-.9-.06-1.81,0-2.76l0,0Z" fill="#1f2147"/><path d="M572.93,412.07a4.19,4.19,0,0,0-3,1.34,4.52,4.52,0,0,0,3.39,7.7,4.17,4.17,0,0,0,3-1.35,4.51,4.51,0,0,0-3.39-7.69Z" fill="#1f2147"/><path d="M411.36,0a4.92,4.92,0,0,0-3.47,1.5,4.45,4.45,0,0,0-1.33,3.22l.06,2.41V7.4c.08,3,.17,6.45.06,9.7-.13,4.34-.42,8.82-.86,13.3a4.76,4.76,0,0,0,1.31,3.37,4.77,4.77,0,0,0,6.77.2,5,5,0,0,0,1.51-3.4c.43-4.48.71-8.7.84-12.92.11-3.4,0-6.93-.06-10l-.06-2.72A4.89,4.89,0,0,0,411.44,0Z" fill="#de5863"/><path d="M461.88,19.33a5,5,0,0,0-3.28,1.31l-.66.53-.1.08-.09.07-.1.08c-1.31,1.05-2.66,2.15-3.95,3.28-1.58,1.39-3.15,2.89-4.55,4.21L449,29c-2.23,2.13-4.44,4.48-6.21,6.36l-.32.34-.31.33c-.84.89-1.69,1.79-2.54,2.67a4.83,4.83,0,0,0-.21,6.77A5,5,0,0,0,443,47a4.39,4.39,0,0,0,3.2-1.3c1.09-1.13,2.18-2.28,3.26-3.42l.21-.23.12-.13.12-.13c1.8-1.89,3.66-3.85,5.57-5.69l.12-.11.12-.12.12-.12c1.27-1.2,2.7-2.57,4.15-3.85s2.91-2.46,4.36-3.62l.25-.2.56-.46a4.68,4.68,0,0,0,1.51-3.41,4.79,4.79,0,0,0-4.7-4.87Z" fill="#de5863"/><path d="M483,71.34h-.13a68.8,68.8,0,0,0-6.94.68l-.24,0-1,.13.23.06-3,.28-2.34.28c-2,.2-4.17.29-6.76.29-2,0-4.12-.06-6.1-.12h-.17l-1.2,0h-.12a4.8,4.8,0,0,0-.05,9.59l1,0,1.05,0h.46c1.53.05,3.42.11,5.2.11.78,0,1.57,0,2.35,0,3-.1,6-.47,8.82-.83h.11l1.58-.2-.2-.06c1.35-.08,2.75-.26,4-.41l.24,0c1-.11,2-.18,2.91-.21a5,5,0,0,0,3.37-1.3,4.78,4.78,0,0,0,.06-6.9A4.38,4.38,0,0,0,483,71.34Z" fill="#de5863"/><path d="M428.68,222.46l0,0v77.34l18.88-8.53,22.75-10.36.38-.15c.24-.09.47-.18.71-.25l-11.78-16.08-4.51-6.13L436.61,233.2l-3.7-5-4.2-5.71Z" fill="#de5863"/><path d="M117.26,216.86h0L69,270.35l.17.14.33.17.28.14.38.18.48.14,3.37,1.58,26.86,12.56,7.16,3.35,9,4.21.15.07.06-64.95,0-11,0,0Z" fill="#de5863"/></g><g id="Draw_Layer-2" data-name="Draw Layer"><path d="M456.94,408.48l-.51.06c-.87.1-1.7.2-2.53.33-.64.1-1.28.25-1.91.4l-.57.14a28.39,28.39,0,0,0-3.91,1.15,12.84,12.84,0,0,0-4.46,2.51,17,17,0,0,0-2.75,3.37,16.75,16.75,0,0,0-1.9,4,13.65,13.65,0,0,0-.42,4.2v1.56c0,3.07,0,6.54.13,9.95,0,.67.07,1.33.12,2,.06,1,.14,2.21.14,3.38,0,1.9,0,3.8,0,5.71,0,2.19.06,4.2.11,6.14,0,.84.07,1.67.12,2.51.07,1.36.13,2.69.14,4,0,5.71,0,11.42,0,17.13q0,4.28,0,8.57,0,8.1,0,16.22,0,3.76,0,7.55v.11c0,2.3-.07,4.64-.33,6.92a15.39,15.39,0,0,1-.38,2l-.38.35a4.18,4.18,0,0,0-1-1l-.17-.36c-.34-.72-.76-1.61-1.23-2.44l-.46-.83c-.45-.83-1-1.77-1.54-2.64a40.55,40.55,0,0,0-2.46-3.33l.12.22c-.22-.32-.47-.61-.72-.91l-.51-.62-.42-.6c-.52-.74-1-1.48-1.61-2.17a19.63,19.63,0,0,0-2.39-2.43A8.33,8.33,0,0,0,422.5,500a6.16,6.16,0,0,0-2.35-.35h-2.69c-.82,0-1.78,0-2.71.11a33.48,33.48,0,0,0-4.45.81l-.11,0c-2.68.61-5.43,1.46-8,2.27a42.39,42.39,0,0,0-5,1.93,12,12,0,0,0-3.48,2.29,13.17,13.17,0,0,0-2.47,3.34,15,15,0,0,0-1.69,5.51,18.2,18.2,0,0,0,.29,4.87,18.9,18.9,0,0,0,1.2,3.88c.75,1.74,1.43,3.24,2.09,4.58.34.7.68,1.4,1,2.11s.73,1.53,1.11,2.29c1.58,3.17,3.24,6.23,4.91,9.11.62,1.06,1.22,2.13,1.82,3.2l.24.42c1.19,2.14,2.53,4.55,4,6.83.54.84,1.1,1.67,1.66,2.49l.18.26.24.35c.43.62.86,1.25,1.28,1.88.91,1.38,1.73,2.85,2.53,4.27l.41.72c.54,1,1.09,1.93,1.65,2.89l.14.23,1.78,3.12c.88,1.56,1.89,3.13,2.79,4.51l.93,1.42q1.44,2.25,2.91,4.5c1.29,2,2.59,4,3.85,6l.14.23.14.2.68,1.09a3.3,3.3,0,0,0,.3.43,28,28,0,0,1,1.61,2.88,23.26,23.26,0,0,0,2,3.27c.49.7.9,1.36,1.31,2l.36.58c.17.28.32.56.48.85l.07.13.11.2a8.51,8.51,0,0,0,.75,1.13l.41.57c.19.28.39.57.6.85.31.44.69.93,1.22,1.56a4.91,4.91,0,0,0,.39.41c.44.76,1,1.78,1.7,2.75a24.8,24.8,0,0,1,2.22,4l-.09-.31c.2.56.44,1.09.69,1.63l.08.22c.33.85.67,1.72,1.08,2.53.31.62.59,1.26.84,1.85a33.12,33.12,0,0,1,2,6.79l.13.95c.08.69.17,1.38.26,2.07s.07,1.11.08,1.58a18.36,18.36,0,0,0,.28,2.26l0,.28,0,.18,0,.19a4.64,4.64,0,0,0,1.25,3,4.33,4.33,0,0,0,1.77,1.06c.06.08.14.16.22.25a4.29,4.29,0,0,0,2.77,1.26h.25l2-.21.19,0c1.17-.13,2.34-.25,3.51-.35,1.66-.15,3.29-.17,5.08-.19s3.55,0,5.33,0c1.13,0,2.31.09,3.26.17s1.59.12,2.38.15l1.92,0,1,0c.59,0,1.19.07,1.71.13l.32,0,.65.06c1.85.14,3.7.16,5.45.17s3.51,0,5.26,0h5.26c1.26,0,2.53-.07,3.77-.14h.24l1.82-.1c2.14-.1,4.28-.12,5.9-.13,1.18,0,2.4-.1,3.39-.17s1.67-.12,2.5-.15c1.55-.07,3.13-.07,4.67-.08h20.7c.56,0,1.15-.07,1.63-.12.28,0,.57-.07.85-.09.94-.08,1.93-.12,3.14-.14h.81a19.43,19.43,0,0,0,2-.09,39.63,39.63,0,0,1,5.1-.31c1.19,0,2.39,0,3.58,0h3.06a4.34,4.34,0,0,0,4.28-4.27,4.23,4.23,0,0,0-.25-1.41,4,4,0,0,0,.41-1.78V607.2c0-.83,0-1.65,0-2.49,0-2,0-4,0-5.93,0-.12.07-.25.1-.38a6.07,6.07,0,0,0,0-2.58,2.82,2.82,0,0,0-.34-.91l-.1-.93-.06-.52v-.16c0-.21,0-.41,0-.62v-7.54c0-2.53,0-5,0-7.58,0-1.95,0-3.85.15-5.7,0-.6.1-1.2.16-1.81l.09-.82c.06-.62.08-1.23.11-1.85l.06-1.18.05-.63,0-.34,0-.21c0-.53.08-1.06.1-1.6s0-1.39,0-2.08c0-.34,0-.66,0-1V553c0-3,0-6.07-.05-9.11,0-2.11-.1-4-.2-5.85-.12-2.2-.16-4.33-.17-5.93,0-2.25-.09-4.09-.2-5.81a26.1,26.1,0,0,0-1.16-6.53,25.23,25.23,0,0,0-1.21-2.94,11.94,11.94,0,0,0-1.65-2.43,10.77,10.77,0,0,0-4.68-2.84,15.24,15.24,0,0,0-3.62-.7l-.38,0-.89-.15c-.89-.15-1.72-.29-2.55-.36-.53,0-1.06,0-1.6,0h-1.81c-2.51,0-4.79,0-7-.11,0-.81,0-1.65-.09-2.49-.09-1.29-.23-2.55-.43-3.76l-.05-.28a14.68,14.68,0,0,0-.39-1.88,11.19,11.19,0,0,0-2.52-4.22,19.63,19.63,0,0,0-3.33-2.66A11.61,11.61,0,0,0,526,493a26.33,26.33,0,0,0-5.24-.4h-3.06c-2.07,0-4.5,0-6.87-.08l-.64,0H510c0-1.24,0-2.5,0-3.75a58,58,0,0,0-.4-5.93c-.14-1.11-.34-2.24-.52-3.24l0-.2a17.57,17.57,0,0,0-1.24-3.64,14.63,14.63,0,0,0-3.09-4.67,10.49,10.49,0,0,0-5.68-2.6l-.13,0c-1.15-.17-2.29-.35-3.42-.45-.93-.08-1.88-.09-2.69-.09h-.67c-2.11,0-4.22,0-6.33,0-1.1,0-2.28.05-3.44.18-.63.07-1.3.18-2.07.33l0-12.4v-2.3c0-3.07,0-6.15,0-9.22v-.69c0-3.81,0-7.75-.4-11.66s-.73-7.58-1.35-11.34a18.35,18.35,0,0,0-4.27-9.42,9.74,9.74,0,0,0-3-2.11,10.36,10.36,0,0,0-2.22-.85c-.82-.17-1.65-.25-2.46-.34l-.41,0a25,25,0,0,0-2.63-.13,51.54,51.54,0,0,0-6.57.53ZM438.75,527.72a12.38,12.38,0,0,0,4.51-2.71,8.51,8.51,0,0,0,3-4.66l.1-.51a36.76,36.76,0,0,0,.68-5.77c.18-3.38.18-6.86.18-9.66v-2.08q0-6.24,0-12.46v-29.1c0-1,0-2.06-.06-3.12,0-.78-.07-1.55-.1-2.33-.07-1.35-.13-2.7-.17-4.06-.05-2-.05-4-.06-5.95v-2.89c0-.78,0-1.62-.05-2.46-.18-3.28-.33-6.5-.36-9.88V425.2a20.58,20.58,0,0,1,0-2.19,5.67,5.67,0,0,1,.2-.67,13.5,13.5,0,0,1,1.23-2.11,10.79,10.79,0,0,1,1-1.07c.29-.17.57-.32.87-.47.53-.19,1.08-.38,1.64-.54.38-.12.76-.22,1.14-.31l.46-.15h.14l.12,0,.12,0c.94-.24,1.94-.48,2.93-.65l1.12-.14,1-.12c1.5-.17,3-.27,4.53-.3h.56c.8,0,1.78,0,3.08.14.22.05.45.12.73.21l.55.3.17.1a3,3,0,0,1,.41.45,9.17,9.17,0,0,1,.79,1.39,28.92,28.92,0,0,1,1.4,5.76c.16,1.33.34,2.88.48,4.48l0,.26.11,1.2.06.68,0,.19c.13,1.31.25,2.6.31,3.9.17,3.62.17,7.29.17,10.85v1.41q0,5.89,0,11.79v8c0,.47,0,.94,0,1.41,0,.79,0,1.59-.06,2.37l0,.38c-.19,3.72-.29,7.29-.32,10.92,0,3.37,0,6.74,0,10.11v7.77c0,1.56-.07,3.15-.18,5.36v.11l0,.54c-.15,2.55-.17,5.06-.17,8v6.67c0,.29,0,.57,0,.87s0,.58,0,.87a10.56,10.56,0,0,1-.05,1.13,2.26,2.26,0,0,0,0,.26,4.07,4.07,0,0,0,1.23,2.68,4.16,4.16,0,0,0,5.89,0,4.47,4.47,0,0,0,1.22-2.94,14.8,14.8,0,0,0,.06-1.53c0-.4,0-.79,0-1.18v-.43c0-.32,0-.64,0-1v-5.21c0-1.5,0-3.48.06-5.47,0-1.11.09-2.21.16-3.31l0-.33v-.31c.06-.87.1-1.71.14-2.55,0-.65,0-1.3,0-1.94s0-1,0-1.49V499c0-.53,0-1.05,0-1.58v-7.8c0-3.53,0-7,0-10.34a19.42,19.42,0,0,1,.12-2.05l.12,0,.11,0c.88-.24,1.69-.44,2.49-.6l.17,0c1.46-.14,2.88-.15,4.33-.15h5a36.31,36.31,0,0,1,3.89.17,16,16,0,0,1,2.54.56l.11.06.16.07.28.34a11,11,0,0,1,1,1.85,22.22,22.22,0,0,1,1,4.17,95.4,95.4,0,0,1,.38,10v1.5q0,5,0,10v5.21q0,1.38,0,2.76c0,.87.07,1.74.12,2.65l0,.23,0,.34,0,.38c0,.63.07,1.24.08,1.84.11,3.33.11,6.82.11,9.62v.36c0,.71,0,1.44,0,2.25v.21c0,.82,0,1.64,0,2.47s0,1.65,0,2.48-.07,1.87-.12,2.8l0,.59c-.09,1.69-.16,3.11-.18,4.65v.1a3.93,3.93,0,0,0,1.18,2.78,4.21,4.21,0,0,0,3,1.28h.1a4.24,4.24,0,0,0,4.05-4.15c0-1.53.1-3.06.17-4.59.09-1.83.18-3.8.18-5.86v-2.7c0-2.39,0-4.78,0-7.18,0-1.68-.06-4.55-.27-8.72l0-.54-.06-1.28c0-.77,0-1.55,0-2.35,0-.61,0-1.24,0-1.87v-1.76l.12-6.16c1.88.08,4.3.11,7.4.11h3.09c1.18,0,2.21,0,3.14.13.35.08.69.17,1,.28a14.16,14.16,0,0,1,2,1.22,7.42,7.42,0,0,1,.94.92,5,5,0,0,1,.33.55,11.9,11.9,0,0,1,.39,1.82c.25,2.26.27,4.66.29,6.78v.36c0,.91,0,2.72.09,4.59l0,.46c.13,2.75.3,6.52.32,10,0,3.05,0,6.1,0,9.15v6.25c0,1.11.08,2.32.16,3.49.05.8.11,1.61.14,2.42,0,1,.06,2,.07,3.07v.87c0,.14,0,.29,0,.43l0,.67a1.56,1.56,0,0,0,0,.24.92.92,0,0,1,0,.18v.24a4,4,0,0,0,.52,2,4.38,4.38,0,0,0,2.5,1.92,4.82,4.82,0,0,0,1.1.12,4.32,4.32,0,0,0,2.12-.55l.3-.2a3.88,3.88,0,0,0,1.6-2.28,17,17,0,0,0,.2-2.87c0-.49,0-1,0-1.49l0-.55c0-1.79-.13-3.72-.3-5.91,0-.81-.07-1.58-.07-2.4v-1.36c0-.45,0-.91,0-1.35V534c0-3,0-6.1-.06-9.15,0-1.41-.08-3.21-.2-5.52l.09-.69h3.4l1.82,0h2.77c.94,0,1.67,0,2.31.07l.35.06.13,0,.33.07c1,.16,1.85.29,2.72.37a11.63,11.63,0,0,1,1.48.43,7.8,7.8,0,0,1,.77.42.83.83,0,0,1,.08.12c.2.31.37.64.54,1a22.5,22.5,0,0,1,1,3.84c.2,2,.24,4.07.27,6.1v1c0,1.31,0,2.62.09,3.92.22,4.76.33,8.28.35,11.43,0,3,0,5.93,0,8.9V560c0,.59,0,1.19,0,1.8,0,.94,0,1.66-.07,2.33s-.07,1.08-.1,1.65c-.09,1.59-.19,2.94-.3,4.12a91.26,91.26,0,0,0-.36,9.21v12.94a4.94,4.94,0,0,0-.12.77,4.21,4.21,0,0,0-.13,1,3.91,3.91,0,0,0,.13,1c0,.16.11.33.18.53v.25h0v0h0v0a17.71,17.71,0,0,1-2.21.1l-3.09,0h-9.9c-1.34,0-2.21,0-3.16.1a19.71,19.71,0,0,0-2.32.3l-.12,0-.74.12-1.5.15c-1.09.12-2.19.24-3.29.33-1.33.11-2.73.16-3.92.19l-1.82.06c-.71,0-1.43.08-2.2.13l-.33,0c-1.08.06-2.12.13-3.17.13h-5.58c-1.6,0-3.46,0-5.28.17l-1,.08-.22,0-1.32.1h-.19l-1.06,0H477.28c-1.42,0-2.84-.16-4.33-.27l-.19,0-.52,0c-.88-.07-1.82-.07-2.26-.07h-1.12c-.54,0-1.07,0-1.6,0l-2-.14-.28,0-.24,0-.15,0h-.14c-.79-.06-1.54-.11-2.31-.11-1.25,0-2.5,0-3.74,0H450.9l-4.32,0H446a17.49,17.49,0,0,1-1.89-.08.91.91,0,0,1-.31-.13l-.15-.23-.12-.2-.3-.51-.51-.9a4.59,4.59,0,0,0-1.78-1.65l-.16-.31-.08-.13-.08-.16-.11-.19-.07-.12-.12-.22-.1-.16c-.49-.78-1-1.55-1.62-2.49a20.92,20.92,0,0,1-1.86-3.07,36.51,36.51,0,0,0-2.13-3.7l-.31-.47-.11-.15-.32-.52c-2.19-3.47-4.15-6.5-6-9.25-2.57-3.82-4.86-7.75-6.57-10.75l-3-5.19c-.77-1.32-1.69-2.7-2.56-4l-.07-.11-.12-.18-.13-.18-.11-.17-.15-.22a122.45,122.45,0,0,1-6.48-10.73c-.51-.92-1-1.83-1.57-2.73s-.9-1.54-1.34-2.32-.92-1.68-1.43-2.74c-.39-.76-.77-1.52-1.18-2.27s-.93-1.81-1.41-2.85c-.29-.63-.58-1.25-.89-1.86-.77-1.53-1.46-3-2-4.26a16.76,16.76,0,0,1-.93-3.18,15.41,15.41,0,0,1,0-2.14c.11-.44.23-.87.39-1.33l.09-.21a10.38,10.38,0,0,1,.79-1.37,5.67,5.67,0,0,1,.66-.63,13.13,13.13,0,0,1,1.95-1,64,64,0,0,1,6.84-2.16l.92-.26.57-.16c.9-.26,1.74-.5,2.58-.71.6-.16,1.2-.29,1.89-.43,1-.09,2-.11,2.84-.12h2l.34,0,.19.22.17.17c.14.16.29.32.44.47.3.3.58.6.86.93l.65.93.17.26c.51.72,1.1,1.42,1.62,2l.14.17c.1.12.2.23.32.39l.1.09.61.77a40.17,40.17,0,0,1,3.13,5.31l.62,1.24,0,.12.06.1.21.46a26.81,26.81,0,0,0,2.06,3.74,4.3,4.3,0,0,0,2.5,1.91c.26.06.56.11.94.17a6,6,0,0,0,2.17.38,7.57,7.57,0,0,0,1.91-.24Zm78.86,78c.94,0,1.65,0,2.31-.09,1.33-.11,2.61-.16,3.81-.22l.53,0h.13l.52,0h.19c1.09,0,2.46-.1,3.75-.21.79-.06,1.57-.14,2.35-.22l.34,0,.33,0,1-.12c.86-.08,1.73-.21,2.54-.34l.29,0,.19,0,.37-.06c.93-.08,1.89-.13,3-.14H554l1.24.07,0,5.44v14.17l-.06.8v.09h0v0h-.9a49.64,49.64,0,0,0-6.44.28,25.67,25.67,0,0,1-2.91.15c-.5,0-.91,0-1.33,0-.74,0-1.51.09-2.21.16h-.17c-.88.08-1.59.15-2.31.15-1.32,0-2.64,0-4,0H522.62c-2.1,0-4.21,0-6.31,0s-4,.1-5.83.24c-1.25.08-2.52.11-4.06.15h-.5l-1.82,0c-1.52,0-3.32.13-5.51.28-.72,0-1.45.07-2.31.07l-1.64,0h-5.91c-1.22,0-3.75,0-6.23-.07-1.42-.06-2.62-.13-3.56-.22s-2.15-.13-3.06-.15l-.83,0c-1,0-2.36-.1-4-.21-1.25-.1-2.46-.11-3.7-.11h-.88c-2.55,0-4.36,0-6.16.09-1.06,0-2.12.13-3.55.3a18.65,18.65,0,0,1-2.12.15h-.07v-.28l-.06-.92c-.07-.86-.21-1.77-.34-2.55l0-.25-.07-.68a27.27,27.27,0,0,0-.46-3.1c-.29-1.24-.64-2.36-.94-3.29-.52-1.58-1.23-3.17-1.86-4.59l0-.1-.25-.54-.22-.5-.22-.49c-.35-.87-.72-1.74-1.1-2.62l-.2-.5,0-.17v0h0v0h0v0l2.54-.08h8.25c1.61,0,3.34,0,5.09.16,1.38.12,2.71.18,4.06.19l.84,0h1.27c.41,0,.82,0,1.23,0s1,.08,1.56.13l.27,0c.26,0,.52.05.79.06,1.68.13,3.48.14,5.12.15H480c1.58,0,3.16,0,4.76,0h18.94c.46,0,1,0,1.69-.11l.77-.08c.76-.06,1.61-.1,2.58-.13h.2c1.75,0,3.56-.06,5.31-.06h3.4Z" fill="#1f2147"/><path d="M539.7,604.15h-.39c-1.13,0-2.08.05-3,.14l-.36.06-.19,0-.29,0c-.81.13-1.68.27-2.54.34l-1,.12-.33,0-.34,0c-.78.08-1.56.16-2.35.22-1.29.11-2.66.17-3.75.21h-.19l-.52,0h-.13l-.54,0c-1.19,0-2.47.1-3.8.21-.66.06-1.37.09-2.31.09h-3.4c-1.76,0-3.56,0-5.31.06h-.2c-1,0-1.82.07-2.58.13l-.77.08c-.68.07-1.23.11-1.69.11H484.72l-4.76,0h-.17c-1.64,0-3.45,0-5.12-.16-.27,0-.53,0-.79-.06l-.27,0q-.78-.08-1.56-.12c-.41,0-.82,0-1.24,0H468.7c-1.34,0-2.67-.08-4.05-.2-1.76-.14-3.48-.16-5.09-.16h-8.25l-2.54.08.05.25.2.5c.38.88.75,1.75,1.1,2.62l.22.49.22.5.24.54.05.1a49.33,49.33,0,0,1,1.86,4.59c.3.93.65,2,.94,3.29a27.6,27.6,0,0,1,.46,3.1l.07.68,0,.25c.13.78.27,1.69.34,2.55,0,.31,0,.61.06.92v.28h.06a19,19,0,0,0,2.13-.15c1.43-.17,2.49-.26,3.55-.3,1.8-.09,3.61-.09,6.16-.09h.88c1.24,0,2.45,0,3.7.11,1.6.12,2.93.19,4,.21l.84,0c.91,0,2,0,3.06.14s2.14.18,3.56.23c2.48.07,5,.07,6.22.07h5.92l1.63,0c.87,0,1.6,0,2.32-.07,2.19-.15,4-.24,5.51-.28l1.82,0h.5c1.53,0,2.81-.07,4.05-.15,1.78-.14,3.75-.23,5.84-.25s4.21,0,6.31,0h12.31l4,0c.72,0,1.42-.07,2.31-.15h.17c.7-.07,1.47-.13,2.21-.16.42,0,.83,0,1.33,0a23.49,23.49,0,0,0,2.91-.14,49.64,49.64,0,0,1,6.44-.28h.9l.06-.92V609.67l0-5.44-1.24-.07H539.7Z" fill="#495beb"/><path d="M463.49,416.41h-.56c-1.59,0-3,.13-4.53.3l-1,.12-1.12.14c-1,.17-2,.41-2.92.65l-.12,0-.12,0H453l-.46.14c-.38.1-.76.2-1.14.32-.55.16-1.11.34-1.64.54-.3.15-.58.3-.87.47a12.1,12.1,0,0,0-1,1.07,13.92,13.92,0,0,0-1.23,2.1,6.45,6.45,0,0,0-.2.68,20.63,20.63,0,0,0,0,2.19v.74c0,1.38,0,2.76,0,4.14,0,3.38.18,6.6.35,9.88.05.84.06,1.68.06,2.46v2.89c0,2,0,4,.06,6,0,1.35.1,2.7.17,4.05,0,.78.07,1.55.1,2.33.06,1.06.06,2.12.06,3.12v29.1q0,6.22,0,12.46v2.08c0,2.8,0,6.28-.17,9.66a36.82,36.82,0,0,1-.69,5.77l-.1.52a8.52,8.52,0,0,1-3,4.65,12.22,12.22,0,0,1-4.51,2.71,7.57,7.57,0,0,1-1.91.24,6,6,0,0,1-2.17-.38l-.95-.16a4.37,4.37,0,0,1-2.49-1.92,27.3,27.3,0,0,1-2.06-3.73l-.21-.47,0-.1-.06-.12c-.2-.41-.4-.83-.62-1.24a39.49,39.49,0,0,0-3.13-5.3l-.61-.78c-.08-.08-.09-.08-.1-.08-.12-.17-.22-.28-.32-.4l-.14-.17a25.29,25.29,0,0,1-1.62-2l-.17-.25-.65-.93c-.28-.33-.56-.63-.86-.93s-.3-.31-.44-.47l-.17-.17-.19-.22-.33,0h-2c-.88,0-1.82,0-2.84.13-.69.13-1.29.26-1.89.42-.84.21-1.68.45-2.58.71l-.57.16-.92.26a59.79,59.79,0,0,0-6.84,2.16,14.17,14.17,0,0,0-1.95,1,6.71,6.71,0,0,0-.66.64,11.06,11.06,0,0,0-.79,1.37l-.09.21a12.33,12.33,0,0,0-.39,1.33,14.06,14.06,0,0,0,0,2.14,17.73,17.73,0,0,0,.91,3.18c.57,1.29,1.25,2.73,2,4.26.31.61.6,1.24.89,1.86.48,1,.92,2,1.41,2.85s.79,1.51,1.17,2.27c.52,1.06,1,2,1.44,2.74s.88,1.55,1.34,2.32,1.06,1.81,1.57,2.73a123.08,123.08,0,0,0,6.48,10.74l.15.21.11.17.13.18.12.18.07.11c.87,1.29,1.79,2.67,2.56,4l3,5.19c1.7,3,4,6.93,6.57,10.75,1.83,2.75,3.79,5.78,6,9.25l.32.52.11.15.31.48a35.29,35.29,0,0,1,2.13,3.69,21.83,21.83,0,0,0,1.86,3.07c.64.94,1.13,1.72,1.62,2.49l.09.16.13.23.07.11.11.19.08.16.08.13.16.32a4.5,4.5,0,0,1,1.78,1.64l.51.9.3.51.12.2.15.23a1.2,1.2,0,0,0,.31.13c.65.07,1.28.07,1.89.08h16.13c.77,0,1.52.06,2.31.12h.28l.25,0,.28,0c.67.05,1.34.1,2,.13s1.06,0,1.6,0H470c.45,0,1.38,0,2.26.07l.52,0H473c1.5.13,2.91.24,4.33.28h25.24l1.06,0h.19l1.32-.09.22,0,1-.08c1.82-.15,3.68-.17,5.28-.17h5.58c1.06,0,2.08-.06,3.17-.12l.33,0c.77-.05,1.49-.1,2.2-.13l1.82-.07c1.19,0,2.58-.07,3.92-.18l3.3-.33,1.49-.15.74-.12.13,0a21.75,21.75,0,0,1,2.31-.31c.95-.08,1.83-.09,3.16-.09l3.81,0h6.09c1.05,0,2.07,0,3.09,0a17.75,17.75,0,0,0,2.21-.09l0-.34a5.31,5.31,0,0,1-.17-.53,3.92,3.92,0,0,1-.14-1,4.35,4.35,0,0,1,.13-1,5.21,5.21,0,0,1,.12-.76v-.32c0-.16,0-.29,0-.41V579.11a91.26,91.26,0,0,1,.36-9.21c.11-1.18.21-2.53.29-4.11,0-.58.07-1.13.11-1.66s.06-1.39.07-2.33c0-.61,0-1.21,0-1.8v-3.66c0-3,0-5.93,0-8.9,0-3.15-.13-6.67-.35-11.43-.06-1.3-.08-2.61-.1-3.92v-1c0-2-.07-4.11-.27-6.09a22.5,22.5,0,0,0-1-3.84c-.17-.33-.34-.66-.54-1h0a.83.83,0,0,0-.08-.12,7.8,7.8,0,0,0-.77-.42,11.63,11.63,0,0,0-1.48-.43c-.87-.08-1.71-.21-2.72-.37l-.33-.07-.13,0-.35-.06c-.64-.05-1.37-.07-2.31-.07h-8l-.09.69c.12,2.31.19,4.11.21,5.52.05,3,.05,6.15.05,9.15v9c0,.82,0,1.59.07,2.4.17,2.19.27,4.12.31,5.91v.55c0,.52,0,1,0,1.49a17,17,0,0,1-.2,2.87,3.88,3.88,0,0,1-1.6,2.28l-.3.2a4.19,4.19,0,0,1-5.72-1.49,4,4,0,0,1-.52-2v-.24c0-.08,0-.13,0-.19v-.23c0-.22,0-.44,0-.67v-1.3c0-1,0-2-.07-3.07,0-.81-.09-1.62-.14-2.42-.08-1.17-.16-2.37-.16-3.49v-6.25c0-3,0-6.1,0-9.15,0-3.51-.19-7.29-.32-10l0-.47c-.08-1.86-.09-3.67-.09-4.58v-.36c0-2.12-.05-4.52-.3-6.78a10.75,10.75,0,0,0-.38-1.82,5,5,0,0,0-.33-.55,7.44,7.44,0,0,0-.94-.92,15.16,15.16,0,0,0-1.94-1.22c-.34-.11-.68-.2-1-.28-.93-.09-2-.13-3.14-.13h-3.09c-3.1,0-5.52,0-7.4-.1l-.11,6.15v1.76c0,.63,0,1.26,0,1.87,0,.8,0,1.58,0,2.35l.06,1.28,0,.54c.21,4.17.26,7,.27,8.72,0,2.4,0,4.79,0,7.18v2.7c0,2.06-.09,4-.18,5.86-.07,1.53-.14,3.06-.17,4.59a4.24,4.24,0,0,1-4.05,4.15h-.1a4.2,4.2,0,0,1-3-1.28,3.93,3.93,0,0,1-1.18-2.78v-.1c0-1.54.09-3,.18-4.65l0-.59c0-.93.09-1.87.12-2.8s0-1.66,0-2.48,0-1.65,0-2.47v-.21c0-.81,0-1.54,0-2.25v-.36c0-2.8,0-6.29-.11-9.63,0-.59-.05-1.2-.08-1.84l0-.37v-.34l0-.23c-.05-.91-.1-1.78-.12-2.65s0-1.84,0-2.76v-5.21q0-5,0-10v-1.5a98.18,98.18,0,0,0-.38-10,23.16,23.16,0,0,0-1-4.17,11.76,11.76,0,0,0-1.06-1.85l-.29-.34-.15-.07-.11-.06a15,15,0,0,0-2.54-.56,36.13,36.13,0,0,0-3.89-.16h-5c-1.45,0-2.87,0-4.33.15l-.17,0c-.8.17-1.61.36-2.49.6l-.11,0-.12.06a19.42,19.42,0,0,0-.12,2.05c0,3.38,0,6.81,0,10.34v7.8c0,.53,0,1.05,0,1.58v.37c0,.49,0,1,0,1.49s0,1.29,0,1.94c0,.84-.08,1.68-.14,2.55v.31l0,.33c-.07,1.1-.13,2.2-.16,3.31,0,2-.06,4-.06,5.47V520c0,.32,0,.64,0,1v.42c0,.39,0,.78,0,1.18a14.8,14.8,0,0,1-.06,1.53A4.42,4.42,0,0,1,478.1,527a4.16,4.16,0,0,1-5.89,0,4.07,4.07,0,0,1-1.23-2.68,2.26,2.26,0,0,1,0-.26c0-.37.05-.75.05-1.13s0-.58,0-.87,0-.58,0-.87v-6.67c0-3,0-5.48.18-8l0-.54v-.11c.11-2.21.18-3.8.18-5.36V492.7c0-3.37,0-6.74,0-10.11,0-3.63.13-7.2.32-10.92l0-.38c0-.78.05-1.58.05-2.37,0-.47,0-.94,0-1.41V446.32c0-3.56,0-7.24-.17-10.85-.06-1.3-.18-2.59-.31-3.9l0-.19-.06-.68-.11-1.2,0-.26c-.13-1.6-.31-3.15-.47-4.48a28.92,28.92,0,0,0-1.4-5.76,9.17,9.17,0,0,0-.79-1.39,3,3,0,0,0-.41-.45l-.17-.1-.55-.3a5.55,5.55,0,0,0-.74-.2c-1.29-.1-2.27-.15-3.07-.15Z" fill="#e1e3fc"/></g></g></svg>